<svg xmlns="http://www.w3.org/2000/svg" viewBox="0 0 629.3 354" style="enable-background:new 0 0 629.3 354" xml:space="preserve"><style>.st0{display:none}.st4{display:inline;fill:#fff}.st5{font-family:&apos;Poppins-Regular&apos;}.st8{font-size:9px}.st9{display:inline}.st14{fill:none}.st15,.st17{fill:#272761}.st17{display:none}.st19{fill:#2e2e6b}.st20{fill:#1f1f47}.st21{fill:#252557}.st22{fill:#9855c1}.st23{fill:#7b3ca5}.st24{fill:#8441b3}.st25,.st26{fill:#ffc533}.st26{opacity:.33}.st27{fill:#3a1e78}.st28{fill:#4a298f}.st29{opacity:.55;fill:#ffc533}.st31{fill:#927dd0}.st32{fill:#ac9bdb}.st33{fill:#fff}.st35{fill:#ca9ce6}.st36{fill:#871a6c}.st39{opacity:.22;fill:#4a298f}.st40{fill:#846596}.st42{fill:#ff7d1e}.st43{fill:#ffbf2b}.st45{fill:#45393c}.st46{fill:#090914}.st47{fill:#f1f1f1}.st48{fill:#000518}.st51{fill:#f7fffa}.st52{fill:#fe798c}.st53{fill:#7f7f4f}.st55{fill:#ed8583}.st56{fill:#e3af2d}.st58{font-size:5.5694px}.st60{font-family:&apos;Alegreya-Bold&apos;}.st61{font-size:24.0104px}.st62{letter-spacing:-1}.st63{letter-spacing:-2}.st69,.st70{opacity:.5;fill:#fff}.st70{fill:#e86900}.st71{fill:#00933e}.st72{fill:#8b4b2c}.st73{fill:#b3795d}.st74{fill:#191936}.st75{fill:#fb5d36}.st77{fill:#e86900}.st78{opacity:.5;fill:#ff9d07}.st84{fill:#522840}.st86{fill:#fff9f2}.st88{display:inline;fill:#323273}.st89,.st90,.st91{stroke-linecap:round;stroke-miterlimit:10}.st89{fill:#c1c1c1;fill-opacity:.6;stroke:#e3e3e3;stroke-width:1.5;stroke-linejoin:round}.st90,.st91{fill:none;stroke:#250a22;stroke-width:2.0052}.st91{display:inline;stroke-width:1.0026}.st92{fill:#e5e5e5}</style><g id="OBJECTS"><linearGradient id="SVGID_1_" gradientUnits="userSpaceOnUse" x1="334.797" y1="370.889" x2="294.892" y2="-13.528"><stop offset="0" style="stop-color:#fb4c4e"/><stop offset=".01" style="stop-color:#ee4c57"/><stop offset=".04" style="stop-color:#cc4a6f"/><stop offset=".074" style="stop-color:#af4984"/><stop offset=".112" style="stop-color:#984894"/><stop offset=".154" style="stop-color:#8648a1"/><stop offset=".205" style="stop-color:#7947aa"/><stop offset=".272" style="stop-color:#7247b0"/><stop offset=".424" style="stop-color:#7047b1"/><stop offset=".446" style="stop-color:#7049b1"/><stop offset=".616" style="stop-color:#7050b1"/><stop offset=".998" style="stop-color:#7052b1"/></linearGradient><path class="st14" d="M347.9 209c.2-.3.3-.6.2-.9 0-.2-.2-.5-.3-.7-.2.4-.3.8-.5 1.1.3.2.4.4.6.5zM349.2 205.6c.4-.9.4-2.1.6-3.1 0-.2 0-.5.1-.7-.2.9-.6 1.7-.7 2.2-.3.9-.7 1.9-1 2.8.1.1.1.2.2.3.2-.5.6-1 .8-1.5zM328.2 243c.6-1.3.9-2.4 1-3.7.1-1.2.2-2.6-.2-3.8-.3-.9-.9-1.7-1.2-2.5-.2-.7-.5-1.7-.4-2.4.7.8.8 2.1 1.4 3 .5.7 1.1 1.4 1.6 2.1.4-.9.4-2.1.6-3.1.4-1.6.5-3.1.3-4.6.8 1.3 1.2 3.2 1 4.8-.2 1.5-1.2 2.9-1.7 4.4-.5 1.4-.3 2.9-.6 4.4-.2.7-.5 1.4-.9 2.1 3.2-1.4 6.4-2.9 8.8-5.3.4-.4.8-.8 1.1-1.3-.1-.5-.1-.9-.2-1.4-.3-1-.6-2-.8-3-.3-1.5-.6-2.9-.9-4.4-.1-.6-.6-2.6.4-2.9.4.7.2 1.8.3 2.5.1 1 .3 2 .6 2.9.4 1.1.8 2.1 1.3 3.2l.6 1.2c1.2-2 2.1-4.2 3.1-6.1.7-1.3 1.2-2.7 1.9-4-1.4-1.8-2.5-3.6-3.2-5.6 1 1.5 1.9 3.2 3.4 4.4.1.1.2.2.3.2.5-.8 1.1-1.9 1.6-2.3-.2-.4-.3-.8-.5-1.3-.7-1.5-2.7-3.6-2.2-5.3 1.3 1.2 1.9 3 2.8 4.4 1.1 1.7 1.1-.4 2.2-1 .9 1-.7 2.3-.9 3.3-.3 1.1 0 2.7.4 4 1.5.7 3.1 1.2 4.6 1.8.6.2 1.2.5 1.8.7-1-1.1-1.6-2.5-2.5-3.6-.7-.9-1.4-2.2-1.5-3.2 1.1 1.1 1.7 2.3 2.5 3.6.8 1.4 2.1 2.9 3.5 4.1 1.8.8 3.5 1.7 5.2 2.6-.2-.9-.8-1.8-1.3-2.7-2.5-3.9-3.8-8.4-7.5-11.6-2.6-2.3-5.6-4.6-7.8-7.3-.7 1.3-1.5 2.6-2.4 3.8-1.2 1.5-3 2.5-4.6 3.6-2.7 1.7-5.3 3.3-7.9 5.1-1.1.7-2.1 1.4-3.1 2.1 0 .4-.1.7-.2 1-.1.4-.1.8-.2 1.3s-.3.9-.4 1.4c-.1.6-.2 1.3-.4 1.9-.3 1.3-.5 2.6-.8 3.9-.2.8-.2 1.5-.4 2.3-.2.6-.1 1.2-.1 1.8-.1.9-.3 1.8-.2 2.7 0 1.2-.1 2.3-.4 3.5-.1.3-.1.6-.2 1 .9-.5 1.9-1 2.9-1.4.2-.4.3-.9.4-1.3zM379.1 254.2c0 .1.1.1.1.2.4.7.9 1.4 1.3 2.1l-.8-2.4-.6.1zM3.3 229.1c1.5-2.1 3-4.2 3.7-6.7.1-.4.2-.8.2-1.2-.2-.3-.4-.6-.6-.8-.6-.5-1.1-1.1-1.7-1.6-.1-.1-.2-.3-.3-.4-.6 1.8-1.9 3.7-2.5 4.9l-.3.6c0 .2 0 .3.1.5.2 1.1.9 2 1.3 3 .1.6.1 1.1.1 1.7z"/><path class="st14" d="M10 222.4c0-1.5.2-3 0-4.4-.2-1.3-.9-2.5-1.9-3.6.1 1.7.3 3.4.5 5.1.1 1.6 0 3.4-.7 5.1-.8 1.9-2.2 3.6-3.5 5.3-.6.8-1.4 1.7-2 2.6l.1.1c2.2-2.7 4.9-5.2 7.4-7.8.1-.9.1-1.9.1-2.4zM366.3 241.3c-.1-.3-.2-.5-.4-.8-.8-1.2-2.2-2.2-3.2-3.3 1.3.4 2.5 1.4 3.4 2.5-.2-1.6-.6-3.1-1.5-4.3-.4-.5-1.3-.9-1.9-1.3-2.2-1.2-4.3-2.3-6.6-3.4s-4.6-2.1-6.9-3.2c-.8-.3-1.9-1.1-2.7-1.3l-.3.6c-1.6 3-2.9 6-4.3 9-.9 2-2.4 4-4.3 5.5-2.2 1.7-5 2.7-7.6 3.8-1.7.7-3.7 1.4-5.3 2.4-.1 1.3-.1 2.6 0 3.9l.3.3v-.1l2.6 2.7v4.1l2.3-.3-1.6-6 2.2-3.9.4-.7.6.7v-.1l3.2 3.2v6.2l2.4-.3-1.1-4 1.8-3.3.4-.8.6.7v-.1l2.6 2.7v4.1l3.5-.5-.8-6.4 2.7-4 .5-.8.5.7v-.1l2.7 3.3-.9 6.6 3.2-.4-.5-3.9 2.2-3.3.5-.8.5.7v-.1l2.2 2.7-.6 4.1 3-.4-.6-5 .2-.2c-3.4-1.8-7.4-2.7-11.3-3.7-1-1-1.8-2.4-2.5-3.6-.4-.7-1.9-2.7-1.4-3.4.7.7 1.1 1.6 1.7 2.4.6.8 1.5 1.9 2.4 2.5 1 .7 3.1.9 4.4 1.2 1 .2 2 .6 2.9.9.5.2 1.6.8 1.9.7.1 0 .1.1.2.1-.5-1.4-.9-3.1-2.1-4.2-.7-.6-1.9-1.1-2.7-1.6-1.1-.7-2.1-1.5-2.8-2.5.9.6 2 1.1 3 1.6.8.4 1.7 1.5 2.5 1.6 0-.9-.3-1.9-.4-2.8-.1-1.4-.3-2.9-.3-4.2 1.2 2.3 1.1 4.9 1.9 7.3.6 2 1.6 3.8 2.7 5.6l1.5.6.8-.7.5-.5.5.4 2.2 1.8-.3 1.9c.3.5.5 1.1.8 1.3.5-2.4.3-5.2.1-7.6.6-.7.5-1.6.4-2.5zM348.5 225.6c0-.5-.2-1.4-.2-1.7l-.3-.9v.1c-.2.6-.5 1.2-.8 1.8.4.3.9.5 1.3.7z"/><path class="st15" d="m465.9 233.2.4-5.2-2.3-1.7-.5-.4-.5.6-2.4 2.6.9 5-3 .6.3-4.1-2.3-2.6v.1l-.6-.6-.5.8-2 3.4.7 3.9-3.2.6.5-6.7-2.8-3.2v.1l-.6-.6-.5.8-2.5 4.2 1.2 6.4-3.5.7-.3-4.1-2.8-2.5v.1l-.7-.6-.4.8-1.6 3.4 1.3 3.9-2.4.5-.4-6.2-3.3-3v.1l-.7-.6-.4.3-2 4 2 5.9-2.3.4-.3-4.1-2.8-2.5v.1l-.7-.6-.4.8-1.6 3.4 1.3 3.9-1.4.3-2.7.5.4-4.9-2.3-1.7-.5-.4-.5.6-2.4 2.6.9 5-3 .6.3-4.1-2.3-2.6v.1l-.6-.6-.5.8-2 3.4.7 3.9-3.2.6.5-6.7-2.8-3.2v.1l-.6-.6-.5.8-2.5 4.2 1.2 6.4-3.5.7-.3-4.1-2.8-2.5v.1l-.7-.6-.4.8-1.6 3.4 1.3 3.9-2.4.5-.4-6.2-3.3-3v.1l-.7-.6-.4.8-2 4 2 5.9-2.3.4-.3-4.1-2.8-2.5v.1l-.7-.6-.4.8-1.6 3.4 1.3 3.9-1.4.3h-.2c-.3-.4-.8-1.1-.9-1.4-.2-.7-1.1-3.2-.7-3.5v-.7c.8-1.3 1.6-2.7 2.7-3.8.9-.9 1.8-.6 3-.7.6 0 1.8-.4 1.1-.9-.6-.4-2 0-2.7 0 .3-.7 1.5-1.6 2.1-2.2.7-.7.3-.9-.1-1.7-.6.3-1 .8-1.5 1.2-.7.6-1.5 1.1-2.2 1.7-.5.4-1.3 1-2 1.7.2-2 .1-3.9-.8-5.7-.3-.6-.6-1.1-1-1.7 1-2.9 2.7-5.8 4.6-8.4.3-.5.7-.9 1.2-1.4 0 0 .1 0 .1-.1 1.2-.5 2.3-.9 3.6-1.1 1.2-.2 2.5-.2 3.7-.3.9 0 1.5-.3 1.7-1-.4.1-.8.2-1.3.3-.9.1-1.8-.2-2.8-.1-1.3.1-2.4.7-3.6 1 1.9-1.6 4-3 5.9-4.5 1.7-1.4 3.2-2.9 4.1-4.8 1.3-2.5 1.3-5.2 2-7.8.3-1 .6-2 .4-3.1-.1-.5-.1-2-.6-2.3-.5 1.5-.3 3.2-.5 4.7-.3 1.8-.9 3.6-1.6 5.3-.3.7-.6 1.3-1 2-.3-1.1-1.1-2.1-1.5-3.1-.2.8-.1 1 .2 1.8.4.9.5 1.7.4 2.6-.4.6-.9 1.2-1.4 1.7-.2-.5-.4-1-.7-1.4-.5-.8-1.2-1.4-1.9-2.1-.9-.8-1.9-1.5-2.9-2.3.6-.4 1.3-.7 1.8-1.1.6-.4.9-.9 1.3-1.5.7-.9 1.5-1.6 2.3-2.4.4-.4 1.1-.9.5-1.4-.5.3-.7.9-1 1.3-.4.5-.8.9-1.3 1.3.2-1.1.7-2.7 0-3.7-.5 1.8 0 3.7-1.6 5.1-.5.4-1.7 1.6-2.6 2-1.5-1.2-2.9-2.5-3.3-4.3-.2-.9-.3-1.8-.4-2.7 0-.5.3-1.7-.4-1.9-.3 1.3-.2 2.8 0 4.1.6 3 2.9 5.1 5.3 7.2 1.1 1 2.5 2 3 3.3.3.6.3 1.3.2 2-1.9 1.7-4 3.3-6.1 4.9-1.7 1.3-2.9 3-4.4 4.4-.9.9-3 2.9-4.8 3.1v-.1c-.6-.9-1.7-1.7-2.5-2.6-.5-.5-.9-1-1.4-1.5.8-1.1 1.5-2.2 2.6-3.2 1-.9 1.6-1.7 2.9-2.4 1.4-.7 3.5-1.3 3.5-3-.2.1-.4.4-.6.6-.3.3-.7.6-1.2.8-.5.2-1.5.8-2.1.6-.2-1 .2-2.2.2-3.3 0-1.2.2-2.3.3-3.5-.4.3-.4 1.1-.5 1.5-.2.8-.3 1.7-.4 2.5-.2 1.2-.2 2.6-1.1 3.6-1 1-2.3 1.8-3.5 2.6-.3.2-.9.8-1.5 1.1l-.2-.2c-.9-1.2-1.7-2.3-2.4-3.5-.2-.3-.4-.5-.6-.8.2-1.6.7-3 1.5-4.5.8-1.4 1.4-2.9 2.6-4.1 1.3-1.3 3.8-2.4 4-4.1-.4.1-1.1.8-1.5 1-.6.4-1.1.9-1.6 1.3-.1-.4.1-1.1.2-1.5.1-.8 0-1.5.1-2.3.1-1.3.6-3.2-.3-4.4-.2.6-.1 1.2-.1 1.8 0 1-.1 2-.2 2.9-.1 1.4-.4 2.9-1.1 4.2-.5 1-1.2 2-1.8 3-.7 1.2-1.5 2.2-2.4 3.3-.2.2-.4.6-.7.8-.6-1.1-1.2-2.1-1.7-3.2-.4-1.1-.8-2.2-1-3.3 0-.1.1 0 .1 0 .4-2 .2-4 .8-6 .2-.7 1.6-3.3 1.3-3.8.7-1.1 1.3-2.3 1.8-3.4.6-.4 1.2-.8 1.7-1 1.9-.7 4.2-.6 6.3-.7 2.5-.2 5.2-.2 7.6-.9 2.1-.7 3.9-2 5.3-3.4 2.1-2.1 4.1-4.3 6.4-6.3.9-.8 1.9-1.7 2.7-2.6.4-.4 1.2-1.4.1-1.1-.8.2-2.1 1.5-2.7 2-1.1.9-1.9 1.9-3 2.9-1.4 1.3-2.8 2.9-4.5 4.2 0-.4-.1-.8-.1-1.2-.1-1-.1-2.1-.1-3.1 0-.9.1-1.8.4-2.7.2-.7.6-1.6.5-2.3-1 0-1.2 1.9-1.2 2.4-.2 1.3-.4 2.7-.6 4-.1.9-.2 1.9-.2 2.8 0 .4-.1.8-.2 1.2-.4.3-.9.5-1.3.8-2.8 1.3-6 1.5-9.1 1.8.5-.4 1-1 1.4-1.5.7-1.1 1-2.5 1.8-3.5.9-1.1 2.1-2 2.8-3.2.7-1.3.9-3 .6-4.4-.3 1.3-.9 2.6-1.7 3.8-.5.8-.9 1.7-1.5 2.4-.2-.8-.6-1.5-.7-2.3-.2-1 0-2.2-.3-3-.3.5-.4 1.5-.4 2.2 0 .8.3 1.7.3 2.5 0 1.1-.5 2.2-1 3.3-.5 1.1-1.1 2-2 2.9-.2.2-.5.7-.8 1-1.8.2-3.6.3-5.3.9.1-.3.3-.5.4-.8 1.2-2 2.8-3.9 4.1-5.9.7-1.1 1.2-2.2 1.8-3.3.8-1.5 1.7-4.1 2.5-5.5v-.1c.3-.3.7-.5 1.1-.8 1.4-.8 3.1-1.1 4.8-1.5 2.7-.7 5.5-1.3 8.3-1.9 1.7-.4 3.6-.7 5-1.6 3.1-2 5.4-4.6 7.5-7.3.6-.8 2.6-2.9 1.9-4-.5.3-.9 1-1.2 1.5-.8 1.2-1.6 2.3-2.6 3.4-1.4 1.7-3.1 3.3-5.4 4.2-1.5.6-3.2 1-4.9 1.4.4-.9.6-1.7.8-2.7.2-1 .5-2.1 1.4-2.8.8-.7 1.8-1.2 2.4-2.1.5-.8.9-2.1.6-3-.3.7-.5 1.4-1 2-.5.6-1.2 1.1-1.8 1.7-.2.1-.8 1-1.1 1-.3 0-.5-.7-.5-.8-.5-1.2-1.3-2.4-1.4-3.7.1.6-.1 1.4 0 2.1.1 1.3.5 2.6.6 3.9.1 1.1-.2 2.2-.5 3.3-.1.4-.3 1-.5 1.4-.7.2-1.4.3-2.1.5-2.5.7-5.1 1.2-7.6 1.8-1.1.3-2.2.6-3.2 1 .1-1 .1-2 .2-2.9.1-.3.1-1 .1-1.8 1.2-1.7 3.1-3 4.5-4.5.7-.8 2.5-2 1.8-3.1-.5 1.3-1.7 2.6-2.8 3.7-.7.7-2 1.6-3.2 2.1-.4-.9-.5-2-.9-3 .5-1.3.9-2.6 1.6-3.8.7-1.1 2.1-1.5 3.5-2 1.9-.7 3.7-1.4 5.7-1.9 1.8-.5 5.4-1.1 5.7-2.9-.7.4-1.8.7-2.6 1l-2.1.6c.2-.6.5-1.3.8-1.9.4-.8 1-1.4 1.1-2.2-.7-.1-1.6 2.5-1.8 2.9-.2.5-.5 1-.9 1.4-1.4.4-2.9.7-4.3 1.1-1.4.4-2.7.8-4 1.3-.5.2-1.8 1.1-2.2 1-.5.4-.9 1.1-1.2 1.6-.2.3-.3.7-.4 1.2-.2-.2-.3-.5-.5-.7-.8-1-1.4-2.2-2-3.3.6-1 1.3-2 2-2.9 1.4-1.6 2.5-3.4 3.8-5.1.8-1 1.5-2.2 1.9-3.3.8-2.1.4-4.7.8-6.8-.1-.1-.6-.3-.5-.3-.1 1.3-.1 2.7-.3 4-.1 1.3-.9 2.3-1.8 3.4-.7.8-1.3 1.7-2 2.6-.1-.2-.2-.4-.2-.5-.2-.6-.3-1.2-.3-1.8-.1-.8.1-2.6-.7-3.2-.8 1.4-.5 2.7.2 4 .4.8.5 1.6.4 2.3-.1.1-.1.2-.2.3-.8 1-1.6 2.4-2.5 3.4-.5.5-1.2 1.3-1.9 1.8-.4-.5-.8-1-1.4-1.5-.4-1.3-.1-2.7-.1-4-.1-.9-.4-2-.1-3-.1-.2-.4-.3-.7-.4-.1 1.6-.2 3.3-.3 4.9-.3 4.6 2.9 8.6 5.4 12.7.5.8.9 1.7 1.3 2.5-.9 4-2.1 8.1-3.4 11.9-.6 1.8-1.5 3.5-2.6 5.2-.2-1.3-.5-2.6-1.6-3.4 0-.2-.1-.4-.1-.6-.1-.6-.2-1.3-.3-1.9-.2-1.6-.2-3.2-.1-4.8 0-1.3.3-2.5.8-3.7.3-.7.5-1.4.5-2.1-.7.1-1.2 2.1-1.3 2.6-.3.8-.2 1.9-.7 2.7-.5-.2-.5-1.2-1.2-1.4-.7.7 1.2 2.7 1.4 3.4.1.8-.1 1.8-.1 2.6-.1.6-.2 1.2-.4 1.8-.5-.6-1.1-1.1-1.7-1.6-.7-.5-1.4-1.1-2.1-1.6-.5-.5-1.1-1.2-1.5-2 .2-.7.5-1.5.9-2.1.8-1.3 1.4-2.6 1.9-4 .6-1.7 2.8-2.5 3-4.4-.6.2-1.1 1-1.5 1.4-.4.3-.7.8-1.2 1-.5-.8-.4-1.9-.5-2.8-.1-1.2-.2-2.6-.7-3.7-.4.9.2 2.2.3 3.2.2 2.1.5 4.9-.7 6.8-.4.7-1 1.4-1.6 2-.2.3-.4.7-.6 1-.4-1.4-.8-2.7-.9-4.1-.2-1.9-.5-3.9-.5-5.8 0-.1-.1-.1-.1-.1-.1-.2-.4-.5-.7-.6-.3.9 0 1.9.1 2.8.1 1.3.1 2.7.2 4 .2 2.4.6 4.8 1.1 7.2 2.5 1.7 5.7 3.8 6.4 6.4.3 1.3.3 2.7.4 4 0 .5.1 1.3.1 2.1-2 2.6-4.2 5.1-6 7.7-1.1-.7-2.4-1.5-3.1-2.5.4-2 1.3-3.8 2-5.7.8-2 2.8-5.6 1.7-7.6-.4.4-.3 1.2-.4 1.7-.2.6-.5 1.2-.8 1.8-.6 1.3-1.1 2.6-1.5 3.9-.4 1.5-1.3 2.8-2 4.2-1.3-3.3-.8-7.2-2-10.4-.1 3.9-.2 7.8.1 11.7 1.9 1.9 3.6 4.1 4.8 6.4-1.3 3.5-2 7.1-2.4 10.8-.1.9-.3 1.4-.3 2.3-1.1-1.1-2.1-1.8-3.2-2.7-.5-1.8.3-4 .7-5.6.7-2.4.8-4.9-1-7.1l.6 1.5c-.4.5-.5 1.4-.7 2-.3 1.3-.8 2.6-1.3 4-.1-.8-.1-1.6-.5-2.2-.6 1.2-.4 2.2 0 3.3-.2.5-.4 1-.7 1.5-1.1-1.3-2.1-2.9-3.1-5.3-.1-1.2-.2-2.3-.5-3.5-.2 1.5-.3 3-.2 4.5.2 2.2 1.2 4.2 2.7 6.1-.6.9-1.3 1.7-2.2 2.5-1.4 1.2-3 2.2-4.5 3.3.1-1.1 0-2.1-.2-3.2-.1-1.1-.2-2.4.4-3.5.6-1.1 1.4-1.9 1.7-3.1.3-1 .1-2.6-.5-3.4-.1.8 0 1.6-.3 2.4-.3.8-.8 1.6-1.2 2.4-.1.2-.5 1.3-.8 1.4-.3.1-.7-.5-.9-.7-1-1.1-2.2-2-2.8-3.4.4.6.5 1.5.8 2.2.6 1.3 1.5 2.5 2.1 3.9.5 1.1.6 2.4.7 3.6 0 .5.1 1.1 0 1.7-.7.4-1.4.9-2 1.3-2.4 1.6-4.8 3.1-7.2 4.7-.4.2-.7.5-1 .7l-.6-.9c-.9-1.1-1.6-2.4-2.3-3.6.7-1.8 1.9-3.6 2.7-5.4.5-1.1 1.9-3 .7-3.9-.1 1.5-.8 3.4-1.6 4.9-.5 1-1.5 2.4-2.5 3.4-.1-.1-.2-.3-.4-.5-.4-.7-.9-1.3-1.3-2-.1-.2-.2-.4-.4-.6 0-1.5-.1-2.9.2-4.4.3-1.4 1.7-2.3 2.9-3.4 1.7-1.4 3.4-2.9 5.2-4.2 1.7-1.2 5.2-3.2 4.9-5.1-.6.7-1.6 1.4-2.4 2-.6.5-1.3 1-2 1.4 0-.7 0-1.6.1-2.3.1-.9.5-1.8.3-2.7-.8.1-.7 3.2-.8 3.7-.1.6-.2 1.2-.4 1.8-1.4.9-2.7 1.8-4.1 2.8-1.3.9-2.5 1.8-3.7 2.9-.4.4-1.4 1.8-1.9 1.9-.4.6-.6 1.5-.7 2.2-.1.4 0 .9 0 1.4-.3-.2-.5-.4-.8-.5-1.2-.7-2.3-1.7-3.3-2.7.3-1.2.6-2.5 1-3.7.8-2.2 1.4-4.5 2.1-6.7.4-1.4.7-2.8.8-4.2.1-2.6-1.3-5.1-1.7-7.4-.1-.1-.6-.1-.7-.1.4 1.4.9 2.8 1.2 4.2.3 1.4-.1 2.7-.6 4.2-.4 1.1-.8 2.3-1.1 3.4-.2-.2-.3-.4-.4-.5-.4-.6-.7-1.2-1-1.8-.4-.8-.9-2.7-1.9-3.1-.3 1.7.5 3 1.7 4.2.7.7 1.1 1.4 1.3 2.3 0 .1-.1.2-.1.3-.5 1.4-.8 3.1-1.3 4.5-.3.7-.8 1.8-1.3 2.6-.6-.4-1.3-.8-2-1-.8-1.2-1.1-2.8-1.6-4.1-.4-1-1.2-2-1.3-3.1-.2-.2-.5-.2-.8-.1.5 1.8 1 3.5 1.5 5.3 1.4 4.9 6.3 7.9 10.4 11.2.7.5 1.3 1.2 1.9 1.8.6 4.2 1.1 9.7 1.1 13.5 0 .9 0 1.8-.1 2.7-.1 1.4-.4 2.8-.7 4.2-.7-1.3-1.5-2.5-3-2.9l-.3-.6c-.4-.6-.7-1.3-1-1.9-.8-1.6-1.4-3.2-1.9-4.9-.4-1.3-.6-2.7-.6-4.2 0-.8 0-1.6-.2-2.4-.7.4-.4 2.6-.4 3.2 0 1 .6 2.1.3 3-.6 0-.9-1-1.7-1.1-.5 1 2.3 2.3 2.7 3.1.5.8.6 1.9.8 2.8.2.6.3 1.4.3 2.1-.8-.4-1.6-.8-2.4-1.1-.9-.3-1.9-.6-2.8-.9-.7-.3-1.6-.9-2.3-1.5-.1-.8 0-1.8.2-2.6.4-1.7.5-3.3.5-4.9-.1-2 2-3.7 1.5-5.7-.6.4-.8 1.5-1.1 2.1-.2.5-.5 1.1-.9 1.5-.8-.7-1.2-1.8-1.6-2.7-.5-1.2-1.2-2.7-2.1-3.6 0 1.1 1.1 2.2 1.5 3.2 1 2.2 2.3 4.9 1.8 7.4-.2.9-.5 1.8-.9 2.7l-.3 1.2c-.9-1.3-1.9-2.6-2.5-4-.9-1.9-2-3.9-2.6-5.9 0-.1-.1-.1-.2 0-.2-.2-.6-.3-.9-.3.1 1 .7 2 1.1 2.9.6 1.3 1.1 2.7 1.8 4.1 1.1 2.4 2.4 4.8 3.8 7.1 3.2.8 7.4 1.8 9 4.3.8 1.2 1.3 2.7 1.9 4 .2.5.6 1.3.9 2.1-1.1 3.3-2.4 6.7-3.3 10l-.3-.2-.4.4c-1.3-.3-2.6-.6-3.6-1.3-.3-2.2-.1-4.4 0-6.7s.9-6.9-1.1-8.6c-.2.6.1 1.3.2 1.9 0 .7-.1 1.5-.2 2.2-.2 1.5-.1 3.1-.1 4.6.1 1.7-.3 3.4-.5 5.1-2.6-2.9-3.5-7.2-6-10.1 1.4 4.1 2.7 8.2 4.5 12.2 1.7.8 3.2 1.7 4.7 2.8l-.6.5.6 5-3 .4.6-4.1-2.2-2.7v.1l-.5-.7-.5.8-2.2 3.3.5 3.9-3.2.4.9-6.6-2.7-3.3v.1l-.5-.7-.5.8-2.7 4 .8 6.4-3.5.5v-4.1l-2.6-2.7v.1l-.6-.7-.4.8-1.8 3.3 1.1 4-2.4.3v-6.2l-3.2-3.2v.1l-.6-.7-.4.7-2.2 3.9 1.6 6-2.3.3v-4.1l-2.6-2.7v.1l-.6-.7-.4.8-1.8 3.3 1.1 4-1.4.2-1.1.1 2.5 3.6 1-.1 1.4 5.4 1.1-.1.9-.1h.1V270l3.3-.4 1.4 5.4 1.1-.1 1.2-.2h.1v-5.5l3.4-.5 1.4 5.4 1.1-.1.9-.1h.1v-5.5l4-.5.7 5.5 1.1-.1 1.2-.2h.1l.8-5.6 4.2-.6.7 5.5 1.1-.1.9-.1h.1l.8-5.6 4-.5.6 5h.3c-.1.8-.2 1.6-.2 2.4 0 .3-.1.6 0 .9.8 0 1.6-.2 2.4-.3.9-.2 1.8-.2 2.8-.2 2.3 0 4.6-.7 6.9-.4.3 0 .7.2 1 .2.1 0 .2.1.3 0 .2-.1.1-.4 0-.6-.2-.5-.4-.9-.7-1.3-.2-.3-.4-.4-.5-.7-.2-.5-.2-.9-.4-1.4H328.1v-5.5l3.3-.4 1.4 5.4 1.1-.1 1.2-.2h.1v-5.5l3.4-.5 1.4 5.4 1.1-.1.9-.1h.1v-5.5l4-.5.7 5.5 1.1-.1 1.2-.2h.1l.8-5.6 4.2-.6.7 5.5 1.1-.1.9-.1h.1l.8-5.6 4-.5.6 5 1.1-.1 1-.1h.1l.7-5.1 1-.1h.1l.1-.4c.1.3.1.5.2.8-.5.4-.3 1.1-.4 1.6-.3 1.1-.6 2.1-1 3.2-.5 1.4-1.2 2.8-1.8 4.2-.4.2-1.3 1.6-1.7 2.1-.5.9-1.2 1.9-1.5 2.8-.4 1 .3 2.5.1 3.6 1.1.1 3.4-.9 4.4-1.3 2.9-1.1 5.8-2.6 8.4-4.1 2.9-1.6 5.7-3.4 8.2-5.3 1.3-1 2.3-2.7 3.6-3.6-.7-.6-1.3-1.3-1.9-2h.2l.9-.2h.1l-.3-5.5 3.3-.6 1.8 5.3 1.1-.2 1.2-.2h.1l-.3-5.5 3.4-.7 1.7 5.3 1.1-.2.9-.2h.1l-.3-5.5 3.9-.8 1 5.4 1.1-.2 1.2-.2h.1l.4-5.7 4.2-.8 1 5.4 1.1-.2.9-.2h.1l.4-5.7 4-.8.9 4.9 1.1-.2 1-.2h.1l.4-5.2 1-.2h.1v-.1l4.5-1 1.7 5.3 1.1-.2.9-.2h.1l-.3-5.5 3.3-.6 1.8 5.3 1.1-.2 1.2-.2h.1l-.3-5.5 3.4-.7 1.7 5.3 1.1-.2.9-.2h.1l-.3-5.5 3.9-.8 1 5.4 1.1-.2 1.2-.2h.1l.4-5.7 4.2-.8 1 5.4 1.1-.2.9-.2h.1l.4-5.7 4-.8.9 4.9 1.1-.2 1-.2h.1l.4-5.2 1-.2h.1l.6-4h-.1l-2.8-2.5zM349.2 204c.2-.5.5-1.3.7-2.2 0 .2 0 .5-.1.7-.2 1-.2 2.2-.6 3.1l-.9 1.5c-.1-.1-.2-.2-.2-.3.4-1 .7-1.9 1.1-2.8zm-1 4.1c0 .3-.1.6-.2.9l-.5-.5c.2-.4.3-.8.5-1.1 0 .2.1.5.2.7zm-23.1 36.8c.3-1.2.4-2.3.4-3.5 0-.9.2-1.8.2-2.7 0-.6 0-1.2.1-1.8.2-.8.2-1.5.4-2.3.3-1.3.4-2.6.8-3.9.2-.6.3-1.3.4-1.9.1-.5.3-.9.4-1.4.1-.4.1-.8.2-1.3.1-.4.2-.7.2-1 1-.8 2.1-1.4 3.1-2.1 2.6-1.7 5.3-3.4 7.9-5.1 1.7-1 3.5-2.1 4.6-3.6 1-1.2 1.8-2.5 2.4-3.8 2.3 2.6 5.2 5 7.8 7.3 3.7 3.2 5 7.8 7.5 11.6.6.9 1.1 1.7 1.3 2.7-1.6-.9-3.4-1.8-5.2-2.6-1.4-1.3-2.6-2.7-3.5-4.1-.8-1.3-1.4-2.5-2.5-3.6 0 1.1.8 2.3 1.5 3.2.8 1.1 1.5 2.5 2.5 3.6-.6-.3-1.2-.5-1.8-.7-1.5-.6-3.1-1.2-4.6-1.8-.5-1.3-.7-2.9-.4-4 .2-.9 1.8-2.3.9-3.3-1.1.7-1.1 2.8-2.2 1-.9-1.4-1.5-3.2-2.8-4.4-.4 1.7 1.5 3.7 2.2 5.3.2.4.4.8.5 1.3-.5.4-1.1 1.4-1.6 2.3-.1-.1-.2-.1-.3-.2-1.5-1.2-2.4-2.9-3.4-4.4.7 2 1.8 3.9 3.2 5.6-.7 1.3-1.3 2.6-1.9 4-1 1.9-1.9 4.1-3.1 6.1-.1-.4-.4-.8-.6-1.2-.5-1-.9-2.1-1.3-3.2-.4-1-.5-1.9-.6-2.9-.1-.8 0-1.9-.3-2.5-1 .4-.5 2.4-.4 2.9.3 1.5.5 2.9.9 4.4.2 1 .5 2 .8 3 .1.4.2.9.2 1.4-.3.5-.7.9-1.1 1.3-2.4 2.4-5.7 3.8-8.8 5.3.4-.7.7-1.4.9-2.1.3-1.5.1-2.9.6-4.4.5-1.5 1.5-2.8 1.7-4.4.2-1.6-.2-3.5-1-4.8.2 1.5.1 3-.3 4.6-.3 1-.3 2.1-.6 3.1-.5-.7-1.1-1.4-1.6-2.1-.6-.9-.8-2.3-1.4-3-.2.7.2 1.8.4 2.4.3.9.9 1.7 1.2 2.5.4 1.2.3 2.5.2 3.8-.1 1.3-.4 2.5-1 3.7-.2.3-.3.9-.5 1.4-1 .4-1.9.9-2.9 1.4.2-.5.2-.8.3-1.1zm23-21.9.3.9c.1.3.3 1.3.2 1.7-.5-.2-.9-.5-1.3-.7.3-.6.6-1.2.8-1.8-.1 0-.1-.1 0-.1zm18.3 28.7c-.3-.1-.6-.8-.8-1.3l.3-1.9-2.2-1.8-.5-.4-.5.5-.8.7-1.5-.6c-1.1-1.8-2.1-3.7-2.7-5.6-.8-2.4-.7-5-1.9-7.3 0 1.4.1 2.9.3 4.2.1.9.5 1.9.4 2.8-.8-.1-1.8-1.2-2.5-1.6-1-.5-2.1-1-3-1.6.7 1 1.7 1.8 2.8 2.5.8.5 2 1 2.7 1.6 1.2 1.1 1.6 2.7 2.1 4.2-.1 0-.1-.1-.2-.1-.3.1-1.4-.5-1.9-.7-1-.3-1.9-.6-2.9-.9-1.3-.3-3.4-.5-4.4-1.2-.9-.6-1.7-1.6-2.4-2.5-.6-.8-1-1.7-1.7-2.4-.5.7 1 2.7 1.4 3.4.7 1.2 1.5 2.5 2.5 3.6 3.9 1 7.9 1.9 11.3 3.7l-.2.2.6 5-3 .4.6-4.1-2.2-2.7v.1l-.5-.7-.6.8-2.2 3.3.5 3.9-3.2.4.9-6.6-2.7-3.3v.1l-.5-.7-.5.8-2.7 4 .8 6.4-3.5.5v-4.1l-2.6-2.7v.1l-.6-.7-.4.8-1.8 3.3 1.1 4-2.4.3v-6.2l-3.2-3.2v.1l-.6-.7-.4.7-2.2 3.9 1.6 6-2.3.3v-4.1l-2.6-2.7v.1l-.3-.3c0-1.3-.1-2.6 0-3.9 1.6-1 3.6-1.7 5.3-2.4 2.6-1.1 5.4-2.1 7.6-3.8 1.9-1.5 3.3-3.5 4.3-5.5 1.4-3 2.7-6 4.3-9l.3-.6c.8.2 1.9.9 2.7 1.3 2.3 1 4.6 2.1 6.9 3.2 2.3 1.1 4.4 2.2 6.6 3.4.7.4 1.6.8 1.9 1.3.9 1.2 1.3 2.7 1.5 4.3-.9-1-2.1-2.1-3.4-2.5 1 1.1 2.4 2.1 3.2 3.3.2.2.3.5.4.8.1.9.1 1.9.2 2.8-.2 2.1 0 4.9-.6 7.3zm12.8 2.7c0-.1-.1-.1-.1-.2l.6-.1.8 2.4c-.4-.7-.8-1.4-1.3-2.1zM627.1 204.7h-1.3l1.3-5.1-1.9-2.1-.5-.5-.6.5-2.8 2.1v5.1h-3l1-4-1.8-3v.1l-.5-.7-.6.7-2.6 3v3.9h-3.2l1.7-6.5-2.2-3.6v.1l-.5-.7-.6.7-3.2 3.7v6.5h-3.5l.5-4.1-2.3-3v.1l-.6-.7-.5.7-2.2 3 .6 4.1h-2.4l.8-6.2-2.7-3.6-.6-.7-.5.7-2.7 3.6.9 6.2h-2.4l.5-4.1-2.3-3v.1l-.6-.7-.5.7-2.2 3 .6 4.1H579.5l1.3-4.8-5.5-3.9c-1.2 1.9-1.8 2.6-4 5.6 1.9 6.6 2.7 8.8 3.6 12.1l2.1.1h.1l1.3-5 5.8-.3.8 5.5h2.1l.7-5.5h3.4l.8 5.5h2.4l.7-5.5h3.5l.8 5.5h2.1l.7-5.5h4v5.5h2.4l1.4-5.5h4.2v5.5h2.1l1.5-5.5h4v5h2.2l1.3-5h4.5V205l-2.7-.3zM362.7 237.2z"/><path style="fill:none;stroke:#272761;stroke-width:0;stroke-linecap:round;stroke-linejoin:round" d="M30.7 172.5h0"/><path class="st15" d="M0 205v4.3c.1-.1.1-.2.2-.3.7-1.3 1.4-2.6 1.6-4 .4-3 0-5.8-.6-8.6-.1-.7-.4-2.8-1.2-3.2V194.6c.3 1.1.6 2.2.7 3.4.3 1.8.4 3.7-.3 5.6 0 .5-.2.9-.4 1.4zM12.2 315c3.3-1.4 6.6-3.1 9.6-4.9 1.5-.9 2.8-2.7 4.3-3.6-2.2-2.4-3.4-5.3-4.8-8-.7-1.4-1.3-2.9-2.1-4.3-.3-.5-.8-1.2-.9-1.7-.2-.7-.9-3.6-.4-4v-.7c1.1-1.4 2-2.8 3.4-3.9 1.1-.9 2.1-.5 3.4-.5.6 0 2-.3 1.3-.8-.6-.5-2.2-.2-3-.3.4-.8 1.8-1.6 2.5-2.2.8-.7.5-1 0-1.9-.6.2-1.2.8-1.7 1.1-.8.5-1.8 1-2.6 1.6-.6.4-1.6 1-2.3 1.6.4-2.1.6-4.2-.2-6.3-.3-.7-.6-1.3-.9-1.9 1.5-3.1 3.6-6.1 5.9-8.8.4-.5.9-.9 1.4-1.4 0 0 .1 0 .1-.1 1.3-.4 2.6-.8 4-.9 1.4-.1 2.7 0 4.1.1 1 .1 1.7-.1 2-1-.5 0-.9.2-1.5.2-1 0-2-.4-3-.4-1.4 0-2.7.5-4.1.7 2.2-1.6 4.7-2.9 7-4.4 2-1.3 3.8-2.9 5-4.8 1.7-2.6 1.9-5.5 3-8.4.4-1.1.8-2.2.8-3.3 0-.6.1-2.2-.4-2.6-.7 1.6-.6 3.4-1 5.1-.5 2-1.4 3.8-2.3 5.7-.4.7-.8 1.4-1.3 2.1-.2-1.2-1-2.5-1.3-3.5-.3.9-.3 1.1 0 1.9.3 1 .4 1.9.2 2.9-.5.6-1.1 1.2-1.8 1.7-.2-.5-.3-1.1-.6-1.6-.5-.9-1.2-1.7-1.9-2.5-.9-1-2-1.9-3-2.8.7-.4 1.5-.6 2.1-1 .7-.4 1.1-.9 1.6-1.5.8-.9 1.8-1.6 2.8-2.4.5-.4 1.3-.9.7-1.5-.5.3-.9.9-1.3 1.4-.5.5-1 .9-1.6 1.3.3-1.2 1-2.9.4-4-.7 1.9-.4 4-2.3 5.4-.5.4-2.1 1.6-3 1.9-1.6-1.5-2.9-3.1-3.2-5.1-.2-1-.2-2-.1-3 0-.5.5-1.8-.3-2.1-.5 1.4-.6 3-.4 4.5.3 3.3 2.6 5.9 5 8.5 1.1 1.2 2.5 2.5 3 3.9.2.7.2 1.5.1 2.2-2.3 1.7-4.8 3.2-7.2 4.8-2 1.3-3.5 3-5.3 4.4-1.1.9-3.5 2.8-5.5 2.9v-.1c-.5-1.1-1.7-2-2.5-3.1-.5-.6-.9-1.2-1.4-1.8 1-1.2 1.9-2.3 3.2-3.3 1.2-.9 1.9-1.7 3.4-2.3 1.6-.7 4-1.1 4.1-2.9-.3.1-.5.4-.7.6-.4.3-.9.5-1.4.7-.6.2-1.7.7-2.3.5-.1-1.1.4-2.4.5-3.6.1-1.3.4-2.5.7-3.8-.4.3-.5 1.2-.7 1.6-.3.9-.5 1.8-.7 2.7-.3 1.3-.5 2.9-1.6 3.8-1.1 1-2.7 1.8-4.1 2.5-.3.2-1.1.7-1.8 1.1-.1-.1-.1-.2-.2-.3-.8-1.4-1.6-2.7-2.3-4.1-.2-.3-.4-.6-.5-1 .4-1.7 1.1-3.3 2.2-4.8 1-1.4 1.9-3.1 3.3-4.3 1.6-1.3 4.4-2.2 4.8-4.1-.5 0-1.3.7-1.8 1-.7.4-1.3.8-1.9 1.3-.1-.5.3-1.2.4-1.6.2-.8.2-1.7.3-2.5v-.2c.1-.7.3-1.4.4-2.2V237.2c0-.1-.1-.3-.1-.4v-.2c-.1-.2-.1-.4-.3-.6-.3.6-.2 1.3-.3 1.9-.1 1.1-.3 2.1-.5 3.2-.3 1.6-.7 3.1-1.7 4.5-.7 1.1-1.6 2.1-2.3 3.1-.9 1.2-1.9 2.3-3 3.4-.2.2-.5.6-.9.8-.5-1.2-1.2-2.4-1.5-3.7-.3-1.2-.6-2.5-.8-3.7 0-.1.1 0 .1 0 .6-2.1.7-4.4 1.5-6.5.3-.8 2.1-3.5 1.9-4 .9-1.1 1.7-2.4 2.4-3.6.7-.3 1.5-.8 1.9-.9 2.2-.5 4.7-.2 7-.1 2.8.1 5.8.4 8.5-.2 2.3-.5 4.5-1.8 6.2-3.1 2.6-2.1 5-4.3 7.7-6.3 1.1-.8 2.3-1.7 3.2-2.6.4-.4 1.5-1.4.2-1.2-.9.2-2.5 1.5-3.2 2-1.3.9-2.3 1.9-3.5 2.9-1.6 1.3-3.4 2.9-5.3 4.2.1-.4 0-.8 0-1.3 0-1.1.1-2.3.2-3.4.1-1 .3-2 .7-2.9.3-.7.8-1.7.8-2.4-1.1-.1-1.5 1.9-1.6 2.5-.4 1.4-.7 2.9-1.1 4.3-.2 1-.4 2.1-.5 3.1-.1.5-.2.9-.4 1.3-.5.3-1 .5-1.5.7-3.2 1.2-6.7 1.1-10.2 1 .6-.4 1.2-1 1.7-1.5.9-1.2 1.3-2.6 2.4-3.7 1.1-1.1 2.5-1.9 3.4-3.2.9-1.3 1.3-3.2 1.1-4.7-.5 1.4-1.2 2.8-2.3 4-.6.8-1.1 1.8-1.9 2.5-.2-.9-.4-1.7-.6-2.6-.2-1.1.3-2.4 0-3.4-.4.6-.6 1.6-.7 2.3-.1.9.1 1.9 0 2.8-.1 1.2-.8 2.4-1.4 3.5-.6 1.2-1.4 2.1-2.5 3-.3.2-.6.7-1 1-2 0-4 0-5.9.4.2-.3.4-.6.6-.8 1.6-2.1 3.5-4 5.1-6.1.9-1.1 1.6-2.3 2.4-3.5 1.1-1.6 2.3-4.3 3.3-5.8 0 0 0-.1.1-.1.4-.3.8-.5 1.3-.7 1.7-.8 3.6-.9 5.4-1.1 3.1-.5 6.2-.9 9.3-1.2 1.9-.2 4-.4 5.7-1.2 3.6-1.8 6.4-4.5 9-7.2.8-.8 3.2-2.9 2.5-4.2-.6.3-1.1 1-1.5 1.5-1 1.2-2 2.3-3.2 3.4-1.8 1.7-3.8 3.3-6.4 4-1.8.5-3.6.8-5.5 1 .5-.9.8-1.9 1.2-2.9.3-1 .8-2.2 1.8-3 1-.7 2.1-1.1 2.9-2 .7-.8 1.2-2.3 1-3.2-.4.7-.7 1.4-1.3 2.1-.6.6-1.4 1.1-2.1 1.7-.2.1-1 1-1.3.9-.3 0-.4-.8-.5-1-.4-1.4-1.2-2.8-1.1-4.2.1.7-.2 1.5-.2 2.3 0 1.5.3 2.9.3 4.4 0 1.2-.4 2.4-.9 3.6-.2.4-.4 1-.7 1.5l-2.4.3c-2.8.5-5.7.8-8.5 1.2-1.3.2-2.4.5-3.6.8.2-1.1.3-2.2.6-3.1.1-.3.2-1.1.3-1.9 1.5-1.7 3.7-2.9 5.5-4.5.9-.8 3-2 2.3-3.2-.7 1.3-2.2 2.7-3.5 3.7-.9.7-2.3 1.6-3.7 2-.3-1-.4-2.3-.6-3.4.6-1.4 1.2-2.8 2.1-4.1.9-1.2 2.5-1.4 4-1.8 2.1-.6 4.3-1.2 6.5-1.5 2-.3 6-.6 6.6-2.5-.8.4-2 .6-3 .8-.8.2-1.6.3-2.4.5.3-.6.7-1.4 1.1-2 .5-.8 1.2-1.4 1.4-2.3-.8-.2-2 2.6-2.3 3-.3.5-.7 1-1.1 1.5-1.6.3-3.2.5-4.8.8-1.5.3-3.1.6-4.5 1-.5.2-2.1 1-2.5.9-.6.4-1.1 1.1-1.5 1.7-.2.3-.4.8-.6 1.2-.1-.3-.3-.6-.5-.8-.8-1.2-1.3-2.5-1.9-3.9.7-1 1.6-2 2.5-2.9 1.7-1.7 3.1-3.5 4.7-5.2 1-1 1.9-2.2 2.5-3.4 1.1-2.3 1-5.1 1.6-7.4-.1-.1-.5-.3-.6-.4-.2 1.4-.4 2.9-.7 4.3-.3 1.4-1.2 2.4-2.3 3.5-.9.8-1.7 1.7-2.5 2.6-.1-.2-.2-.5-.2-.6-.1-.7-.2-1.4-.2-2.1 0-.9.3-2.8-.4-3.6-1 1.5-.8 2.9-.2 4.5.3.9.3 1.8.2 2.6-.1.1-.2.2-.2.3-1 1.1-2 2.5-3.1 3.5-.6.5-1.4 1.3-2.3 1.8-.4-.6-.8-1.2-1.4-1.8-.3-1.4.2-2.9.3-4.4 0-1-.2-2.3.1-3.3-.1-.3-.4-.4-.7-.5-.3 1.8-.6 3.6-.8 5.4-.8 5 2.3 9.8 4.7 14.5.4.9.8 1.9 1.1 2.9-1.4 4.3-3.1 8.7-5 12.8-.9 1.9-2.1 3.7-3.4 5.4-.1-1.4-.3-2.9-1.4-3.9v-.7c-.1-.7-.1-1.4-.1-2.1 0-1.8.1-3.5.3-5.2.2-1.4.6-2.7 1.2-4 .4-.7.7-1.5.8-2.2-.7 0-1.5 2.2-1.7 2.7-.4.9-.4 2.1-1 2.9-.6-.3-.4-1.3-1.1-1.7-.8.7 1.1 3.1 1.1 3.9.1.9-.3 1.9-.4 2.9-.1.6-.3 1.3-.6 2-.5-.7-1.1-1.4-1.7-2-.4-.4-.8-.7-1.2-1.1 0-.9-.1-1.9-.2-2.8-.1-.5-.3-1.5-.7-.7-.2.5-.2 1.7-.2 2.4-.5-.6-1-1.4-1.3-2.2.3-.8.7-1.6 1.2-2.2 1.1-1.3 1.9-2.7 2.5-4.2.8-1.8 3.3-2.5 3.8-4.5-.7.1-1.3 1-1.8 1.4-.4.3-.9.8-1.4 1-.4-.9-.3-2.1-.3-3.1 0-1.3.1-2.9-.4-4.2-.5 1 0 2.5 0 3.5 0 2.4 0 5.4-1.5 7.4-.6.7-1.3 1.4-1.9 2.1-.3.3-.5.7-.7 1-.3-1.5-.6-3.1-.6-4.7 0-2.1-.2-4.3.1-6.4 0-.1-.1-.1-.1-.1 0-.3-.4-.6-.7-.7-.4 1-.2 2.1-.2 3.1 0 1.5-.1 2.9-.1 4.4 0 2.6.1 5.4.4 8 1.1.9 2.3 1.9 3.4 3 0 .4.1.8.1 1.2.1 1.5.3 3.3.3 5-.2-.2-.5-.4-.8-.6-.6-.4-1.2-.9-1.7-1.3.2-.9.3-1.8 0-2.5-.5.4-.4 1.3-.7 1.8-.4-.4-.7-.8-1-1.2-.3-.5-.7-1.2-1.1-1.5-.5.6.6 1.7.8 2 .4.4.7.8 1.1 1.2-.2.4-.5.9-.8 1.3-.6 1-1.1 2-1.5 3-.1-.3-.1-.5-.2-.8-.3-.7-.8-1.3-1.3-1.9v1.1c.2.4.3.7.4 1.2.2.5.4 1.1.6 1.7-.1.1-.1.3-.2.4-.3-.1-.6-.2-.8-.3v.8l.1.1.3.3c0 .1-.1.1-.1.2-.1.2-.2.4-.3.5v2.7c.3-.8.7-1.6 1.1-2.3.2.3.4.7.5 1 .5.9.7 1.7.8 2.7 0 .3.1.7.2 1.1-.4.5-.8 1.1-1.1 1.7-.5-.4-1.1-.9-1.5-1.4V259c2 3.3 2.9 7.1 4.7 10.6.5 1 1 2 1.2 3.1-1.7-1.2-3.5-2.3-5.4-3.4-.2-.2-.4-.4-.5-.6v2.7c1.8 1.1 3.5 2.2 5.3 3.4.7.5 1.6 1 2 1.6.9 1.4 1.1 3.1 1.2 4.9-.9-1.2-2.1-2.5-3.5-3.1 1 1.3 2.4 2.5 3.1 3.9.1.3.3.6.4.9v3.1c0 2.7 0 5.8-.9 8.4-.4-.2-.7-1.4-1-1.9-.5-.7-1.2-1.3-1.8-1.9-1-.8-2.2-1.5-3.3-2.1-.5-1.1-1-2.2-1.4-3.3v5c1.2.7 2.4 1.5 3.5 2.5 2.5 2.3 2.5 5.4 3 8.5-.6.4-.4 1.1-.7 1.8-.4 1.2-.9 2.3-1.5 3.4-.8 1.5-1.6 3-2.5 4.4-.4.1-1.3 1.2-1.9 1.9v6.9c1-.2 1.9-.6 2.5-.7 2.8-1.3 6.1-2.7 9.2-4zM1.9 224.4c0-.2 0-.3-.1-.5l.3-.6c.6-1.2 1.8-3.1 2.5-4.9.1.1.2.3.3.4.5.6 1.1 1.1 1.7 1.6.2.2.4.5.6.8-.1.4-.1.8-.2 1.2-.6 2.4-2.2 4.6-3.7 6.7 0-.6-.1-1.1-.2-1.6-.3-1.1-1-2-1.2-3.1zm.5 8c.6-.9 1.3-1.8 2-2.6 1.2-1.7 2.7-3.4 3.5-5.3.7-1.6.8-3.5.7-5.1-.1-1.7-.3-3.4-.5-5.1 1 1.1 1.7 2.4 1.9 3.6.2 1.5 0 3 0 4.4 0 .6 0 1.5-.1 2.3-2.5 2.6-5.1 5.1-7.4 7.8-.1.1-.1 0-.1 0zM5 277.9c0-.1 0-.1 0 0zM317.2 186.5zM186.6 281.3c-.1-.1-.1-.3-.1-.4-.1-.5-.1-1-.2-1.5 0-.4-.1-.9-.1-1.4 0-.1-.1-.2-.1-.4.4-.1.7-.2 1.1-.3.5-.1.9-.1 1.4-.2h.1c0-.3-.1-.6-.1-.9h-.2c-.5.1-1 .1-1.5.2-.4.1-.8.3-1.1.4-.1-.5-.1-.9-.2-1.4-.1-.4-.2-.7-.3-1-.2.1-.3.1-.5.1 0 .4.1.7.1 1.1v1.4c-.2 0-.4.1-.5.1-.4.1-.8.3-1.2.4 0 .2.1.3.1.5.4 0 .8-.1 1.2-.2.2 0 .4-.1.6-.1 0 .1.1.3.1.4 0 .4.1.8.1 1.3s.1.9.1 1.4c0 .3.1.5.1.7-3 1.2-4.8 5.9-4.4 10 .2 1.6.6 3.1 1.5 4.4l12.4-.9c-.5-3.8-1.4-14.4-8.4-13.7zM116.7 276.1c-.1 0-.1 0 0 0-.1-.2-.1-.3-.1-.5 0-.6.1-1.3.1-1.9 0-.6.1-1.1.1-1.7v-.5c.5 0 .9-.1 1.4-.2.6-.1 1.2 0 1.8.1h.2c0-.4 0-.8.1-1.2h-.2c-.6 0-1.2-.1-1.8-.1-.5 0-1 .2-1.5.2v-1.8c0-.5-.1-.9-.2-1.3h-.7c0 .4-.1.9-.1 1.3-.1.6-.2 1.2-.2 1.7v.1h-.7c-.5.1-1 .2-1.6.3v.6c.5.1 1 0 1.5 0h.7v.5c-.1.5-.1 1.1-.2 1.6-.1.6-.1 1.1-.2 1.7v.9c-4 .8-7.2 6.2-7.6 11.4-.2 2 .1 4 .9 5.7l15.5 1.6c.3-4.7 1.4-17.9-7.2-18.5zM80.1 278.8v-.3c.1-.4.2-.9.2-1.3.1-.4.2-.8.2-1.1v-.3h.9c.4 0 .8.1 1.2.2h.1c0-.3.1-.5.2-.8h-.1c-.4-.1-.8-.2-1.2-.2h-1c0-.4.1-.8.1-1.2v-.9h-.5c-.1.3-.1.6-.2.9l-.3 1.2h-.5c-.4 0-.7.1-1.1.1 0 .1 0 .3-.1.4.3.1.7.1 1 .1.2 0 .3 0 .5.1v.4c-.1.4-.2.7-.2 1.1-.1.4-.2.8-.2 1.1 0 .2-.1.4-.1.6-2.8.2-5.3 3.6-6 7.1-.3 1.3-.2 2.7.2 3.9l10.3 2.3c.6-3.5 2.4-12.3-3.4-13.4zM218.1 295c-2.6-11.6-4.7-23.3-6.2-35.1.6-.2 1.1-.6 1.7-.8 3.1 11.6 3.7 23.9 7.1 35.5-.7 0-1.9.2-2.6.4z"/><path class="st15" d="M206.2 274.2c6.3-1.4 12.6-3.1 18.7-5.2 0-.7-.2-1.6-.2-2.3-6.6 1.9-13.2 3.8-19.8 5.6.3.6 1 1.4 1.3 1.9z"/><path class="st15" d="M220 266.8c-1.3-1.4-3-2.4-4.9-2.6-1.8-.2-3.6.4-4.9 1.6-.7.6-1.2 1.3-1.5 2.1-.3.9-.2 1.8-.1 2.8.2 1.3.4 2.6 1.1 3.7.9 1.3 2.4 2 3.9 2.2 1.5.2 3.1-.1 4.5-.7 1.6-.6 3.6-2 4-3.9.4-1.7-1.1-4-2.1-5.2zm1.1 4.9c-.4 1.6-2 2.8-3.4 3.3-1.2.5-2.5.8-3.8.6-1.3-.2-2.6-.8-3.3-1.9-.6-.9-.8-2-1-3.1-.1-.8-.2-1.6.1-2.4.2-.7.7-1.3 1.3-1.8 1.2-1 2.7-1.5 4.2-1.3 1.6.2 3.1 1 4.2 2.2.8 1.1 2 3 1.7 4.4zM600.9 216.1c1.3-13 3.3-25.9 5.8-38.7.7 0 1.4-.2 2.1-.2-.8 13.2-4.4 26.2-5 39.3-.8-.2-2.2-.5-2.9-.4z"/><path class="st15" d="M595.7 190.3c7.1.8 14.2 1.1 21.3 1.1.2-.7.3-1.7.5-2.4-7.5-.3-15-.7-22.5-1 .1.6.6 1.7.7 2.3z"/><path class="st15" d="M612.6 187.4c-.8-1.9-2.3-3.6-4.2-4.4-1.8-.8-3.9-.8-5.7-.1-.9.4-1.7.9-2.3 1.7-.6.8-.8 1.9-1 2.9-.3 1.4-.5 2.8-.1 4.2.5 1.6 1.7 2.9 3.3 3.6 1.5.7 3.2.9 4.9.8 1.9-.1 4.4-.9 5.5-2.6 1-1.7.3-4.5-.4-6.1zm-.5 5.5c-.9 1.5-3.1 2.2-4.7 2.2-1.4.1-2.9-.1-4.2-.7-1.3-.6-2.4-1.7-2.8-3.1-.3-1.2-.1-2.4.1-3.6.2-.9.4-1.7.9-2.4s1.2-1.1 1.9-1.4c1.5-.6 3.3-.6 4.8.1 1.6.7 2.9 2.1 3.6 3.8.6 1.3 1.2 3.7.4 5.1zM231 285.8c-1.6-7.1-2.9-14.4-3.8-21.6.4-.1.7-.4 1.1-.5 1.9 7.1 2.3 14.7 4.3 21.8-.5 0-1.2.1-1.6.3z"/><path class="st15" d="M223.7 273c3.9-.8 7.8-1.9 11.5-3.2 0-.4-.1-1-.1-1.4-4.1 1.2-8.1 2.3-12.2 3.5.1.2.6.8.8 1.1zM64.2 289.6c.2-7.3.8-14.6 1.7-21.9.4 0 .8-.2 1.1-.2.1 7.4-1.5 14.8-1.3 22.2-.3-.1-1-.1-1.5-.1z"/><path class="st15" d="M60.3 275.4c4 .2 8 .1 12-.2.1-.4.1-1 .2-1.4l-12.6.3c.1.3.4.9.4 1.3zM318.6 260.6z"/><path class="st15" d="M629.3 212.9V354H0v-75.5l98 10.1 88.5 5.1 77.1-19.5 65.8-7.6 58.4-10.3 48.4-18 57.3-15.3z"/><path style="fill:#36367d" d="m495.6 221.8-59.4 16.5-48.4 18-58.4 10.3-65.8 7.6-77.1 19.5-88.5-5.1-98-10.1v4.6l95 9.9 88.5 5 80.3-22.5 62.6-4.5 50.4-7.9 56.3-20.4 62.5-18.4 130.7-7V354h3V212.9z"/><path class="st19" d="M340.7 289.6 241.1 354h-5.9zM0 293.8l59 7.2 23 11.8 50.1.3 43.6-5.5 17.4 5.5 112-27.6-114.9 37.3-16.6-6-43.7 6H74.3l-24.6-13.1L0 309z"/><path class="st19" d="m0 338 41.2-7.1 20.4 7.1 61.5-1.7 14.6 4.3 33.4-10.7 24.2 5.3L346 279.8l-152.9 60.8-22-3.3-37.6 11.3-14.9-7.5-57 5-23.1-8.8L11.2 354H0z"/><path class="st20" d="M629.3 212.9V354H167.4l87.9-8.8 31.7-3.9 17.9-18.5 36.6 6.4 22.1-11.7-15.7-26.5 39.8-34.7 48.4-18c-.5.1 24.7-12.5 59.4-19.1 16.5-3.1 93.1-6.9 93.1-6.9l6.1.1 10.6.2 3.3.1 20.7.2z"/><path class="st21" d="m303.8 354 3.5-9.4h11.3l5.8-8 26.7 2.8 30-20-11.4-26.4 28.7-28.6-21.5 29.4 12.5 31.1-32.4 24.2-25.2-7.4-3.2 6.4-8.8 1.6 4 4.9zM592.6 299.3l14.7 16.5-10.7 3.4 17.7 8.6-6.9 7.8 7.9 4.1-6.9 14.3h13.9l-.9-15.4-8.1-4.3 4.7-7.8-15-7.3 11.6-2.7zM415.2 324.9l-22 3.6.2 14-10 2.1-1.9 9.4h-10.8l8.2-14 10.3-2 1.7-13.1 18.7-3-8.2-9.4 32.2-13.5-25.2 16.1zM567.8 261.6l7.8 27.9-15.8 5.7 16.8 14.5-13.8 13.1 7.2 7.1-18.1 24.1h17.7l9-26.1-7.5-7.2 11-13.1-14.2-12.4 16.6-4.6zM597.1 249.9l6.4-6-9.6-5.5 1.6-10.6-5.2-3.3-1.7-12.2 6.1.1-1 9.2 5.1 3.4-2.9 11 11.3 6.5-5.7 6.5 10.6 16.9zM606.9 236.8l6-3.8-6.9-5.9 2.9-8.2-3.7-3.5.1-2.8h3.4l-.4 1.1 3.6 3.4-4 8.4 8.2 6.8-5.6 4.5 6 15zM450.7 293.3l-5.5 18.3-18.6 3.8 10 9.5-20 8.6 3.8 4.7-29.5 15.8h17.7l21.4-17.1-4.1-4.8 17.3-8.6-8.4-8.1 18.8-3.1z"/><path class="st20" d="M321.5 303.3c-.1-.3-.2-.6-.2-.9 0-1.1.1-2.2.1-3.3 0-1 .1-1.9.1-2.9 0-.3 0-.5-.1-.8.8-.1 1.5-.3 2.3-.4 1-.1 2 0 3 0h.3c0-.7 0-1.3.1-2h-.3c-1 0-2.1-.1-3.1 0-.8.1-1.7.4-2.5.5-.1-1 0-2-.1-3-.1-.8-.2-1.5-.4-2.3-.4.1-.8.1-1.1.1-.1.8 0 1.5-.1 2.3-.1 1-.3 2-.3 3v.1c-.4 0-.8 0-1.1.1-.9.1-1.7.4-2.6.6v1.1c.8.1 1.7 0 2.5 0h1.3v.9c-.1.9-.1 1.8-.2 2.7-.1 1-.1 1.9-.2 2.9 0 .5 0 1.1.1 1.6-6.7 1.7-11.7 11-12 19.8-.1 3.4.5 6.8 1.9 9.6l26.3 1.7c.1-8.6 1-30.9-13.7-31.4z"/><path class="st21" d="m486.9 261.6-13.2 27.9-6.4 10.4 11.4 15.3-17.8 7.6 7.2 17.4L450 354h17.7l9-15.8-7.5-17.5 15.1-7.7-8.8-13.1 7.1-9.3zM488.2 327.9l5 15.8-3.8.9-1.9 9.4h-10.8l8.2-14 4.1-.8-7.8-12.7 23.9-10.8z"/><path class="st21" d="m493.3 300.7 25.3 16.7-9.3 6.3 16.1 5-5.9 7.3 8.5 4.4-1.5 13.6h13.9l-6.8-14.6-6.3-4.4 2.9-6.6-14.5-4.7 17-7.2z"/></g></svg>