<svg xmlns="http://www.w3.org/2000/svg" viewBox="0 0 390 390" xml:space="preserve"><linearGradient id="a" gradientUnits="userSpaceOnUse" x1="215.127" y1="388.889" x2="175.222" y2="4.472"><stop offset="0" style="stop-color:#fb4c4e"/><stop offset=".01" style="stop-color:#ee4c57"/><stop offset=".041" style="stop-color:#cc4a6f"/><stop offset=".074" style="stop-color:#af4984"/><stop offset=".112" style="stop-color:#984894"/><stop offset=".154" style="stop-color:#8648a1"/><stop offset=".205" style="stop-color:#7947aa"/><stop offset=".272" style="stop-color:#7247b0"/><stop offset=".424" style="stop-color:#7047b1"/><stop offset=".446" style="stop-color:#7049b1"/><stop offset=".616" style="stop-color:#7050b1"/><stop offset=".998" style="stop-color:#7052b1"/></linearGradient><path fill="#090914" d="M130.05 103.7S103.3 8.32 86.72 14.21c-16.58 5.89-39.33 75.3-9.42 98.36l52.75-8.87z"/><path fill="#ED8583" d="M89.2 31.97c-19.58 8.4-27.29 70.6 8.01 68.8 19.67-1.01 5.64-74.65-8.01-68.8z"/><path fill="#090914" d="M141.7 101.46s67.96-72.07 79.92-59.16c11.96 12.91 12.28 90.2-24.92 96.74l-55-37.58z"/><path fill="#ED8583" d="M217.97 57.55c7.35 18.56-13.59 71.97-41.82 54.79-16.82-10.24 33.98-74.6 41.82-54.79z"/><path fill="#090914" d="M119.57 190.05c-3.45-.8-6.98-1.7-10.6-2.71-139.59-38.7-56.56-157.87 52.35-128.16 97.1 26.5 101.14 164.05-41.75 130.87"/><path fill="#F7FFFA" d="M99.3 130.72c-12.6-2.48-20.8-14.71-18.31-27.3l2.38-12.07c2.48-12.6 14.71-20.8 27.3-18.31 12.6 2.48 20.8 14.71 18.31 27.3l-2.38 12.07c-2.48 12.59-14.7 20.79-27.3 18.31zM169.15 149.57c-12.26-3.82-19.1-16.85-15.29-29.1l3.66-11.75c3.82-12.26 16.85-19.1 29.1-15.29 12.26 3.82 19.1 16.85 15.29 29.1l-3.66 11.75c-3.81 12.26-16.84 19.1-29.1 15.29zM124.6 130.28c-1.65 2.83-2.86 5.94-3.37 9.18-.45 2.87-1.12 7.04.86 9.49 1.12 1.38 2.89 1.86 4.6 1.49 1.68-.36 2.98-1.58 3.93-2.95 1.95-2.81 3.24-6.18 4.35-9.39-1.55-.43-3.1-.85-4.64-1.28-.65 1.98-1.23 3.98-1.72 6.01-.46 1.89-.94 3.84-.95 5.79-.01 2.01.52 4.23 2.05 5.64 1.47 1.35 3.54 1.6 5.36.89 3.75-1.47 5.6-5.55 7.03-9.03 1.51-3.67 2.91-7.37 4.21-11.11.55-1.57-.62-3.36-2.14-3.78-1.68-.46-3.24.57-3.78 2.14-1 2.98-2.07 5.93-3.19 8.86-.55 1.42-1.14 2.83-1.68 4.26-.38 1.01-.97 2.41-1.54 3.06-.3.34-.63.55-.94.68-.04.02-.36.2-.04 0 .08-.05.19.09.25.08.09-.02-.14-.32-.07-.13a4.22 4.22 0 0 1-.23-.79c-.12-.73-.04-1.58.06-2.31.44-3.03 1.15-6.03 1.97-8.98.83-3-3.72-4.23-4.64-1.28-.74 2.34-1.68 4.63-2.79 6.82-.46.91-.89 1.75-1.7 2.38-.09.07-.38.03-.37.02.05-.01.21.23.15.15-.08-.12-.14-.49-.17-.61-.81-4.46.1-9.58 1.92-13.68.82-1.85-1.71-3.46-2.78-1.62zM145.93 116.4c.65 3.09-8.25 12.71-10.55 11.88-5.09-1.83-5.62-15.05-3.02-16.83 2.61-1.79 13.12 2.78 13.57 4.95z"/><path fill="#F7FFFA" d="M138.01 115.45c-2.48 4.86-4.16 10.05-5.59 15.31-.72 2.65-1.32 5.32-1.95 7.99-.71 2.96-1.41 5.85-1.61 8.9-.14 2 2.57 2 3.21.43 2.07-5.04 2.94-10.68 4.1-15.99 1.12-5.12 2.42-10.24 4.58-15.04.8-1.82-1.8-3.43-2.74-1.6z"/><path fill="#090914" d="M103.09 177.63S47.05 318.04 88.18 340.45c41.13 22.41 132.14 3.87 133.17-19.63s-49.88-158.77-49.88-158.77l-68.38 15.58z"/><path fill="#090914" d="M99.28 224.52s-11.71 143.89-7.77 144.82c3.94.93 16.73-.87 16.73-.87l7.41-139.51M152.98 231.47s-7.73 144.15-11.75 144.55c-4.03.39-16.46-3.11-16.46-3.11l11.39-139.24"/></svg>