<svg version="1.1" id="圖層_1" xmlns="http://www.w3.org/2000/svg" x="0" y="0" viewBox="0 0 390 390" style="enable-background:new 0 0 390 390" xml:space="preserve"><style>.st0{display:none}.st5{display:inline;fill:#fff}.st6{font-family:&apos;ArialMT&apos;}.st7{font-size:9px}.st8{display:inline}.st15{fill:none}.st16,.st17{fill:#272761}.st17{display:inline}.st19{fill:#2e2e6b}.st20,.st21{display:inline;fill:#1f1f47}.st21{fill:#252557}.st22{fill:#9855c1}.st23{fill:#7b3ca5}.st24{fill:#8441b3}.st25,.st26{fill:#ffc533}.st26{opacity:.33;enable-background:new}.st27{fill:#3a1e78}.st28{fill:#4a298f}.st29{opacity:.55;fill:#ffc533;enable-background:new}.st31{fill:#927dd0}.st32{fill:#ac9bdb}.st33{fill:#fff}.st35{fill:#ca9ce6}.st36{fill:#871a6c}.st37{display:inline;fill:#090914}.st39{opacity:.22;fill:#4a298f;enable-background:new}.st40{fill:#846596}.st42{fill:#ff7d1e}.st43{fill:#ffbf2b}.st45{fill:#45393c}.st46{fill:#090914}.st47{fill:#f1f1f1}.st48{fill:#000518}.st51{fill:#f7fffa}.st52{fill:#fe798c}.st53{fill:#7f7f4f}.st55,.st56,.st57{display:none;fill:#090914}.st56,.st57{fill:#ed8583}.st57{fill:#f7fffa}.st58{fill:#e3af2d}.st60{font-size:5.5694px}.st62{font-size:24.0104px}.st63{letter-spacing:-1}.st69,.st70{opacity:.5;fill:#fff;enable-background:new}.st70{fill:#e86900}.st71{fill:#00933e}.st72{fill:#8b4b2c}.st73{fill:#b3795d}.st74{fill:#191936}.st75{fill:#fb5d36}.st78{fill:#e86900}.st79{opacity:.5;fill:#ff9d07;enable-background:new}.st85{fill:#522840}.st87{fill:#fff9f2}</style><g id="OBJECTS"><linearGradient id="SVGID_1_" gradientUnits="userSpaceOnUse" x1="215.127" y1="1.001" x2="175.222" y2="385.418" gradientTransform="matrix(1 0 0 -1 0 389.89)"><stop offset="0" style="stop-color:#fb4c4e"/><stop offset=".01" style="stop-color:#ee4c57"/><stop offset=".041" style="stop-color:#cc4a6f"/><stop offset=".074" style="stop-color:#af4984"/><stop offset=".112" style="stop-color:#984894"/><stop offset=".154" style="stop-color:#8648a1"/><stop offset=".205" style="stop-color:#7947aa"/><stop offset=".272" style="stop-color:#7247b0"/><stop offset=".424" style="stop-color:#7047b1"/><stop offset=".446" style="stop-color:#7049b1"/><stop offset=".616" style="stop-color:#7050b1"/><stop offset=".998" style="stop-color:#7052b1"/></linearGradient><path class="st46" d="M129 100.3c1.3-6.8-.5-13.5-4.4-18.6-1.7-1-3.5-1.8-5.5-2.1-11.1-2.2-22.3 7.2-25 20.8-2.7 13.7 4.1 26.6 15.2 28.8 1 .2 2 .3 3 .3 7.1-2.8 12.7-9.1 14.2-17.1l2.5-12.1zM201.9 122.5c2.1-6.6 1-13.5-2.4-19-1.6-1.2-3.3-2.1-5.2-2.7-10.8-3.4-22.9 4.7-27.1 18.1s1.2 26.9 12.1 30.2c1 .3 2 .5 3 .6 7.4-2.1 13.5-7.6 16-15.5l3.6-11.7z"/></g></svg>