<svg xmlns="http://www.w3.org/2000/svg" xmlns:xlink="http://www.w3.org/1999/xlink" viewBox="0 0 629.34 354" xml:space="preserve"><linearGradient id="a" gradientUnits="userSpaceOnUse" x1="334.797" y1="370.889" x2="294.892" y2="-13.528"><stop offset="0" style="stop-color:#fb4c4e"/><stop offset=".01" style="stop-color:#ee4c57"/><stop offset=".041" style="stop-color:#cc4a6f"/><stop offset=".074" style="stop-color:#af4984"/><stop offset=".112" style="stop-color:#984894"/><stop offset=".154" style="stop-color:#8648a1"/><stop offset=".205" style="stop-color:#7947aa"/><stop offset=".272" style="stop-color:#7247b0"/><stop offset=".424" style="stop-color:#7047b1"/><stop offset=".446" style="stop-color:#7049b1"/><stop offset=".616" style="stop-color:#7050b1"/><stop offset=".998" style="stop-color:#7052b1"/></linearGradient><defs><path id="b" d="M0 0h629.34v354H0z"/></defs><clipPath id="c"><use xlink:href="#b" overflow="visible"/></clipPath><path opacity=".1" clip-path="url(#c)" fill="#FFF9F2" d="M-26.17 83.81c16.36-17.1 49.95-24.04 76.15-15.73 26.2 8.3 40.37 29.92 34.44 50.32 16.53-7.43 38.68-7.6 55.43-.44s29.31 20.95 28.52 35.11c15.76-1.02 32.01 3.55 42.76 12.02 10.75 8.47 16.24 20.25 13.63 31.64 15.73-7.68 37.45-8.22 53.87-1.34 16.41 6.88 28.56 20.86 27.4 34.65 8.2-11.03 23.79-18.96 40.79-20.76 17.01-1.8 34.36 3.19 46.51 12.06-11.41-14.51-5.86-34.9 12.28-45.13 18.14-10.23 45.59-9.49 61.94 2.24-7.85-9.23-8.43-21.51-1.48-31.11s21.17-16.18 36.04-16.65c14.86-.47 30.51 5.91 38.58 15.04-3.87-6.09-3.24-13.59 1.62-19.29 4.86-5.7 13.81-9.41 23-9.56 5.84-.09 13.76 1.3 15.11 5.45-4.02-14.48 3.14-30.33 18.16-40.23 15.02-9.9 37.35-13.48 56.66-9.08v307.99H-21.13l-5.04-297.2z"/></svg>