<svg xmlns="http://www.w3.org/2000/svg" viewBox="0 0 203.74 269.11" xml:space="preserve"><linearGradient id="a" gradientUnits="userSpaceOnUse" x1="-68.852" y1="326.506" x2="-108.757" y2="-57.911"><stop offset="0" style="stop-color:#fb4c4e"/><stop offset=".01" style="stop-color:#ee4c57"/><stop offset=".041" style="stop-color:#cc4a6f"/><stop offset=".074" style="stop-color:#af4984"/><stop offset=".112" style="stop-color:#984894"/><stop offset=".154" style="stop-color:#8648a1"/><stop offset=".205" style="stop-color:#7947aa"/><stop offset=".272" style="stop-color:#7247b0"/><stop offset=".424" style="stop-color:#7047b1"/><stop offset=".446" style="stop-color:#7049b1"/><stop offset=".616" style="stop-color:#7050b1"/><stop offset=".998" style="stop-color:#7052b1"/></linearGradient><path fill="#9855C1" d="m124.6 243.13 2.63-.08 54.49-1.68 9.03-44.86.46-2.3.52-2.56-56.82-4.99h-.03l-2.61-.23c-.17 1.17-.34 2.33-.5 3.48l-.33 2.31c-3.2 22.24-5.72 41.09-6.84 50.91z"/><path fill="#7B3CA5" d="m131.44 192.23 59.31 4.28.98-4.86-56.82-4.99-2.64-.23c-.29 1.96-.56 3.9-.83 5.8z"/><path fill="#7B3CA5" d="m124.6 243.13 2.63-.08c1.22-10.51 3.86-30.12 7.15-52.94l-2.61-.19-.33 2.31c-3.2 22.23-5.72 41.08-6.84 50.9z"/><path fill="#8441B3" d="m132.72 237.13.65.09 1.37-9.49c1.91-13.28 3.89-26.99 5.12-40.62l-.66-.06c-1.23 13.61-3.21 27.31-5.12 40.58l-1.36 9.5zM140.64 238.6l.66.09c2.17-16.89 4.48-34 6.87-50.85l-.66-.06c-2.39 16.84-4.7 33.94-6.87 50.82zM148.59 239.11l.65.13c3.29-16.68 5.85-33.71 7.62-50.64l-.65-.05a575.112 575.112 0 0 1-7.62 50.56zM156.3 239.23l.65.11c2.88-16.55 5.34-33.39 7.32-50.09l-.65-.06a953.894 953.894 0 0 1-7.32 50.04zM176.44 237.34l.65.15c3.59-15.28 7.04-30.81 10.24-46.22l-.66-.06c-3.2 15.38-6.64 30.88-10.23 46.13zM169.77 238.11l.65.14c3.33-15.77 6.5-31.78 9.44-47.63l-.66-.05c-2.94 15.81-6.11 31.8-9.43 47.54zM161.51 239.63l.65.15a530.32 530.32 0 0 0 9.2-49.91l-.67-.06a524.63 524.63 0 0 1-9.18 49.82z"/><path fill="#FFC533" d="m160.895 219.794 1.381-19.21 19.948 1.434-1.38 19.21z"/><path opacity=".33" fill="#FFC533" d="m161.18 215.85-.28 3.94 19.95 1.43.5-6.97c-6.52 1.94-13.59 2.97-20.17 1.6z"/><path fill="#3A1E78" d="m163.35 201.82 17.64 1.27-1.21 16.9-17.64-1.27 1.21-16.9m-1.07-1.24-1.38 19.21 19.95 1.43 1.38-19.21-19.95-1.43z"/><path fill="#3A1E78" d="m170.817 213.052.803-11.21 1.157.082-.803 11.21z"/><path fill="#3A1E78" d="m162.024 213.007.083-1.157 18.472 1.328-.084 1.157z"/><path fill="#4A298F" d="m159.988 221.428.121-1.686 21.524 1.547-.121 1.686z"/><path fill="#FFC533" d="m135.002 217.891 1.38-19.21 19.949 1.434-1.381 19.21z"/><path opacity=".33" fill="#FFC533" d="M153.8 213.09c-3.87 1.09-7.86 1.81-11.84 2.09-2.14.15-4.48.18-6.76-.09l-.2 2.8 19.95 1.43.39-5.42c-.52-.25-1.03-.52-1.54-.81z"/><path fill="#3A1E78" d="m137.46 199.91 17.64 1.27-1.21 16.9-17.64-1.27 1.21-16.9m-1.08-1.23L135 217.89l19.95 1.43 1.38-19.21-19.95-1.43z"/><path fill="#3A1E78" d="m144.925 211.149.803-11.211 1.157.083-.803 11.21z"/><path fill="#3A1E78" d="m136.121 211.095.084-1.157 18.471 1.328-.083 1.157z"/><path fill="#4A298F" d="m134.085 219.524.121-1.685 21.524 1.547-.121 1.686z"/><path fill="#9855C1" d="m134.13 173.77 2.62.19h.03l44.94 3.29c0-.09-.01-.19-.01-.29-.25-10.97 2.86-45.4 4.4-59.42.21-1.92.39-3.46.53-4.5l-18.18-26.42L147.51 106l-.06.06-3.16 2.92-.01.06c-.2 1.23-.42 2.47-.63 3.73-3.21 19.31-6.53 40.82-9.52 61z"/><path fill="#7B3CA5" d="m134.13 173.77 2.62.18c3.35-22.67 7.13-46.97 10.7-67.89l-3.16 2.92-.01.06c-.2 1.23-.42 2.47-.63 3.73-3.21 19.31-6.53 40.82-9.52 61z"/><path fill="#7B3CA5" d="M143.65 112.77c9.42-7.98 19.59-16.82 24.34-21.63 4.01 6.72 12.62 19.16 18.12 26.4.21-1.92.39-3.46.53-4.5l-18.18-26.42L147.51 106l-3.22 2.98-.01.06c-.21 1.23-.42 2.47-.63 3.73z"/><path fill="#8441B3" d="m176.61 176.88.66.05c.87-6.39 1.63-12.83 2.26-19.21.32-3.15.6-6.31.89-9.46l3.56-39.06-.34-.5-.27-.03-3.61 39.52c-.28 3.15-.58 6.31-.89 9.46-.63 6.39-1.39 12.84-2.26 19.23zM169.94 176.39l.66.05c2.72-24.58 5.68-49.39 8.83-73.87l-.56-.82a4106.59 4106.59 0 0 0-8.93 74.64zM162.82 175.87l.67.05c4.2-27.1 7.58-54.63 10.04-81.92l-.58-.85c-2.48 27.55-5.88 55.35-10.13 82.72zM142.07 174.35l.66.05c3.42-24.21 6.68-48.72 9.71-72.96l-.75.69c-3.01 24-6.24 48.25-9.62 72.22zM147.81 174.77l.66.05c4.52-26.64 8.43-53.66 11.64-80.48l-.75.69a1649.13 1649.13 0 0 1-11.55 79.74zM155.89 175.36l.67.05c5.02-28.89 8.95-58.26 11.69-87.4l-.65-.06c-2.76 29.14-6.69 58.51-11.71 87.41z"/><path fill="#FFC533" d="M162.6 122.06c13.31 1.07 10.62 38.82 10.01 46.47l-13.65-1.1-13.65-1.1c.61-7.64 3.99-45.34 17.29-44.27z"/><path opacity=".33" fill="#FFC533" d="M158.58 161.37c-3.48.46-6.99.94-10.51.94-.79 0-1.59-.02-2.4-.08-.18 1.75-.29 3.16-.37 4.11l13.65 1.1 13.65 1.1c.16-2.05.48-6.28.59-11.38-4.41 2.45-9.52 3.53-14.61 4.21z"/><path fill="#3A1E78" d="M162.5 123.38c8.91.72 10.45 22.81 8.9 43.73l-12.33-.99-12.33-.99c1.8-20.9 6.85-42.47 15.76-41.75m.1-1.32c-13.31-1.07-16.69 36.63-17.3 44.28l13.65 1.1 13.65 1.1c.63-7.65 3.31-45.41-10-46.48z"/><path fill="#4A298F" d="m143.856 168.735.2-2.492 29.804 2.395-.2 2.492z"/><path fill="#3A1E78" d="m158.297 167.38 3.641-45.375 1.316.105-3.642 45.375z"/><path fill="#3A1E78" d="m151.359 135.36.31-1.283 20.383 4.924-.31 1.283zM147.801 151.102l24.848-.313.016 1.32-24.847.313z"/><circle transform="rotate(-79.485 164.316 110.534)" fill="#FFC533" cx="164.31" cy="110.53" r="7.84"/><path opacity=".33" fill="#FFC533" d="M159.09 116.38a7.76 7.76 0 0 0 4.12 1.91c4.29.61 8.25-2.38 8.86-6.66.18-1.24.04-2.45-.33-3.56-2.73 4.25-7.58 7.25-12.65 8.31z"/><path fill="#3A1E78" d="M165.22 104.08c3.56.5 6.04 3.81 5.54 7.37s-3.81 6.04-7.37 5.54-6.04-3.81-5.54-7.37a6.532 6.532 0 0 1 7.37-5.54m.19-1.31c-4.29-.61-8.25 2.38-8.86 6.66-.61 4.29 2.38 8.25 6.66 8.86 4.29.61 8.25-2.38 8.86-6.66.61-4.28-2.38-8.25-6.66-8.86z"/><path fill="#3A1E78" d="m162.643 117.64 2.016-14.237 1.307.185-2.017 14.238z"/><path fill="#3A1E78" d="m157.095 110.26.185-1.307 14.188 2.008-.185 1.307z"/><path fill="#4A298F" d="m168.035 85.495 2.604-22.359 1.311.153-2.604 22.359z"/><path fill="#4A298F" d="m163.25 71.296.271-1.292 13.193 2.765-.27 1.292zM190.13 119.37l3.45-3.08c-4.49-5.03-19.71-26.8-22.66-32.8l-1.7-3.45-2.25 3.12c-1.84 2.55-12.63 12.22-29.62 26.55l2.98 3.54c10.32-8.7 22.68-19.34 28.06-24.78 5.08 8.52 17.56 26.22 21.74 30.9z"/><path fill="#3A1E78" d="M186.22 114.48c.14.18.27.35.4.52 1.12-1.08 2.21-2.2 3.27-3.35-.13-.17-.26-.35-.4-.54a86.863 86.863 0 0 1-3.27 3.37zM181.87 108.54c.13.19.26.37.4.55 1.04-1.22 2.03-2.49 2.98-3.78-.13-.19-.26-.37-.4-.56-.96 1.29-1.95 2.56-2.98 3.79zM176.54 100.95l.38.56c1.12-1.11 2.22-2.25 3.29-3.41-.13-.19-.26-.37-.38-.56-1.08 1.17-2.18 2.3-3.29 3.41zM171.33 93.14c.13.21.27.42.41.64.8-1.59 1.61-3.17 2.45-4.74-.14-.22-.28-.43-.4-.64-.85 1.57-1.67 3.15-2.46 4.74zM162.17 88.06c.5 1.67.95 3.37 1.34 5.06.19-.17.37-.34.56-.51-.4-1.7-.85-3.39-1.36-5.06l-.54.51zM154.88 94.65l1.98 4.42.52-.46-1.98-4.42c-.17.15-.35.3-.52.46zM147.44 101.12c.78 1.38 1.55 2.76 2.3 4.13.17-.15.34-.29.51-.44-.75-1.38-1.53-2.76-2.29-4.13-.18.15-.35.29-.52.44zM140.93 106.68c.84 1.3 1.72 2.58 2.64 3.83.17-.15.34-.28.5-.43-.91-1.25-1.79-2.53-2.63-3.84-.17.15-.34.29-.51.44z"/><path opacity=".55" fill="#FFC533" d="m166.97 84.13 2.25-3.12 1.7 3.45c2.85 5.8 17.18 26.35 22.18 32.25l.48-.43c-4.49-5.03-19.71-26.8-22.66-32.8l-1.7-3.45-2.25 3.12c-1.84 2.55-12.63 12.22-29.62 26.55l.48.57c16.7-14.09 27.32-23.61 29.14-26.14z"/><path fill="#4A298F" d="m131.77 189.93 2.61.19 56.83 4.1 6.12.44c-.7-1-8.61-12.78-11.3-17.41l-4.32-.29-44.96-3.01-2.62-.18c-.64 4.3-1.26 8.53-1.86 12.67-.17 1.17-.34 2.33-.5 3.49z"/><path fill="#3A1E78" d="m131.77 189.93 2.61.19c.17-1.14.34-2.29.5-3.44.6-4.15 1.22-8.4 1.86-12.71 0-.01 0-.01.01-.01l-2.62-.18a3345.78 3345.78 0 0 0-2.36 16.15z"/><path fill="#3A1E78" d="M133.77 176.19c9.14 2.07 18.61 2.85 27.78 3.6l27.44 2.25c-.15-.24-.3-.47-.45-.7l-26.94-2.21c-9.16-.75-18.62-1.53-27.73-3.6-.03.22-.07.44-.1.66zM132.98 181.59c19.69 1.34 39.52 3.08 59.09 5.18-.15-.23-.31-.47-.46-.71-19.39-2.08-39.03-3.8-58.54-5.14-.03.24-.06.46-.09.67zM132.34 185.92c20.75.49 41.63 2.04 62.23 4.63-.17-.24-.32-.48-.49-.73-20.4-2.55-41.09-4.08-61.64-4.56-.03.22-.07.44-.1.66z"/><path fill="#9855C1" d="m77.55 243.13-2.63-.08-54.49-1.68-9.03-44.86-.46-2.3-.52-2.56 56.82-4.99h.03l2.61-.23c.17 1.17.34 2.33.5 3.48l.33 2.31c3.2 22.24 5.72 41.09 6.84 50.91z"/><path fill="#7B3CA5" d="m70.71 192.23-59.31 4.28-.98-4.86 56.82-4.99 2.64-.23c.28 1.96.56 3.9.83 5.8z"/><path fill="#7B3CA5" d="m77.55 243.13-2.63-.08c-1.22-10.51-3.86-30.12-7.15-52.94l2.61-.19.33 2.31c3.2 22.23 5.72 41.08 6.84 50.9z"/><path fill="#8441B3" d="M68.06 227.63c-1.91-13.28-3.89-26.97-5.12-40.58l-.66.06c1.24 13.63 3.21 27.34 5.12 40.62l1.37 9.49.65-.09-1.36-9.5zM61.51 238.6l-.66.09c-2.17-16.89-4.48-34-6.87-50.85l.66-.06c2.39 16.84 4.7 33.94 6.87 50.82zM53.55 239.11l-.65.13a567.821 567.821 0 0 1-7.62-50.64l.65-.05c1.79 16.89 4.34 33.89 7.62 50.56zM45.84 239.23l-.65.11a936.553 936.553 0 0 1-7.32-50.09l.65-.06c2 16.69 4.45 33.51 7.32 50.04zM25.71 237.34l-.65.15c-3.59-15.28-7.04-30.81-10.24-46.22l.66-.06c3.2 15.38 6.64 30.88 10.23 46.13zM32.38 238.11l-.65.14c-3.33-15.77-6.5-31.78-9.44-47.63l.66-.05c2.94 15.81 6.11 31.8 9.43 47.54zM40.63 239.63l-.65.15a530.32 530.32 0 0 1-9.2-49.91l.67-.06c2.25 16.69 5.34 33.45 9.18 49.82z"/><path fill="#FFC533" d="m19.918 202.006 19.948-1.434 1.38 19.21-19.947 1.434z"/><path opacity=".33" fill="#FFC533" d="M27.8 218.48c-2.19.39-4.41.72-6.64.85l.14 1.9 19.95-1.43-.52-7.29c-3.59 3.18-8.16 5.12-12.93 5.97z"/><path fill="#3A1E78" d="m38.79 201.82 1.21 16.9-17.64 1.27-1.21-16.9 17.64-1.27m1.08-1.24-19.95 1.43 1.38 19.21 19.95-1.43-1.38-19.21z"/><path fill="#3A1E78" d="m29.364 201.909 1.157-.083.806 11.21-1.157.084z"/><path fill="#3A1E78" d="m21.558 213.154 18.472-1.323.083 1.157-18.472 1.323z"/><path fill="#4A298F" d="m20.51 221.28 21.524-1.548.122 1.686-21.524 1.547z"/><path fill="#FFC533" d="m45.817 200.105 19.948-1.434 1.381 19.21-19.948 1.434z"/><path opacity=".33" fill="#FFC533" d="M53.81 215.32c-2.25.43-4.46.42-6.74.34h-.13l.26 3.66 19.95-1.43-.51-7.14c-3.86 2.42-8.6 3.76-12.83 4.57z"/><path fill="#3A1E78" d="m64.69 199.91 1.21 16.9-17.64 1.27-1.21-16.9 17.64-1.27m1.07-1.23-19.95 1.43 1.38 19.21 19.95-1.43-1.38-19.21z"/><path fill="#3A1E78" d="m55.264 200.008 1.157-.083.806 11.21-1.157.084z"/><path fill="#3A1E78" d="m47.457 211.254 18.472-1.322.083 1.157-18.472 1.322z"/><path fill="#4A298F" d="m46.41 219.369 21.523-1.547.121 1.685-21.523 1.548z"/><path fill="#9855C1" d="m68.02 173.77-2.62.19h-.03l-44.94 3.29c0-.09.01-.19.01-.29.25-10.97-2.86-45.4-4.4-59.42-.21-1.92-.39-3.46-.53-4.5L33.7 86.62 54.64 106l.06.06 3.16 2.92.01.06c.2 1.23.42 2.47.63 3.73 3.21 19.31 6.53 40.82 9.52 61z"/><path fill="#7B3CA5" d="m68.02 173.77-2.62.18c-3.35-22.67-7.13-46.97-10.7-67.89l3.16 2.92.01.06c.2 1.23.42 2.47.63 3.73 3.21 19.31 6.53 40.82 9.52 61z"/><path fill="#7B3CA5" d="M58.5 112.77c-9.42-7.98-19.59-16.82-24.34-21.63-4.01 6.72-12.62 19.16-18.12 26.4-.21-1.92-.39-3.46-.53-4.5L33.7 86.62 54.64 106l3.22 2.98.01.06c.21 1.23.42 2.47.63 3.73z"/><path fill="#8441B3" d="m25.54 176.88-.66.05c-.87-6.39-1.63-12.83-2.26-19.21-.32-3.15-.6-6.31-.89-9.46l-3.56-39.06.34-.5.27-.03 3.61 39.52c.28 3.15.58 6.31.89 9.46.63 6.39 1.39 12.84 2.26 19.23zM32.21 176.39l-.66.05c-2.72-24.58-5.68-49.39-8.83-73.87l.56-.82c3.18 24.73 6.19 49.81 8.93 74.64zM39.33 175.87l-.67.05c-4.2-27.1-7.58-54.63-10.04-81.92l.58-.85c2.48 27.55 5.88 55.35 10.13 82.72zM60.08 174.35l-.66.05c-3.42-24.21-6.68-48.72-9.71-72.96l.75.69c3.01 24 6.23 48.25 9.62 72.22zM54.33 174.77l-.66.05c-4.52-26.64-8.43-53.66-11.64-80.48l.75.69c3.2 26.58 7.07 53.34 11.55 79.74zM46.26 175.36l-.67.05c-5.02-28.89-8.95-58.26-11.69-87.4l.65-.06c2.76 29.14 6.69 58.51 11.71 87.41z"/><path fill="#FFC533" d="M39.54 122.06c-13.31 1.07-10.62 38.82-10.01 46.47l13.65-1.1 13.65-1.1c-.6-7.64-3.98-45.34-17.29-44.27z"/><path opacity=".33" fill="#FFC533" d="M53.51 157.22c-4.75 3.47-10.62 5.34-16.38 6.24-2.61.4-5.26.62-7.9.63.11 1.9.23 3.43.31 4.44l13.65-1.1 13.65-1.1c-.16-2-.51-6.04-1.17-10.9-.68.64-1.4 1.24-2.16 1.79z"/><path fill="#3A1E78" d="M39.65 123.38c8.91-.72 13.95 20.85 15.77 41.75l-12.33.99-12.33.99c-1.56-20.92-.02-43.01 8.89-43.73m-.11-1.32c-13.31 1.07-10.62 38.82-10.01 46.47l13.65-1.1 13.65-1.1c-.6-7.64-3.98-45.34-17.29-44.27z"/><path fill="#4A298F" d="m28.292 168.642 29.805-2.395.2 2.492-29.804 2.395z"/><path fill="#3A1E78" d="m38.875 122.12 1.316-.106 3.642 45.374-1.316.106z"/><path fill="#3A1E78" d="m30.083 138.986 20.382-4.924.31 1.283-20.383 4.924zM29.479 152.11l.016-1.319 24.848.313-.017 1.32z"/><circle transform="rotate(-10.305 37.83 110.509)" fill="#FFC533" cx="37.84" cy="110.53" r="7.84"/><path opacity=".33" fill="#FFC533" d="M45.6 109.44a7.802 7.802 0 0 0-1.68-3.83c-1.6 4.96-5.98 8.9-11.01 11.02a7.787 7.787 0 0 0 6.02 1.67c4.29-.61 7.28-4.58 6.67-8.86z"/><path fill="#3A1E78" d="M36.93 104.08c3.56-.5 6.86 1.98 7.37 5.54.5 3.56-1.98 6.86-5.54 7.37-3.56.5-6.86-1.98-7.37-5.54-.51-3.56 1.98-6.86 5.54-7.37m-.19-1.31a7.832 7.832 0 0 0-6.66 8.86 7.832 7.832 0 0 0 8.86 6.66 7.832 7.832 0 0 0 6.66-8.86c-.61-4.28-4.57-7.26-8.86-6.66z"/><path fill="#3A1E78" d="m36.192 103.58 1.307-.186 2.016 14.238-1.307.185z"/><path fill="#3A1E78" d="m30.663 110.958 14.188-2.007.185 1.307-14.188 2.007z"/><path fill="#4A298F" d="m30.19 63.296 1.31-.153 2.608 22.359-1.312.153z"/><path fill="#4A298F" d="m25.416 72.755 13.192-2.765.271 1.292-13.193 2.764zM12.02 119.37l-3.45-3.08c4.49-5.03 19.71-26.8 22.66-32.8l1.7-3.45 2.25 3.12c1.84 2.55 12.63 12.22 29.62 26.55l-2.98 3.54c-10.32-8.7-22.68-19.34-28.06-24.78-5.08 8.52-17.56 26.22-21.74 30.9z"/><path fill="#3A1E78" d="M15.93 114.48c-.14.18-.27.35-.4.52-1.12-1.08-2.21-2.2-3.27-3.35.13-.17.26-.35.4-.54 1.06 1.16 2.15 2.28 3.27 3.37zM20.28 108.54c-.13.19-.26.37-.4.55a67.757 67.757 0 0 1-2.98-3.78c.13-.19.26-.37.4-.56.96 1.29 1.95 2.56 2.98 3.79zM25.61 100.95l-.38.56a105.87 105.87 0 0 1-3.29-3.41c.13-.19.26-.37.38-.56 1.08 1.17 2.17 2.3 3.29 3.41zM30.82 93.14c-.13.21-.27.42-.41.64-.8-1.59-1.61-3.17-2.45-4.74.14-.22.28-.43.4-.64.85 1.57 1.67 3.15 2.46 4.74zM39.98 88.06c-.5 1.67-.95 3.37-1.34 5.06-.19-.17-.37-.34-.56-.51.4-1.7.85-3.39 1.36-5.06.18.17.35.34.54.51zM47.27 94.65l-1.98 4.42-.52-.46 1.98-4.42.52.46zM54.71 101.12c-.78 1.38-1.55 2.76-2.3 4.13-.17-.15-.34-.29-.51-.44.75-1.38 1.53-2.76 2.29-4.13.18.15.35.29.52.44zM61.22 106.68a76.55 76.55 0 0 1-2.64 3.83c-.17-.15-.34-.28-.5-.43.91-1.25 1.79-2.53 2.63-3.84.16.15.34.29.51.44z"/><path opacity=".55" fill="#FFC533" d="m31.04 85.08 2.04-3.75 2.67 3.32c1.8 2.49 12.16 11.9 28.5 25.7l.54-.64c-16.99-14.33-27.78-24-29.62-26.55l-2.25-3.12-1.7 3.45c-2.95 5.99-18.16 27.76-22.66 32.8l.52.46c5.36-6.52 19.19-26.04 21.96-31.67z"/><path fill="#4A298F" d="m70.38 189.93-2.61.19-56.83 4.1-6.12.44c.7-1 8.61-12.78 11.3-17.41l4.32-.29 44.96-3.01 2.62-.18c.64 4.3 1.26 8.53 1.86 12.67.17 1.17.34 2.33.5 3.49z"/><path fill="#3A1E78" d="m70.38 189.93-2.61.19c-.17-1.14-.34-2.29-.5-3.44-.6-4.15-1.22-8.4-1.86-12.71 0-.01 0-.01-.01-.01l2.62-.18c.64 4.3 1.26 8.53 1.86 12.67.17 1.16.34 2.32.5 3.48z"/><path fill="#3A1E78" d="M68.38 176.19c-9.14 2.07-18.61 2.85-27.78 3.6l-27.44 2.25c.15-.24.3-.47.45-.7l26.94-2.21c9.16-.75 18.62-1.53 27.73-3.6.03.22.07.44.1.66zM69.17 181.59c-19.69 1.34-39.52 3.08-59.09 5.18.15-.23.31-.47.46-.71 19.39-2.08 39.03-3.8 58.54-5.14.03.24.06.46.09.67zM69.81 185.92c-20.75.49-41.63 2.04-62.23 4.63.17-.24.32-.48.49-.73 20.4-2.55 41.09-4.08 61.64-4.56.03.22.06.44.1.66z"/><path fill="#9855C1" d="M101.07 31.35 50.05 66.87c9.75 44.95 27.25 168.86 28.11 182.34h45.82c.86-13.48 18.36-137.39 28.11-182.34l-51.02-35.52z"/><path fill="#8441B3" d="m124.31 47.09-.03.42-.01.24c-15.04-.79-30.28-1.11-45.4-.95l.96-.67c14.59-.15 29.28.17 43.81.92.23.01.44.03.67.04zM139.78 58.33v.66l-79.15.51.96-.67zM152.92 68.81l-1.26.09a1853.02 1853.02 0 0 1-100.32 4.15c-.05-.22-.09-.44-.13-.66 33.47-.47 67.26-1.86 100.6-4.16.36-.03.71-.05 1.06-.07l.05.65zM149.12 81.71c-.04.22-.08.44-.13.66l-71.3 3.09c-5.89.26-11.88.52-17.87.52-2 0-4.01-.03-6.01-.1-.05-.22-.09-.44-.13-.66 8.03.28 16.09-.07 23.98-.42l71.46-3.09zM146.57 95.7c-.04.22-.08.44-.12.67-28.1.72-56.47 1.08-84.63 1.08-1.98 0-3.96 0-5.94-.01l-.12-.66c30.19.05 60.66-.3 90.81-1.08zM143.99 110.73c-.03.22-.07.44-.11.66l-41.83-.17c-14.45-.06-29.3-.12-44.02-1.24-.04-.22-.08-.45-.11-.67 14.74 1.14 29.64 1.2 44.14 1.26l41.93.16zM142.43 120.21c-.03.22-.07.44-.11.67l-23.2.44c-5.74.11-11.6.22-17.48.22-3.85 0-7.71-.05-11.54-.18-5.14-.17-10.37-.49-15.41-.81-4.95-.3-9.98-.61-15.04-.79-.04-.22-.07-.45-.11-.67 5.1.18 10.2.49 15.18.8 5.04.31 10.26.63 15.4.8 9.65.32 19.48.14 28.98-.04l23.33-.44zM139.68 137.4c-.04.22-.07.44-.11.65-22.45.74-45.12 1.12-67.65 1.12-3.05 0-6.11-.01-9.16-.03-.03-.22-.07-.44-.11-.66 25.61.12 51.46-.24 77.03-1.08zM137.59 150.82c-.03.22-.07.44-.1.66-24.21-.59-48.66-.91-72.97-.95-.03-.22-.07-.44-.1-.66 24.36.05 48.89.36 73.17.95zM136.32 159.07c-.03.22-.07.44-.1.66-14.37.48-28.82.71-43.25.71-9.01 0-18.01-.09-26.98-.28-.04-.22-.07-.44-.1-.66 23.43.49 47.03.34 70.43-.43zM133.68 176.8c-.03.22-.07.44-.1.67l-64.68 2.27c-.03-.22-.07-.44-.09-.66l64.87-2.28zM132.15 187.27c-.04.22-.07.45-.1.67-10.98.71-22.01 1.06-33.05 1.06-9.63 0-19.27-.27-28.87-.8l-.09-.67c20.65 1.15 41.48 1.07 62.11-.26zM130.74 197.07c-.03.22-.07.44-.09.66l-58.85 2.13c-.03-.22-.07-.44-.09-.65l59.03-2.14zM129.53 205.65l-.09.66c-10.22-.21-20.53-.13-30.72.26-2.82.11-5.64.23-8.46.36-5.72.26-11.54.52-17.38.59-.03-.22-.07-.44-.09-.65 5.86-.07 11.7-.33 17.44-.6 2.82-.13 5.65-.25 8.46-.36 10.23-.39 20.57-.47 30.84-.26zM128.25 214.91c-.04.23-.07.46-.1.68-1.4.19-2.78.32-4.09.43-16.42 1.47-33.02 2.57-49.57 3.24l-.09-.65c16.56-.68 33.17-1.77 49.6-3.24 1.37-.13 2.8-.26 4.25-.46zM127.06 223.66l-.09.67c-12.01-.19-24.08.12-35.84.42-5.23.13-10.53.27-15.86.36-.03-.22-.05-.44-.09-.66 5.35-.09 10.67-.23 15.92-.36 11.81-.3 23.91-.62 35.96-.43z"/><path fill="#7B3CA5" d="m124.39 189.79-.2 3.32c-8.32-1.53-16.81-7.34-23.1-12.62-6.46 5.49-15.23 11.05-23.12 12.59l-.21-3.32c7.53-1.58 16.12-7.29 22.22-12.69l1.08-.96 1.09.95c5.96 5.15 14.3 11.15 22.24 12.73zM152.1 66.87c-.32 1.47-.65 3.04-.99 4.68-13.38-7.49-40.33-24.89-50.03-33.69-9.71 8.79-36.66 26.2-50.04 33.69-.34-1.64-.66-3.21-.99-4.68l.65-.45.01-.01c14.43-8.3 41.62-26.03 48.7-33.36l1.61-1.66.01-.01.05-.05.05.05.01.01 1.6 1.66c7.09 7.33 34.28 25.07 48.71 33.36l.01.01.64.45zM141.16 128.01c-.17 1.1-.35 2.2-.52 3.3l-79.27-.85c-.18-1.11-.35-2.21-.53-3.31l80.32.86zM135.01 167.79c-.17 1.11-.33 2.22-.5 3.33l-66.5 2.6c-.16-1.09-.32-2.19-.49-3.29l67.49-2.64z"/><path fill="#4A298F" d="M156.62 71.12c-9.2-4.18-44.18-26.27-55.55-36.56-11.36 10.29-46.35 32.38-55.55 36.56l-1.92-4.21c9.24-4.2 47.22-28.29 55.8-37.17l1.66-1.72 1.66 1.72c8.58 8.87 46.56 32.96 55.8 37.17l-1.9 4.21zM55.814 127.093l.036-3.31 90.08.974-.035 3.31zM63.546 167.275l73.74-2.885.13 3.307-73.74 2.886zM121.922 228.646l2.54-40.18 1.976.125-2.54 40.18z"/><path fill="#4A298F" d="M128.25 190.2c-9.54 0-19.85-6.87-27.16-13.01-7.6 6.46-18.4 13.01-27.18 13.01v-3.31c8.28 0 18.9-6.78 26.08-13.12l1.08-.96 1.09.94c6.93 5.99 17.08 13.14 26.09 13.14v3.31z"/><path fill="#4A298F" d="m75.705 188.602 1.976-.126 2.553 40.18-1.976.125zM100.213 9.366l1.32-.01.201 24.71-1.32.01z"/><path fill="#4A298F" d="m92.982 17.854 14.807-1.132.1 1.316-14.806 1.132z"/><path fill="#3A1E78" d="M55.94 65.41c-.2.12-.39.23-.58.34-.56-1.46-1.13-2.92-1.71-4.36.19-.11.38-.22.58-.34.58 1.45 1.15 2.9 1.71 4.36zM68.19 57.89c-.19.12-.38.24-.58.36l-1.55-4.51.57-.36 1.56 4.51zM80.25 50c-.19.13-.38.26-.56.38-.53-1.51-1.03-3.04-1.51-4.57.19-.13.38-.26.57-.38.48 1.54.98 3.06 1.5 4.57zM93.54 40.63c-.18.13-.36.27-.55.41-.58-1.5-1.13-3.02-1.66-4.54.19-.14.37-.28.56-.42.52 1.53 1.08 3.04 1.65 4.55zM108.76 34.93c-.32 1.72-.6 3.44-.87 5.16-.2-.16-.4-.31-.6-.46.26-1.73.56-3.45.88-5.17.19.17.39.32.59.47zM122.25 44.64c-.5 1.53-.98 3.07-1.42 4.63-.19-.13-.38-.25-.58-.38.44-1.55.93-3.1 1.43-4.64.19.14.38.27.57.39zM135.76 53.53c-.63 1.44-1.22 2.9-1.77 4.37l-.57-.36c.56-1.47 1.14-2.92 1.77-4.36.19.11.37.23.57.35zM149.48 61.96a88.84 88.84 0 0 0-1.91 4.24c-.19-.11-.38-.22-.58-.33.6-1.43 1.24-2.85 1.92-4.25.19.12.38.24.57.34zM65.63 123.89l-.67-.01.52 3.31.67.01-.52-3.31zM80.55 127.36l-.67-.01c-.13-1.1-.24-2.2-.34-3.31l.66.01c.1 1.1.22 2.2.35 3.31zM95.79 127.52l-.67-.01c-.13-1.1-.24-2.2-.34-3.31l.66.01c.11 1.11.23 2.21.35 3.31zM111.22 124.38v3.31l-.66-.01v-3.31zM139.43 124.68l-.34 3.31-.66-.01.34-3.3zM126.86 124.55l-.17 3.31-.65-.01.16-3.31zM130.47 164.67l-.32 3.32-.66.02.31-3.32zM117.35 168.49l-.66.03c-.03-1.1-.04-2.21-.04-3.31l.66-.03c0 1.1.01 2.2.04 3.31zM102.37 169.07l-.67.03c-.07-1.1-.13-2.2-.19-3.3l.66-.03c.06 1.11.13 2.2.2 3.3zM86.81 169.68l-.66.03c-.14-1.1-.28-2.2-.44-3.29l.67-.03c.14 1.09.29 2.19.43 3.29zM72.99 170.22l-.68.03a83.21 83.21 0 0 1-.65-3.29l.66-.03c.21 1.1.43 2.2.67 3.29zM96.58 180.73l-.54.39c-.52-.98-1.05-1.95-1.59-2.92.19-.13.36-.26.54-.4.53.98 1.07 1.95 1.59 2.93zM109.56 179.53c-.36 1.1-.69 2.2-.99 3.31-.19-.13-.38-.26-.58-.39.3-1.12.63-2.22 1-3.32.2.14.39.27.57.4zM121.3 185.67c-.42 1.02-.77 2.06-1.08 3.11-.21-.07-.42-.14-.63-.22.31-1.05.67-2.09 1.08-3.11.21.08.43.15.63.22zM85.19 187.42c-.2.09-.4.18-.6.26-.36-1.04-.73-2.07-1.11-3.09.2-.08.41-.17.61-.26.38 1.02.75 2.05 1.1 3.09z"/><path fill="#FFC533" d="m71.56 135.367 22.813-1.3 1.252 21.975-22.813 1.3z"/><path opacity=".33" fill="#FFC533" d="M81.91 153.56c-2.89 1.08-6.05 1.92-9.2 2.1l.1 1.67 22.82-1.3-.55-9.74c-4 3.07-8.5 5.53-13.17 7.27z"/><path fill="#3A1E78" d="m93.12 135.46 1.1 19.33-20.18 1.15-1.1-19.33 20.18-1.15m1.25-1.39-22.82 1.3 1.25 21.97 22.82-1.3-1.25-21.97z"/><path fill="#3A1E78" d="m82.343 135.417 1.318-.075.73 12.82-1.317.074z"/><path fill="#3A1E78" d="m73.244 148.134 21.127-1.198.074 1.318-21.126 1.197z"/><path fill="#4A298F" d="m71.903 157.393 24.62-1.403.11 1.927-24.62 1.403z"/><path fill="#FFC533" d="m106.539 156.043 1.252-21.975 22.813 1.3-1.252 21.975z"/><path opacity=".33" fill="#FFC533" d="m106.66 153.76-.13 2.28 22.82 1.3.6-10.48c-6.55 5.03-14.96 7.21-23.29 6.9z"/><path fill="#3A1E78" d="m109.03 135.46 20.18 1.15-1.1 19.33-20.18-1.15 1.1-19.33m-1.25-1.39-1.25 21.97 22.82 1.3 1.25-21.97-22.82-1.3z"/><path fill="#3A1E78" d="m117.767 148.173.728-12.82 1.318.075-.729 12.82z"/><path fill="#3A1E78" d="m107.702 148.257.075-1.318 21.127 1.204-.076 1.318z"/><path fill="#4A298F" d="m105.521 157.917.11-1.927 24.62 1.403-.11 1.927z"/><path fill="#FFC533" d="M80.44 68.87c-13.34.64-11.87 38.47-11.5 46.13l13.68-.66 13.68-.66c-.36-7.66-2.53-45.45-15.86-44.81z"/><path opacity=".33" fill="#FFC533" d="M94.35 98.51c-3.8 4.32-9.18 7.34-14.36 9.69-3.53 1.6-7.32 2.95-11.18 3.6.04 1.33.09 2.43.13 3.21l13.68-.66 13.68-.66c-.13-2.64-.47-8.86-1.4-15.84-.18.22-.36.44-.55.66z"/><path fill="#3A1E78" d="M80.5 70.19c8.93-.43 13.28 21.29 14.42 42.24l-12.36.59-12.36.59c-.87-20.95 1.38-42.99 10.3-43.42m-.06-1.32c-13.34.64-11.87 38.47-11.5 46.13l13.68-.66 13.68-.66c-.36-7.66-2.53-45.45-15.86-44.81z"/><path fill="#4A298F" d="m67.68 115.057 29.864-1.436.12 2.497-29.864 1.436z"/><path fill="#3A1E78" d="m79.771 68.908 1.319-.064 2.185 45.466-1.319.063z"/><path fill="#3A1E78" d="m70.447 85.487 20.531-4.267.27 1.292-20.533 4.268zM69.424 98.588l.06-1.319 24.824 1.111-.059 1.319z"/><path fill="#FFC533" d="M121.71 68.87c13.33.64 11.86 38.46 11.5 46.13l-13.68-.66-13.68-.66c.36-7.66 2.53-45.45 15.86-44.81z"/><path opacity=".33" fill="#FFC533" d="M132.31 101.52c-4.83 3.77-10.65 6.19-16.44 8.06-2.93.94-6.47 2.01-9.93 2.23-.04.74-.07 1.38-.1 1.88l13.68.66 13.68.66c.12-2.45.35-7.96.17-14.36-.34.29-.7.59-1.06.87z"/><path fill="#3A1E78" d="M121.65 70.19c8.93.43 11.17 22.47 10.3 43.42l-12.36-.59-12.36-.59c1.14-20.95 5.49-42.66 14.42-42.24m.06-1.32c-13.33-.64-15.5 37.15-15.87 44.81l13.68.66 13.68.66c.37-7.66 1.84-45.49-11.49-46.13z"/><path fill="#4A298F" d="m104.458 116.13.12-2.497 29.864 1.435-.12 2.497z"/><path fill="#3A1E78" d="m118.857 114.32 2.185-45.466 1.319.064-2.185 45.465z"/><path fill="#3A1E78" d="m110.907 82.523.269-1.292 20.532 4.267-.269 1.292zM107.844 98.374l24.825-1.11.06 1.318-24.826 1.111z"/><circle transform="rotate(-48.479 100.868 58.513)" fill="#FFC533" cx="100.87" cy="58.51" r="7.84"/><path opacity=".33" fill="#FFC533" d="M108.7 58.07a7.56 7.56 0 0 0-.67-2.74c-.15.52-.34 1.03-.57 1.54-1.85 4.07-5.89 7.05-10.36 8.5 1.24.69 2.69 1.05 4.21.96 4.32-.23 7.63-3.93 7.39-8.26z"/><path fill="#3A1E78" d="M100.51 52.01c3.59-.2 6.67 2.55 6.87 6.14.2 3.59-2.55 6.67-6.14 6.87-3.59.2-6.67-2.55-6.87-6.14a6.519 6.519 0 0 1 6.14-6.87m-.08-1.32c-4.32.24-7.63 3.94-7.39 8.27.24 4.32 3.94 7.63 8.27 7.39 4.32-.24 7.63-3.94 7.39-8.27a7.829 7.829 0 0 0-8.27-7.39z"/><path fill="#3A1E78" d="m99.814 51.449 1.318-.074.805 14.357-1.317.074z"/><path fill="#3A1E78" d="m93.68 58.332 14.308-.802.074 1.318-14.307.802z"/><path fill="#4A298F" d="M89.51 193.65h23.12v40.37H89.51z"/><path fill="#3A1E78" d="M88.23 192.37v41.65h1.28v-40.37h23.12v40.37h1.28v-41.65H88.23z"/><path fill="#3A1E78" d="M103.98 195.92c-1.05 0-1.91.57-1.91 1.28v21.61c0 .65.78 1.17 1.75 1.17h3.67c.97 0 1.75-.52 1.75-1.17v-19.37c0-1.94-2.36-3.52-5.26-3.52zM107.49 221.32h-3.67c-.97 0-1.75.52-1.75 1.17v9.26h7.17v-9.26c0-.65-.79-1.17-1.75-1.17zM92.91 199.44v19.37c0 .65.78 1.17 1.75 1.17h3.67c.97 0 1.75-.52 1.75-1.17V197.2c0-.71-.85-1.28-1.91-1.28-2.91 0-5.26 1.58-5.26 3.52zM98.32 221.32h-3.67c-.97 0-1.75.52-1.75 1.17v9.26h7.17v-9.26c.01-.65-.78-1.17-1.75-1.17z"/><path fill="#FFC533" d="m99.59 30.39 1.66-1.72 1.66 1.72c8.47 8.76 45.56 32.33 55.41 36.98l.21-.46c-9.24-4.2-47.22-28.29-55.8-37.17l-1.66-1.72-1.66 1.72c-8.58 8.87-46.56 32.96-55.8 37.17l.27.6c9.39-4.31 47.16-28.28 55.71-37.12z" opacity=".54"/><path fill="#4A298F" d="M101.07 234.02v19.66H22.09l-2.17-8.44h-7l-1.56-11.22z"/><path fill="#3A1E78" d="M19.92 245.24h81.15v1.93l-80.13 2.04z"/><path fill="#4A298F" d="m13.25 221.66-.97 3 3.14 16.35 1.5-.29 1.49-.28-3.15-16.36zM25.98 222.95l-1.57 2.74-.29 16.65 1.52.03 1.52.02.29-16.65zM36.96 222.27l-1.21 2.92 1.79 16.55 1.52-.16 1.51-.17-1.8-16.55zM50.59 221.57l-1.71 2.65-1.19 16.61 1.52.11 1.52.11 1.18-16.62zM64.47 221.36l-2 2.45-3.02 16.37 1.49.28 1.5.28 3.02-16.38z"/><path fill="#4A298F" d="m34.7 230.14-.08-.01-13.45-1.58-9.71 1.57-.21-1.3 9.89-1.6.09.01 13.47 1.57 20.84-2.27h.07L71 228.06l-.13 1.32-15.32-1.52zM101.07 234.02v19.66h78.99l2.17-8.44h6.99l1.57-11.22z"/><path fill="#3A1E78" d="M182.23 245.24h-81.16v1.93l80.14 2.04z"/><path fill="#4A298F" d="m188.9 221.66.97 3-3.15 16.35-1.49-.29-1.49-.28 3.15-16.36zM176.17 222.95l1.57 2.74.29 16.65-1.52.03-1.52.02-.29-16.65zM165.19 222.27l1.21 2.92-1.8 16.55-1.51-.16-1.51-.17 1.8-16.55zM151.56 221.57l1.71 2.65 1.18 16.61-1.51.11-1.52.11-1.18-16.62zM137.68 221.36l2 2.45 3.02 16.37-1.49.28-1.5.28-3.02-16.38z"/><path fill="#4A298F" d="m167.45 230.14.07-.01 13.46-1.58 9.71 1.57.21-1.3-9.89-1.6-.09.01-13.47 1.57-20.84-2.27h-.07l-15.39 1.53.13 1.32 15.32-1.52z"/><path fill="#927DD0" d="M83.37 234.02v-5.3l-6.03 20.75v9.69h1.9l4.19-18.86z"/><path fill="#AC9BDB" d="M83.37 234.02h17.71v25.14H83.37z"/><path fill="#AC9BDB" d="M81.37 241.45h19.71v17.71H81.37z"/><path fill="#AC9BDB" d="M79.24 250.04h21.84v9.12H79.24z"/><path fill="#927DD0" d="m79.24 250.04 2.13-1.15h19.7v1.15zM81.3 241.45l2.13-1.15h17.64v1.15z"/><path fill="#AC9BDB" d="M83.37 228.72h-9.92l-6.03 20.75h9.92zM67.42 249.47h9.92v9.69h-9.92z"/><path fill="#927DD0" d="M118.78 234.02v-5.3l6.03 20.75v9.69h-1.9l-4.19-18.86z"/><path fill="#AC9BDB" d="M101.07 234.02h17.71v25.14h-17.71z"/><path fill="#AC9BDB" d="M101.07 241.45h19.71v17.71h-19.71z"/><path fill="#AC9BDB" d="M101.07 250.04h21.84v9.12h-21.84z"/><path fill="#927DD0" d="m122.91 250.04-2.13-1.15h-19.71v1.15zM120.85 241.45l-2.13-1.15h-17.65v1.15z"/><path fill="#AC9BDB" d="M118.78 228.72h9.92l6.03 20.75h-9.92zM124.81 249.47h9.92v9.69h-9.92z"/></svg>