<svg xmlns="http://www.w3.org/2000/svg" viewBox="0 0 629.3 354" style="enable-background:new 0 0 629.3 354" xml:space="preserve"><style>.st0{display:none}.st4{display:inline;fill:#fff}.st5{font-family:&apos;Poppins-Regular&apos;}.st8{font-size:9px}.st14,.st15,.st9{display:inline}.st14,.st15{fill:none}.st15{fill:#272761}.st17{display:none}.st17,.st18{fill:#272761}.st20{display:inline;fill:#2e2e6b}.st21,.st22{display:none;fill:#1f1f47}.st22{fill:#252557}.st23{fill:#9855c1}.st24{fill:#7b3ca5}.st25{fill:#8441b3}.st26,.st27{fill:#ffc533}.st27{opacity:.33}.st28{fill:#3a1e78}.st29{fill:#4a298f}.st30{opacity:.55;fill:#ffc533}.st32{fill:#927dd0}.st33{fill:#ac9bdb}.st34{fill:#fff}.st36{fill:#ca9ce6}.st37{fill:#871a6c}.st40{opacity:.22;fill:#4a298f}.st41{fill:#846596}.st43{fill:#ff7d1e}.st44{fill:#ffbf2b}.st46{fill:#45393c}.st47{fill:#090914}.st48{fill:#f1f1f1}.st49{fill:#000518}.st52{fill:#f7fffa}.st53{fill:#fe798c}.st54{fill:#7f7f4f}.st56{fill:#ed8583}.st57{fill:#e3af2d}.st58{font-size:5.5694px}.st60{font-family:&apos;Alegreya-Bold&apos;}.st61{font-size:24.0104px}.st62{letter-spacing:-1}.st63{letter-spacing:-2}.st69,.st70{opacity:.5;fill:#fff}.st70{fill:#e86900}.st71{fill:#00933e}.st72{fill:#8b4b2c}.st73{fill:#b3795d}.st74{fill:#191936}.st75{fill:#fb5d36}.st77{fill:#e86900}.st78{opacity:.5;fill:#ff9d07}.st84{fill:#522840}.st86{fill:#fff9f2}.st87{fill:#323273}.st88,.st89,.st90{stroke-linecap:round;stroke-miterlimit:10}.st88{fill:#c1c1c1;fill-opacity:.6;stroke:#e3e3e3;stroke-width:1.5;stroke-linejoin:round}.st89,.st90{fill:none;stroke:#250a22;stroke-width:2.0052}.st90{stroke-width:1.0026}.st91{fill:#e5e5e5}</style><g id="OBJECTS"><linearGradient id="SVGID_1_" gradientUnits="userSpaceOnUse" x1="334.797" y1="370.889" x2="294.892" y2="-13.528"><stop offset="0" style="stop-color:#fb4c4e"/><stop offset=".01" style="stop-color:#ee4c57"/><stop offset=".04" style="stop-color:#cc4a6f"/><stop offset=".074" style="stop-color:#af4984"/><stop offset=".112" style="stop-color:#984894"/><stop offset=".154" style="stop-color:#8648a1"/><stop offset=".205" style="stop-color:#7947aa"/><stop offset=".272" style="stop-color:#7247b0"/><stop offset=".424" style="stop-color:#7047b1"/><stop offset=".446" style="stop-color:#7049b1"/><stop offset=".616" style="stop-color:#7050b1"/><stop offset=".998" style="stop-color:#7052b1"/></linearGradient><path class="st18" d="M122 291c1-1.7 1.9-3.4 3-5 .2-.3.6-.7.7-1.1.1-.4 0-.3-.1-.6-.2-.5-.2-1.1-.3-1.6-.2-.5-.4-.9-.2-1.5.3-.9 1.7-1.3 2.5-1.3-.5.3-1.2.6-1.3 1.3 0 .4.3 1.4.7 1.4.4 0 .6-.7.7-.9.3-.6.6-1.2 1.1-1.7.4-.5.8-1 1.4-.9.5 0 1 .2 1.3.5-.9-.1-1.8.4-2.3 1.1-.3.4-.8 1.3-.5 1.8.6-.7.9-1.6 1.9-1.8.7-.1 1.4 0 2 .5-1-.2-2.8 1.2-2.9 2.3 1.1-.9 2.6-1.8 3.6-.4-1-.2-1.9.4-2.7 1 1-.3 1.9-.6 2.7.3-.6-.4-1.5-.2-2.1 0-.6.2-.9.3-1.3.9-.3.4-.7 1.1-1.1 1.2-.3.1-.6-.1-.8.1-.4.2-.6.9-.7 1.3-.4.9-.7 1.8-1.1 2.8-.3.6-.6 1.2-.8 1.9-.1.3-.4.8-.4 1.1l-3-2.7z"/></g></svg>