<svg xmlns="http://www.w3.org/2000/svg" viewBox="0 0 390 390" xml:space="preserve"><linearGradient id="a" gradientUnits="userSpaceOnUse" x1="215.127" y1="388.889" x2="175.222" y2="4.472"><stop offset="0" style="stop-color:#fb4c4e"/><stop offset=".01" style="stop-color:#ee4c57"/><stop offset=".041" style="stop-color:#cc4a6f"/><stop offset=".074" style="stop-color:#af4984"/><stop offset=".112" style="stop-color:#984894"/><stop offset=".154" style="stop-color:#8648a1"/><stop offset=".205" style="stop-color:#7947aa"/><stop offset=".272" style="stop-color:#7247b0"/><stop offset=".424" style="stop-color:#7047b1"/><stop offset=".446" style="stop-color:#7049b1"/><stop offset=".616" style="stop-color:#7050b1"/><stop offset=".998" style="stop-color:#7052b1"/></linearGradient><path fill="#F7FFFA" d="M124.6 130.28c-1.65 2.83-2.86 5.94-3.37 9.18-.45 2.87-1.12 7.04.86 9.49 1.12 1.38 2.89 1.86 4.6 1.49 1.68-.36 2.98-1.58 3.93-2.95 1.95-2.81 3.24-6.18 4.35-9.39-1.55-.43-3.1-.85-4.64-1.28-.65 1.98-1.23 3.98-1.72 6.01-.46 1.89-.94 3.84-.95 5.79-.01 2.01.52 4.23 2.05 5.64 1.47 1.35 3.54 1.6 5.36.89 3.75-1.47 5.6-5.55 7.03-9.03 1.51-3.67 2.91-7.37 4.21-11.11.55-1.57-.62-3.36-2.14-3.78-1.68-.46-3.24.57-3.78 2.14-1 2.98-2.07 5.93-3.19 8.86-.55 1.42-1.14 2.83-1.68 4.26-.38 1.01-.97 2.41-1.54 3.06-.3.34-.63.55-.94.68-.04.02-.36.2-.04 0 .08-.05.19.09.25.08.09-.02-.14-.32-.07-.13a4.22 4.22 0 0 1-.23-.79c-.12-.73-.04-1.58.06-2.31.44-3.03 1.15-6.03 1.97-8.98.83-3-3.72-4.23-4.64-1.28-.74 2.34-1.68 4.63-2.79 6.82-.46.91-.89 1.75-1.7 2.38-.09.07-.38.03-.37.02.05-.01.21.23.15.15-.08-.12-.14-.49-.17-.61-.81-4.46.1-9.58 1.92-13.68.82-1.85-1.71-3.46-2.78-1.62zM145.93 116.4c.65 3.09-8.25 12.71-10.55 11.88-5.09-1.83-5.62-15.05-3.02-16.83 2.61-1.79 13.12 2.78 13.57 4.95z"/><path fill="#F7FFFA" d="M138.01 115.45c-2.48 4.86-4.16 10.05-5.59 15.31-.72 2.65-1.32 5.32-1.95 7.99-.71 2.96-1.41 5.85-1.61 8.9-.14 2 2.57 2 3.21.43 2.07-5.04 2.94-10.68 4.1-15.99 1.12-5.12 2.42-10.24 4.58-15.04.8-1.82-1.8-3.43-2.74-1.6z"/><path fill="#090914" d="M179.13 335.76s130.4 48.44 171.72-24.37c41.32-72.8-52.39-166.24-114.38-115.11-30.03 24.77-21.76 56.55-2.85 69.79 8.04 5.63 19.18 3.22 24.21-5.21 3.54-5.93 3.14-13.41-1.07-18.89-7.91-10.3-16.2-27.25 8.83-33.12 47.3-11.1 99.38 50.49 66.58 92.53s-124.74 31.68-156.01 3.3"/><path fill="#FFC533" d="M312.23 205.6s43.25 24.77 46.05 20.78c2.79-3.99 1.27-15.54 1.27-15.54s13.69-7.92 7.18-15.2c-6.5-7.28-54.43-8.81-54.43-8.81l-.07 18.77z"/><path fill="#3A1E78" d="m312.3 186.83-.07 18.77s2.55 1.46 6.39 3.58c3.02-1.59 14.1-7.83 26.7-19.7-15.34-2.07-33.02-2.65-33.02-2.65z"/><path fill="#FFC533" d="M307.21 206.21s44.78 21.9 43.04 26.46c-1.74 4.55-12.15 9.77-12.15 9.77s1.12 15.77-8.55 14.48c-9.68-1.3-37.83-40.11-37.83-40.11l15.49-10.6z"/><path fill="#3A1E78" d="M311.55 241.65c1.67-8.84 3.24-20.08 1.76-25.83l3.46-4.78c-5.54-2.85-9.56-4.82-9.56-4.82l-15.49 10.59c0-.01 9.8 13.49 19.83 24.84z"/><path fill="#FFC533" d="M299.02 193.97s-21.25-34.23-2.16-43.54c19.08-9.3 27.06 13.88 27.06 13.88s23.99-1.73 18.67 18.95c-5.32 20.68-35.7 18.12-35.7 18.12l-7.87-7.41z"/><path fill="#E3AF2D" d="M309.39 170.47s24.31-15.88 31.86-.26c7.54 15.63-8.21 25.66-8.21 25.66s12.28-19.83 3.16-24.67c-9.11-4.83-26.81-.73-26.81-.73z"/><path fill="#FFC533" d="M289.46 206.09s-29.54-9.13-35.18 7.77c-5.64 16.9 20.3 20.76 23.08 26.19 2.78 5.43 20.16 15.67 25.11 6.16 3.34-6.41 1.63-19.79.16-27.82-.71-3.88-1.37-6.52-1.37-6.52l-11.8-5.78z"/><path fill="#E3AF2D" d="M274.86 229.98c-3.33 3.43 5.32 25.47 20.75 21.66 19.52-4.82 8.15-27.5 8.15-27.5s3.18 24.81-10.63 21.98c-13.8-2.84-18.27-16.14-18.27-16.14zM302.63 218.39s-18.11-9.2-16.95-14.12c1.17-4.92 10.9-18.36 15.16-16.21 4.26 2.15 17.39 8.1 15.4 13.19-1.98 5.08-12.07 20.21-13.61 17.14z"/></svg>