<svg xmlns="http://www.w3.org/2000/svg" viewBox="0 0 390 390" xml:space="preserve"><linearGradient id="a" gradientUnits="userSpaceOnUse" x1="215.127" y1="388.889" x2="175.222" y2="4.472"><stop offset="0" style="stop-color:#fb4c4e"/><stop offset=".01" style="stop-color:#ee4c57"/><stop offset=".041" style="stop-color:#cc4a6f"/><stop offset=".074" style="stop-color:#af4984"/><stop offset=".112" style="stop-color:#984894"/><stop offset=".154" style="stop-color:#8648a1"/><stop offset=".205" style="stop-color:#7947aa"/><stop offset=".272" style="stop-color:#7247b0"/><stop offset=".424" style="stop-color:#7047b1"/><stop offset=".446" style="stop-color:#7049b1"/><stop offset=".616" style="stop-color:#7050b1"/><stop offset=".998" style="stop-color:#7052b1"/></linearGradient><circle fill="#EBE1DC" cx="195" cy="195" r="137.75"/><path opacity=".15" fill="#522840" d="M332.76 194.99c0 76.08-61.69 137.76-137.76 137.76-76.08 0-137.74-61.69-137.74-137.76 0-2.59.08-5.18.22-7.72 3.64 64.61 57.19 115.91 122.74 115.91 67.89 0 122.96-55.07 122.96-122.96 0-65.55-51.3-119.1-115.91-122.74 2.54-.14 5.13-.22 7.72-.22 76.08 0 137.77 61.66 137.77 137.73z"/><g opacity=".1" fill="#522840"><path d="M134.33 118.22c4.35 10.67 25.32 12.22 46.86 3.45 21.53-8.77 35.46-24.53 31.12-35.2s-25.32-12.22-46.86-3.45c-21.53 8.77-35.46 24.53-31.12 35.2zM208.3 193.54c2.92 13.68 12.87 23.15 22.21 21.15 9.34-2 14.55-14.71 11.63-28.38-2.92-13.68-12.87-23.15-22.21-21.15-9.35 1.99-14.55 14.7-11.63 28.38zM260.41 242.12c1.8 8.44 10.84 13.66 20.19 11.67 9.34-2 15.46-10.46 13.65-18.9-1.8-8.44-10.84-13.66-20.19-11.67-9.34 1.99-15.45 10.45-13.65 18.9zM278.45 157.49c7.15 8.91 16.75 13.09 21.43 9.33 4.69-3.76 2.69-14.03-4.46-22.95-7.15-8.91-16.75-13.09-21.43-9.33-4.69 3.77-2.69 14.04 4.46 22.95zM161.52 291.71c4.44 17.38 27.61 26.47 51.76 20.3s40.13-25.25 35.69-42.63c-4.44-17.38-27.61-26.47-51.76-20.3-24.15 6.16-40.12 25.25-35.69 42.63zM89.03 201.6c4.19 16.42 16.18 27.53 26.77 24.83 10.59-2.71 15.78-18.21 11.59-34.62-4.19-16.42-16.18-27.53-26.77-24.83-10.59 2.7-15.78 18.2-11.59 34.62z"/></g></svg>