<svg xmlns="http://www.w3.org/2000/svg" xmlns:xlink="http://www.w3.org/1999/xlink" viewBox="0 0 629.34 354" xml:space="preserve"><linearGradient id="a" gradientUnits="userSpaceOnUse" x1="334.797" y1="370.889" x2="294.892" y2="-13.528"><stop offset="0" style="stop-color:#fb4c4e"/><stop offset=".01" style="stop-color:#ee4c57"/><stop offset=".041" style="stop-color:#cc4a6f"/><stop offset=".074" style="stop-color:#af4984"/><stop offset=".112" style="stop-color:#984894"/><stop offset=".154" style="stop-color:#8648a1"/><stop offset=".205" style="stop-color:#7947aa"/><stop offset=".272" style="stop-color:#7247b0"/><stop offset=".424" style="stop-color:#7047b1"/><stop offset=".446" style="stop-color:#7049b1"/><stop offset=".616" style="stop-color:#7050b1"/><stop offset=".998" style="stop-color:#7052b1"/></linearGradient><defs><path id="b" d="M0 0h629.34v354H0z"/></defs><clipPath id="c"><use xlink:href="#b" overflow="visible"/></clipPath><path opacity=".15" clip-path="url(#c)" fill="#FFF9F2" d="M332.2 263.94c-4.75 0-7.49.87-9.71 2.26-2.81-9.77-11.96-14.67-22.15-14.67-7.56 0-15.69 2.7-22.24 8.11-3.13-9.6-13.32-15.79-23.21-15.79-3.8 0-7.56.92-10.85 2.91-6.6-16.81-25.51-30.43-47.64-33.92-23.44-3.7-49.21 4.16-63.24 19.28-1.67-7.28-15.41-11.88-23.57-8.14 9.98-7.06 13.54-19.11 8.52-28.87-5.02-9.75-18.27-16.54-31.73-16.24-11.59.25-22.64 5.75-28.24 13.64 1.62-4.5.6-9.59-2.98-13.36-4.7-4.94-14.23-4.96-21.8-3.25 2.04-7.39 1.72-15.31-2.11-22.26-3.83-6.94-11.42-12.78-20.76-14.77-9.34-1.99-20.25.31-26.2 6.28l-5.62 248.01h215.76c13.64 13 34.13 20.87 60.86 20.87 56.81 0 114.13-46.8 114.13-102.06-.01-24.11-10.27-48.03-37.22-48.03z"/><path opacity=".15" clip-path="url(#c)" fill="#FFF9F2" d="M388.03 222.37c-5.57.13-10.46.79-13.32 1.67-24.08 7.44-36.53 33.21-38.98 56.68-2.32 22.12.41 45.17 8.18 66.03 3.75 10.07 8.88 19.73 15.23 28.41 6.28 8.58 14.13 16.02 23.33 21.41 5.04 2.95 10.48 5.21 16.03 7.09l295.47-55.01-51.91-218.89c-5.85-5.94-22.46-6.87-36.02-3.11-13.56 3.77-23.72 11.26-28.34 18.76-4.62 7.5-4.36 15.01-2.47 22.03-10.8-1.57-23.32 2.25-30.6 8.21-6.74 5.52-6.41 12.47.39 16.23-7.79-3.58-18.43-5.61-30.06-4.85-12.53.81-26.04 5.17-33.06 11.47-7.02 6.3-6.17 14.26 3.07 17.56-11.32-2.84-28.39-1.74-41.06 2.9-12.66 4.64-21.65 12.55-22.62 19.88 1.76-13.32-18.22-16.82-33.26-16.47z"/></svg>