<svg xmlns="http://www.w3.org/2000/svg" viewBox="0 0 629.3 354" style="enable-background:new 0 0 629.3 354" xml:space="preserve"><style>.st0{display:none}.st4{display:inline;fill:#fff}.st5{font-family:&apos;Poppins-Regular&apos;}.st8{font-size:9px}.st9{display:inline}.st14{fill:none}.st15,.st17{fill:#272761}.st17{display:none}.st19{fill:#2e2e6b}.st20{fill:#1f1f47}.st21{fill:#252557}.st22{fill:#9855c1}.st23{fill:#7b3ca5}.st24{fill:#8441b3}.st25,.st26{fill:#ffc533}.st26{opacity:.33}.st27{fill:#3a1e78}.st28{fill:#4a298f}.st29{opacity:.55;fill:#ffc533}.st31{fill:#927dd0}.st32{fill:#ac9bdb}.st33{fill:#fff}.st35{fill:#ca9ce6}.st36{fill:#871a6c}.st39{opacity:.22;fill:#4a298f}.st40{fill:#846596}.st42{fill:#ff7d1e}.st43{fill:#ffbf2b}.st45{fill:#45393c}.st46{fill:#090914}.st47{fill:#f1f1f1}.st48{fill:#000518}.st51{fill:#f7fffa}.st52{fill:#fe798c}.st53{fill:#7f7f4f}.st55{fill:#ed8583}.st56{fill:#e3af2d}.st58{font-size:5.5694px}.st60{font-family:&apos;Alegreya-Bold&apos;}.st61{font-size:24.0104px}.st62{letter-spacing:-1}.st63{letter-spacing:-2}.st69,.st70{opacity:.5;fill:#fff}.st70{fill:#e86900}.st71{fill:#00933e}.st72{fill:#8b4b2c}.st73{fill:#b3795d}.st74{fill:#191936}.st75{fill:#fb5d36}.st77{fill:#e86900}.st78{opacity:.5;fill:#ff9d07}.st84{fill:#522840}.st86{fill:#fff9f2}.st88{display:none;fill:#252557}.st89{display:inline;fill:#323273}.st90,.st91,.st92{stroke-linecap:round;stroke-miterlimit:10}.st90{fill:#c1c1c1;fill-opacity:.6;stroke:#e3e3e3;stroke-width:1.5;stroke-linejoin:round}.st91,.st92{fill:none;stroke:#250a22;stroke-width:2.0052}.st92{display:inline;stroke-width:1.0026}.st93{fill:#e5e5e5}</style><path class="st15" d="M194.5 222.4c-.2-.1-.6-.2-1-.3 0 0-.1 0-.4-.1-.2-.1-.6-.1-1-.2-.9-.1-2.2-.2-3.8 0-.8.1-1.6.4-2.5.7-.9.4-1.7.9-2.5 1.5-1.6 1.2-3.1 2.8-4.4 4.5-.7.8-1.3 1.7-1.9 2.5l-.9 1.2c-.3.4-.6.8-.9 1.1l-.4.4-.2.2-.2.2c-.1.1-.3.2-.4.2-.1 0-.1.1-.2.1s-.1.1-.2.1c-.3.1-.6.1-.9.1-.3 0-.7 0-1.1-.1-.8-.1-1.6-.1-2.4-.1h-.5c0-.2 0-.6.2-.9.1-.4.4-.9.7-1.2l.1-.1.1-.1c.1-.1.2-.2.4-.2.2-.1.5-.3.8-.4l.9-.3.9-.3c.3-.1.6-.3.7-.6.2-.2.2-.5.3-.7.1-.5.1-.8.2-1.1v-.4c0-.6-.1-.6-.1 0 0 0 0 .1-.1.4-.1.2-.1.6-.3 1l-.3.6c-.2.2-.4.3-.6.4-.5.2-1.1.2-1.7.4l-.9.3c-.1.1-.3.1-.4.2-.1 0-.1.1-.2.1l-.2.2c-.5.4-.9 1-1.1 1.5-.2.5-.3 1-.3 1.3h-.4c-.6.1-1.1.1-1.5.2-.4.1-.7.2-.9.2l-.6.3c0-2.4.1-4.8.1-7.2 0-.8.1-1.5.3-2.3.1-.2.1-.4.2-.5l.1-.2.1-.3c0-.1.1-.1.1-.2 0 0 .1 0 .1.1.1 0 .2.1.3.1.1 0 .2 0 .3.1h.6c.5 0 1.2-.1 1.8-.4.7-.3 1.4-.7 2-1.2.7-.5 1.3-1.1 1.9-1.6.6-.6 1.2-1.1 1.8-1.5l.9-.6c.3-.1.6-.3.9-.3.6-.1 1.1-.1 1.4-.1.2 0 .3.1.4.1h.1c.4.1.5.2.6.2 0 0-.1-.1-.5-.3 0 0-.1 0-.1-.1-.1 0-.2-.1-.4-.1-.4-.1-.9-.2-1.5-.1-.3.1-.7.1-1 .3-.3.1-.7.3-1 .5-.7.4-1.4.9-2 1.4-.7.5-1.3 1-2 1.4-.6.4-1.3.7-1.8.9-.9.3-1.6.2-1.9.1.9-1.3 1.8-2.6 2.6-3.9.9-1.4 1.7-2.8 2.3-4 .3-.6.5-1.2.6-1.7.1-.3.1-.5.1-.8v-1c0-.1 0-.2-.1-.2 0-.2-.1-.3-.1-.4 0-.1-.1-.2-.1-.2v-.1c-.1-.1-.1-.2-.1-.3l-.2-.2c-.1-.1-.1-.1-.1-.2l-.1-.1c-.2-.1-.2-.2-.3-.2 0 0 0 .1.1.3l.1.1c0 .1.1.1.1.2s.1.1.1.2.1.2.1.2v.1c0 .1 0 .1.1.2 0 .1.1.2.1.4v.4c0 .2-.1.4-.1.6-.1.2-.1.4-.2.7-.2.5-.4 1-.7 1.6-.6 1.1-1.5 2.3-2.6 3.6-1 1.3-2.2 2.6-3.4 4-.3.4-.6.7-.9 1.1l-.2.3-.2.3c-.1.2-.2.5-.3.7-.4.9-.6 1.9-.7 2.8-.1.9-.1 1.8-.1 2.5s-.1 1.3-.2 1.8l-.3.6c-.2-.7-.4-1.4-.6-2.2-.2-.6-.4-1.3-.8-2l-.2-.3c-.1-.1-.1-.2-.2-.4l-.2-.3-.2-.2-.9-.9c-.6-.6-1.2-1-1.8-1.3-.2-.2-.5-.3-.7-.5-.2-.2-.4-.3-.5-.5-.1-.1-.2-.2-.2-.3l-.1-.1-.1-.2c-.1-.1-.1-.2-.2-.3l-.1-.1c0-.1-.1-.1-.1-.1-.1-.2-.1-.3-.1-.5s0-.3.1-.5c0-.1 0-.1.1-.1s.2-.1.3-.2c.1-.1.2-.2.4-.3s.2-.2.3-.4c0 0 0-.1.1-.1l.1-.1c.1-.1.1-.1.1-.2l.2-.2c.3-.3.8-.6 1.4-1 .6-.4 1.4-.8 2.2-1.4.4-.3.8-.7 1.1-1.1l.1-.2c0-.1.1-.1.1-.2.1-.1.1-.2.2-.4s.2-.5.2-.8c.2-1 0-2-.2-2.9-.2-.9-.4-1.7-.4-2.3 0-.3-.1-.6 0-.9 0-.3.1-.5.1-.7 0-.1.1-.2.1-.2 0-.1.1-.1.1-.2l.1-.1.2-.2.1-.1.1-.1s-.1 0-.2.1c-.1 0-.1.1-.2.1l-.2.2-.1.1c0 .1-.1.1-.1.2-.1.1-.1.2-.1.2-.1.2-.2.4-.2.7-.1.3-.1.6-.1 1 0 .7.1 1.5.2 2.4.1.9.1 1.8-.1 2.6-.1.2-.1.4-.2.6-.1.1-.1.2-.1.2l-.1.1-.1.1-.2.2c-.1.1-.2.1-.2.2-.1.1-.2.1-.2.2-.1.1-.2.1-.2.2-.7.4-1.5.7-2.2 1.1.3-.7.6-1.5.6-2.6v-.4c0-.1-.1-.3-.1-.4-.1-.1-.1-.2-.1-.4-.1-.1-.1-.2-.2-.3-.2-.4-.5-.8-.7-1.1-.5-.6-1-1.2-1.6-1.7-.6-.5-1.1-.9-1.7-1.4-2.2-1.7-4.4-3-6.1-4.1-.2-.1-.4-.3-.6-.4-.2-.1-.4-.3-.6-.4-.4-.3-.7-.6-1-.9-.6-.6-1-1.1-1.3-1.7s-.4-1-.6-1.3c-.1-.3-.2-.5-.2-.5-.2-.6-.3-1-.4-1.3 0-.1 0-.1.1-.2 0-.1.1-.1.1-.1v-.1h-.2c-.1 0-.1.1-.1.1l-.2.2v.1c0 .3.1.8.2 1.4 0 0 0 .2.1.5s.2.8.4 1.4c.2.6.7 1.3 1.2 2 .3.3.6.7 1 1 .2.2.4.3.6.5.2.2.4.4.6.5.8.7 1.7 1.4 2.7 2.2.1.1.2.2.4.3-1-.1-2.3-.4-3.8-.5-.5-.1-1 .1-1.4.2-.4.1-.8.3-1.2.5-.7.4-1.4.8-1.9 1.1-.6.3-1 .5-1.4.6h-.5c-.3-.1-.5-.2-.5-.2s.1.2.4.3h.6c.4 0 .9-.2 1.5-.4s1.3-.6 2-.9c.4-.1.7-.3 1.1-.4.4-.1.7-.1 1.1-.1 1.3.2 2.6.6 3.6.8.5.1 1 .2 1.3.3.3.1.6.1.7.1h.2l.6.6c.5.4.9.9 1.4 1.4.4.5.9 1 1.2 1.5.2.2.3.5.4.7.1.1.1.2.1.3v.2c0 .1 0 .2-.1.2 0 0 0 .1-.1.2l-.1.2c-.1.2-.2.4-.4.7-.3.5-.8 1-1.2 1.5-.5.6-1 1.2-1.5 2.2-.2.5-.4 1-.4 1.5v.8c0 .3.1.6.1.8 0 .1.1.2.1.4 0 .1.1.2.1.4.1.2.2.4.3.7l.2.3.2.3c.1.2.2.4.4.6.6.7 1.2 1.4 1.7 1.8.6.5 1 .8 1.3 1.2.1.2.3.3.4.5l.1.1.1.1v.2c.2.4.3.9.4 1.4.2 1 .4 2 .4 2.8.1.9.1 1.7.1 2.3 0 1.3-.1 2.2-.2 2.4-.1.6-.1 1-.1 1.5 0 .4.1.8.2 1.2.1.4.2.6.3 1 0 .1.1.1.1.2v.7c-.1.4-.2.9-.4 1.4-.1-.1-.2-.3-.2-.4-.1-.1-.1-.1-.1-.2s-.1-.1-.1-.2c-.1-.2-.3-.5-.4-.9s-.3-.8-.5-1.4c-.2-.6-.4-1.2-.8-1.9s-1-1.4-1.7-2c-.2-.1-.4-.3-.6-.4l-.6-.3c-.2-.1-.4-.2-.6-.2-.2-.1-.4-.1-.6-.2-.8-.2-1.6-.3-2.3-.3h-1.5v-.2c.1-.4.1-.9.2-1.5s.1-1.3 0-2c0-.2-.1-.4-.1-.6-.1-.2-.1-.4-.2-.6-.1-.4-.2-.7-.4-1-.2-.7-.5-1.4-.7-2-.2-.6-.5-1.2-.7-1.7-.2-.5-.3-.9-.4-1.2s-.2-.5-.2-.5c-.2-.6-.3-.6-.1 0 0 0 .1.2.1.5.1.3.2.7.3 1.3s.3 1.1.5 1.8.4 1.4.5 2.1c.1.4.2.7.2 1 .1.2.1.3.1.5v.5c0 .6-.1 1.3-.2 1.8-.1.6-.2 1-.3 1.4 0 .2-.1.3-.1.4h-1.2l-.4-.1-.4-.1c-.1 0-.2-.1-.4-.1-.1 0-.1 0-.2-.1l-.1-.1c-.1 0-.2-.1-.3-.1-.1 0-.1-.1-.1-.1l-.2-.1c-.1-.1-.2-.2-.3-.2l-.3-.3c-.4-.4-.7-.9-1-1.5-.6-1.1-1-2.4-1.4-3.7-.2-.7-.4-1.4-.7-2.1 0-.1 0-.2.1-.2 0-.1 0-.3.1-.7 0-.4.1-.8.1-1.4.1-.6.1-1.3 0-2-.1-.8-.3-1.6-.7-2.4-.3-.6-.6-1.1-1-1.6s-.9-.9-1.3-1.3c-.9-.7-1.8-1.4-2.3-2.2-.6-.7-.7-1.6-.7-2.2V212.9c.1-.4.1-.7.1-.7s-.1.2-.2.6c0 0 0 .1-.1.2s-.1.4-.1.7v1.1c.1.4.2.9.5 1.3.5.9 1.4 1.7 2.2 2.5.4.4.8.8 1.1 1.3.3.5.6.9.7 1.4.4 1 .4 2.2.3 3.1-.4-.8-1-1.6-1.6-2.3-.5-.5-1-.8-1.4-1.2-.5-.3-.9-.7-1.4-1-.9-.6-1.7-1.1-2.4-1.5-.7-.5-1.3-.9-1.8-1.2-.2-.2-.5-.3-.6-.5-.2-.1-.3-.3-.5-.4-.1-.1-.2-.2-.3-.2l-.1-.1c-1-.8-1.4-1.3-1.5-1.2-.1.1.2.6 1.2 1.6l.1.1c.1.1.1.2.3.3.1.1.3.2.4.4.2.2.4.3.6.6.5.4 1 .9 1.7 1.4.7.5 1.4 1.1 2.2 1.8.4.3.8.7 1.2 1l.6.6.3.3.1.1.1.1c.7.8 1.1 1.9 1.5 3.1.4 1.2.6 2.5.9 3.8-.1-.2-.3-.4-.5-.6l-.6-.6c-.1-.1-.1-.1-.2-.1l-.1-.1-.1-.1c-.1-.1-.3-.1-.4-.2l-.9-.3c-.6-.2-1.2-.3-1.7-.5s-.9-.5-1.2-.8c-.1-.1-.1-.2-.2-.2-.1-.1-.1-.2-.1-.2-.1-.1-.1-.3-.2-.4-.1-.2-.1-.4-.1-.4-.2-.5-.2-.5-.1 0v.1c0 .1.1.2.1.3 0 .1.1.3.2.4 0 .1.1.2.1.3.1.1.1.2.2.3.2.4.7.8 1.2 1 .5.2 1.1.4 1.7.7.3.1.5.2.8.4.1.1.2.1.4.2.1 0 .1.1.1.1l.1.1c.2.2.4.4.5.6.1.2.3.4.4.6.5.8.8 1.4.9 1.5.1.1.2.2.2.3.1.1.1.1.2.1.2.6.3 1.1.6 1.7l.3.6c-.1 0-.1 0-.2-.1-.4-.1-.9-.1-1.3-.1-.5 0-1 0-1.4.1-.5.1-1 .2-1.4.4-.1.1-.3.1-.4.2-.1.1-.2.1-.3.2-.2.1-.4.3-.6.4-.3.2-.5.4-.8.7l-.2-.2c-.1-.1-.2-.2-.3-.2-.1 0-.2-.1-.6-.3-.3-.2-.7-.5-1.2-.8-.2-.2-.6-.3-.9-.5-.4-.1-.7-.2-1.2-.3H126.7l-.2.1c-.1 0-.2.1-.3.1-.4.2-.7.6-.9.8-.2.3-.4.5-.7.6-.2.1-.6.1-.9.1-.3-.1-.6-.2-.8-.3-.2-.2-.5-.3-.7-.5l-.9-.9c-.2-.2-.3-.4-.3-.4-.4-.5-.4-.5-.1.1l.2.4c.2.3.4.6.8 1 .2.2.4.4.7.6.2.2.6.4.9.5.4.1.8.2 1.2.1.4-.1.8-.4 1-.7s.5-.5.7-.6c.1 0 .1-.1.2-.1H127.2c.3 0 .6.1.8.3.2.1.5.3.7.5.4.3.8.7 1.1.9l.6.4c.2.1.3.2.5.2-.1.1-.2.3-.4.4-.6.7-1 1.2-1.7 1.6-.6.4-1.3.5-2 .5-.4 0-.7 0-1.1-.1-.4-.1-.7-.1-1-.2-.7-.2-1.3-.4-1.9-.7-1.2-.5-2.1-1-2.7-1.3-.7-.3-1-.5-1-.5-.7-.4-1.1-.5-1.1-.4 0 .1.3.3 1 .7 0 0 .4.2 1 .6.6.4 1.5 1 2.6 1.6.6.3 1.2.6 1.9.9.4.1.7.3 1.1.4.4.1.8.2 1.2.2.4.1.9.1 1.4 0 .5-.1 1-.2 1.4-.4.4-.2.9-.5 1.2-.8.4-.3.7-.6 1-.9.6-.6 1.2-1.1 1.8-1.5.2-.1.3-.2.5-.3.1-.1.2-.1.2-.1.1 0 .1 0 .2-.1.3-.1.6-.2 1-.2h1c.3.1.7.1 1 .2.6.2 1.3.4 1.9.7 1.2.5 2.3 1 3.2 1.4 2.2.8 4.6-.2 6.7.7.1 0 .2.1.3.1.1.1.2.1.2.1.1.1.1.1.2.1.1.1.1.1.2.1.2.2.4.4.5.7.2.6.4 1.5.7 2.6.1.5.3 1.1.6 1.6.1.1.1.3.2.4s.1.2.2.3l.3.6c.2.4.4.7.6 1 .2.3.3.5.5.7.3.4.5.7.6.8.7.9 1.4 1.5 2.1 1.9-.4 1.7-.9 3.3-1.5 4.9-.3-.1-.6-.1-.9-.1-.3 0-.6-.1-1-.1-.1 0-.3 0-.4-.1s-.3 0-.4-.1c-.6-.1-1.2-.2-1.7-.4s-1-.6-1.4-1c-.5-.4-.9-.8-1.4-1.2-.5-.4-.9-.7-1.4-1.1-.1-.1-.2-.2-.4-.2-.1-.1-.2-.1-.4-.2-.1-.1-.2-.1-.4-.2-.1-.1-.2-.1-.4-.1-.9-.3-1.7-.5-2.2-.7-.2-.1-.4-.2-.6-.2-.1-.1-.2-.1-.2-.1-.5-.2-.7-.5-.7-.4 0 0 0 .1.1.2l.2.2c.1.1.2.1.3.2 0 0 .1 0 .2.1s.3.2.6.3c.5.2 1.2.5 2.1.9.4.2.8.4 1.2.8.4.4.8.7 1.2 1.2.4.4.8.9 1.2 1.4.4.5 1 .9 1.6 1.3.6.4 1.3.6 2 .7.2.1.3.1.5.1s.3.1.5.1c.3.1.6.1.9.2.2 0 2.5-.1 3.7.3 1.2.4-.3 9.1-1.1 13.9-.8 4.7-5 21.6-6.2 24-.3.7-.6 3.2.3 3.2 3-.2 2.8.7 5.8.6 4.2-.2 10.5-2.3 14.3-1.8.8-2.4-.4-5.4-.8-7.8-.6-3.7-2.6-7.2-2.7-11-.2-4.2 3.2-8.3 1.7-12.5-1.4-3.8-3.1-6.8-1.9-11.1 1.1-3.9 3.8-6.3 7.7-7.1.6-.1 1.2-.3 1.8-.5.1-.1.3-.1.4-.2.1-.1.2-.2.4-.2.2-.2.5-.4.6-.6.3-.4.5-.8.7-1.2.2-.3.4-.6.6-.8.2-.2.4-.2.5-.3h.2c.3 0 .5.1.7.1.1 0 .2.1.2 0s-.1-.1-.2-.1c-.1-.1-.4-.2-.7-.2h-.2c-.2 0-.4.1-.7.2-.3.2-.5.5-.7.8-.2.3-.5.7-.8 1-.2.2-.3.3-.6.4-.1.1-.2.1-.3.2-.1.1-.2.1-.4.1-.5.2-1.1.2-1.7.3-.6.1-1.3.1-1.9.2-.7.1-1.4.3-2.1.6-1.4.7-2.4 1.8-3.2 2.9-.1.2-.3.4-.4.6-.1-.3-.1-.7-.1-1-.3-3.4-1.1-6.7-1.7-10 .1-.1.3-.2.4-.3.5-.4 1.3-.8 2.2-1.1.5-.2 1-.3 1.6-.4.3-.1.6-.1.9-.1h.8c1.2.1 2.5.5 3.7 1.1 1.2.6 2.5 1.3 3.6 1.8 1.2.6 2.3 1.1 3.3 1.4.5.1 1 .2 1.4.2h1.1c.2 0 .3 0 .4-.1.1 0 .2-.1.3-.1H184.9c.2-.1.3-.1.4-.1.1-.1.2-.1.3-.1.1-.1.2-.1.2-.1h-.2c-.1 0-.2 0-.3.1s-.2.1-.4.1h-1c-.3 0-.6 0-1-.1s-.8-.2-1.3-.4c-.9-.4-2-.9-3.1-1.6s-2.2-1.5-3.5-2.2c-1.2-.7-2.5-1.3-3.9-1.6h.3c.4 0 .9 0 1.4-.1.5-.1 1.1-.2 1.7-.4.1-.1.3-.1.4-.2.1-.1.3-.2.4-.2.3-.2.5-.4.7-.6l.3-.3.3-.3c.2-.2.4-.5.5-.7.3-.5.6-.9.8-1.4.2-.4.5-.9.8-1.3.5-.9 1-1.8 1.6-2.6 1.1-1.7 2.3-3.3 3.6-4.6 1.3-1.2 2.9-2.1 4.3-2.4 1.4-.4 2.7-.4 3.6-.4.4 0 .8.1 1 .1.2 0 .4.1.4.1.5.1.8.1 1 .1h.4c.2 1 .1 1-.1.9z" id="OBJECTS"/></svg>