<svg xmlns="http://www.w3.org/2000/svg" viewBox="0 0 629.3 354" style="enable-background:new 0 0 629.3 354" xml:space="preserve"><style>.st0{display:none}.st4{display:inline;fill:#fff}.st5{font-family:&apos;Poppins-Regular&apos;}.st8{font-size:9px}.st9{display:inline}.st14{fill:none}.st15{fill:#272761}.st18{fill:#2e2e6b}.st19{fill:#1f1f47}.st20{fill:#252557}.st21{fill:#9855c1}.st22{fill:#7b3ca5}.st23{fill:#8441b3}.st24,.st25{fill:#ffc533}.st25{opacity:.33}.st26{fill:#3a1e78}.st27{fill:#4a298f}.st28{opacity:.55;fill:#ffc533}.st30{fill:#927dd0}.st31{fill:#ac9bdb}.st32{fill:#fff}.st34{fill:#ca9ce6}.st35{fill:#871a6c}.st38{opacity:.22;fill:#4a298f}.st39{fill:#846596}.st41{fill:#ff7d1e}.st42{fill:#ffbf2b}.st44{fill:#45393c}.st45{fill:#090914}.st46{fill:#f1f1f1}.st47{fill:#000518}.st50{fill:#f7fffa}.st51{fill:#fe798c}.st52{fill:#7f7f4f}.st54{fill:#ed8583}.st55{fill:#e3af2d}.st57{font-size:5.5694px}.st59{font-family:&apos;Alegreya-Bold&apos;}.st60{font-size:24.0104px}.st61{letter-spacing:-1}.st62{letter-spacing:-2}.st68,.st69{opacity:.5;fill:#fff}.st69{fill:#e86900}.st70{fill:#00933e}.st71{fill:#8b4b2c}.st72{fill:#b3795d}.st73{fill:#191936}.st74{fill:#fb5d36}.st76{fill:#e86900}.st77{opacity:.5;fill:#ff9d07}.st83{fill:#522840}.st85{fill:#fff9f2}.st87{display:none;fill:#252557}.st88{fill:#323273}.st89,.st90,.st91{stroke-linecap:round;stroke-miterlimit:10}.st89{fill:#c1c1c1;fill-opacity:.6;stroke:#e3e3e3;stroke-width:1.5;stroke-linejoin:round}.st90,.st91{fill:none;stroke:#250a22;stroke-width:2.0052}.st91{stroke-width:1.0026}.st92{fill:#e5e5e5}.st94{opacity:.22}</style><g id="OBJECTS"><path class="st88" d="m417.3 209.3.7-.9c.6-.8 1.8-1 2.6-.4l3.9 2.8c.5.4 1.3.3 1.7-.2l3.4-4.4-3.3 6.1c-.5 1-1.7 1.3-2.7.7l-6.3-3.7z"/><path class="st88" d="M418.3 208.2c0 .1.1.2.1.4M419.5 207.8v.4M420.7 208.2c-.1.1-.1.2-.2.3M422.1 209.2c0 .1-.1.2-.1.3M423.4 210.2c-.1.1-.1.2-.2.3M425.1 211.2v.3M425.9 211c0 .1.1.2.1.2M426.6 210.2l.2.2M427.3 209.4c.1 0 .1.1.2.1M427.8 208.6l.1.1M415.1 208.1l.5-1c.5-.9.1-2.1-.8-2.5l-4.3-2.2c-.6-.3-.8-1-.5-1.6l2.4-5-4 5.7c-.6.9-.4 2.1.6 2.7l6.1 3.9zM410.9 198.5s-.1 0 0 0M410.4 199.6l-.1-.1"/><path class="st88" d="M409.9 200.6c-.1 0-.1-.1-.2-.1M409.7 201.6c-.1 0-.2.1-.2.1M410.1 202.3c-.1.1-.1.2-.2.2M411.8 203.2c-.1.1-.1.2-.2.3M413 203.8c-.1.1-.1.3-.2.4M414.4 204.5c-.1.1-.1.2-.2.3M415.3 205.3c-.1.1-.2.1-.3.2M415.1 206.4c.2 0 .4-.1.5-.1M416.4 203.3l4.6 2.9-3.8 1.1zM404.9 225.2c-1.3.9-1.4 2.7-1.9 4.1-.3 1.1-.9 2.1-1.7 2.8"/><path class="st88" d="m401.7 230-1 2.6 3.1-1.1-2.3.3zM418.1 215.6l3.7-.4 3.2-1.7s.6.5-.6 1.5c-1.3 1-2.4 2.2-2.4 2.2l-5.2 2.1 1.3-3.7zM408 210l-3-2.3-1.9-3.1s-.8.1-.3 1.6.9 3.1.9 3.1l3.4 4.5.9-3.8zM398.7 227.1c.3-1.2 1-2.3 2-3-.1.1-.7-.6-.8-.7-.2-.3-.3-.7-.5-1-.3-.7-.6-1.5-.5-2.3 0-.8.3-1.7.9-2.2.9-.8 2.3-1 3.4-.5 1.1.6 1.7 1.8 1.7 3-.1 1.2-.8 2.3-1.8 2.9.1.2.1.4.1.7 0 .2 0 .4-.1.5-.1.2-.6.4-.8.5-.4.3-.8.5-1.2.8-.4.3-.8.5-1.2.8-.2.1-1.2.6-1.2.7-.1-.1 0-.2 0-.2zM405.5 231.8c1-.7 1.8-1.8 2.1-3 0 .2.8.4.9.5.4.1.7.1 1.1.1.8.1 1.6 0 2.3-.3.8-.3 1.4-.9 1.8-1.6.5-1.1.2-2.5-.7-3.3-.9-.8-2.3-1-3.4-.5s-1.9 1.6-2.1 2.8c-.3 0-.4.1-.7.1-.2 0-.3.1-.4.2-.1.2-.1.7-.2.9-.1.5-.2.9-.3 1.4-.1.5-.2.9-.3 1.4 0 .2-.1 1.3-.3 1.4.2 0 .2 0 .2-.1z"/><path class="st88" d="m413.6 206.9.8-3.2c-2.7 2.3-5.3 4.7-8 7-.8.7-1.6 1.5-2.5 2.2-.9.7-1.9 1.2-2.7 2 .2-.2.9-.2 1.2-.3-1.3 1.5-2.1 3.5-2.3 5.5.1-.4.4-.8.7-1.1-.1 1.8.3 3.6 1.3 5.1 1.2 1.9 3.1 3.2 5.3 3.6 1 .2 2.1.2 3.1 0 .5-.1 1.1-.3 1.6-.5.2-.1 1.3-.5 1.4-.7-.1.5-.3.9-.7 1.2 2.1-.9 3.7-2.8 4.3-5 .1.3.1.5.2.8.4-1.8.8-3.6 1.3-5.4 1-3.4 2.3-7.1 3.3-10.5l-2.5 2.5-5.8-3.2z"/><path class="st88" d="m412.7 205.8 1-1-.4 1.4zM420.5 210.7l.5-1.6-1.1 1.2zM419.7 214.4c.3-1.1.7-2.2 1-3.2l-1.4-.9-.1.1-5.6-3.5.1-.2-1.5-1c-1.1 1-2.2 2-3.4 3l1.8 3.5 1.7-.2-.3 2.4 1.7 1.2 2.2-1.8.9 2.1 2.9-1.5zM406.7 212.9c-.8.4-1.5 1-2.1 1.7.2 0 .5 0 .7.1-.6.6-.9 1.5-.9 2.4M417.5 217.9c-.1 1-.5 2.1-1.1 3 0-.3-.1-.5-.1-.8-.5 1.2-1.3 2.2-2.1 3.2"/><path class="st88" d="m415.8 207.8-5.4-3 2.3-5-3.6 4.6c-.4.5-.2 1.2.3 1.5l5.8 3.4.6-1.5z"/><path class="st88" d="M411.1 205.2c-.1.1-.2.3-.3.4M410.3 204.8l-.3.3M410.7 203.9c-.1 0-.2-.1-.3-.1M411 203.1c-.1 0-.1-.1-.2-.1M411.4 202.3c-.1 0-.1 0-.2-.1M411.6 201.7s0-.1 0 0M417.2 209l5.7 3.2 4.1-5-3.4 5.8c-.3.5-.9.7-1.4.4l-5.7-3.3.7-1.1z"/><path class="st88" d="M421.9 211.8c-.1.2-.2.5-.3.7M422.8 212.2c0 .2-.1.4-.2.6M423.3 211.9c.2.1.3.2.4.4M424 211c.1 0 .2.1.3.2M424.8 210.1l.1.1M411.8 205.4l-2.7 2.5 2.3 3.6 1.8-.5 3.2 1.6.7 2.5 3.1-.9 1-3.1z"/><path class="st88" d="m413.2 210.2-.6 3.2 1.7 1 2.5-2.2M413.5 213.9l1.2-1.9M409.8 208.3c.5.8 1.1 1.6 1.6 2.4"/><path class="st88" d="M413.4 211c-.2.7-.3 1.4-.5 2.1M413.2 213.4l.3-.6M414.1 213.9l.5-.5M417 213.1c.1.4.3.8.4 1.3M414.4 210.1c.4-.2.8-.3 1.2-.5M416.1 209.5l.5-.8M414.7 210.4l1.2-.7.1 1.5zM411.4 208l-1.8.6.3.6zM410.4 209.9l.3.5.8-1zM416.7 209.8l1.3-.7-.7-.4zM416.2 208l-.7-.4v1.3zM413.4 206.3l-.5-.3-.1 1zM420 210.3l-.2-.1-.3.7zM418.2 213.9l-.2.9.5-.1zM419.4 214.4l.5-.2-.6-1.5zM417 210.3l3.5 1.5-2.7 1.3zM416.9 210.2l3.8 1.5"/><circle class="st88" cx="418.3" cy="211.7" r=".3"/><path class="st88" d="m411.6 206.7 3.2 2.3-2.9.7z"/><path class="st88" d="M411.2 206.5c1.2.8 2.4 1.7 3.7 2.5"/><circle class="st88" cx="412.8" cy="208.4" r=".3"/><circle class="st88" cx="403.6" cy="205.4" r="1.4"/><path class="st88" d="M405 205.9c-.4.5-1.1.6-1.7.2-.6-.4-.7-1.2-.3-1.7.1-.2.3-.3.4-.4-.4 0-.8.3-1 .6-.5.7-.3 1.6.4 2 .7.5 1.6.3 2-.4.1-.1.2-.2.2-.3zM404.3 204.5l-1.4 2"/><ellipse transform="rotate(-55.223 404.344 205.29)" class="st88" cx="404.4" cy="205.3" rx=".2" ry=".5"/><path class="st88" d="M399.2 208.7c.1-.2.2-.3.3-.5.2-.4.2-.8.4-1.2.2-.4.6-.7 1.1-.6.5.1.6.7 1.1 1 .3.2.8.2 1 .4.2.2.2.5.1.7-.1.2-.2.4-.2.7 0 .2 0 .5.1.7 0 .5-.3.9-.7 1.1-.4.2-1 .3-1.5.1-.6-.2-1-.5-1.3-.9-.3-.3-.7-.5-.5-1-.1-.1 0-.3.1-.5zM404.8 204.1c0 .2-.2.3-.3.3-.2 0-2.2 2.4-2.2 2.2s2-2.9 2.2-2.9c.2 0 .3.2.3.4zM399.1 207.8c0 .2-.2.4-.4.4s-.4-.2-.4-.4.2-.4.4-.4.4.2.4.4z"/><circle class="st88" cx="425.3" cy="219" r="1.4"/><path class="st88" d="M426.7 219.5c-.4.5-1.1.6-1.7.2-.6-.4-.7-1.2-.3-1.7.1-.2.3-.3.4-.4-.4 0-.8.3-1 .6-.5.7-.3 1.6.4 2 .7.5 1.6.3 2-.4.1-.1.2-.2.2-.3zM426 218.1l-1.4 2"/><path class="st88" d="M426.4 219.2c-.1.1-.3.1-.5-.1s-.3-.3-.2-.5c.1-.1.3-.1.5.1.2.1.3.3.2.5z"/><path class="st88" d="M424.2 217.4c.2-.1.4-.1.5-.2.4-.2.6-.6 1-.8.4-.2.9-.2 1.2.1.3.4.1.9.3 1.4.2.3.6.6.6.9 0 .3-.1.5-.3.6-.2.1-.4.3-.6.4-.2.2-.2.4-.4.6-.2.4-.7.6-1.2.5-.5-.1-1-.3-1.3-.7-.4-.5-.5-1-.6-1.5-.1-.4-.3-.8.2-1.1.2 0 .4-.1.6-.2z"/><circle class="st88" cx="428.1" cy="217.6" r=".3"/><circle class="st88" cx="424.3" cy="216.4" r=".4"/><circle class="st88" cx="409.7" cy="219.1" r="1.4"/><path class="st88" d="M411.1 219.6c-.4.5-1.1.6-1.7.2-.6-.4-.7-1.2-.3-1.7.1-.2.3-.3.4-.4-.4 0-.8.3-1 .6-.5.7-.3 1.6.4 2 .7.5 1.6.3 2-.4.1-.1.1-.2.2-.3zM410.4 218.1l-1.4 2.1"/><path class="st88" d="M410.8 219.2c-.1.1-.3.1-.5-.1s-.3-.3-.2-.5.3-.1.5.1.3.4.2.5z"/><path class="st88" d="M408.5 217.5c.2-.1.4-.1.5-.2.4-.2.6-.6 1-.8.4-.2.9-.2 1.2.1.3.4.1.9.3 1.4.2.3.6.6.6.9 0 .3-.1.5-.3.6-.2.1-.4.3-.6.4-.2.2-.2.4-.4.6-.2.4-.7.6-1.2.5-.5-.1-1-.3-1.3-.7-.4-.5-.5-1-.6-1.5-.1-.4-.3-.8.2-1.1.3-.1.4-.1.6-.2zM412.8 217.9c-.1.2-.3.2-.5.1s-.2-.3-.1-.5.3-.2.5-.1.2.3.1.5z"/><circle class="st88" cx="408.7" cy="216.5" r=".4"/><circle class="st88" cx="404.7" cy="212.2" r="1.4"/><path class="st88" d="M406 212.6c-.4.5-1.1.6-1.6.2-.5-.4-.7-1.1-.3-1.7.1-.2.3-.3.4-.4-.4 0-.7.2-1 .6-.4.6-.3 1.5.3 1.9.6.4 1.5.3 1.9-.3.3 0 .3-.2.3-.3zM405.4 211.2l-1.4 2"/><ellipse transform="rotate(-55.223 405.412 212.042)" class="st88" cx="405.4" cy="212" rx=".2" ry=".4"/><circle transform="rotate(-45.757 418.324 220.621)" class="st88" cx="418.3" cy="220.6" r="1.4"/><path class="st88" d="M419.6 221.1c-.4.5-1.1.6-1.6.2-.5-.4-.7-1.1-.3-1.7.1-.2.3-.3.4-.4-.4 0-.7.2-1 .6-.4.6-.3 1.5.3 1.9.6.4 1.5.3 1.9-.3.3-.1.3-.2.3-.3zM419 219.7l-1.4 1.9"/><ellipse transform="rotate(-55.223 419.011 220.493)" class="st88" cx="419" cy="220.5" rx=".2" ry=".4"/></g></svg>