<svg xmlns="http://www.w3.org/2000/svg" xmlns:xlink="http://www.w3.org/1999/xlink" viewBox="0 0 629.34 354" xml:space="preserve"><linearGradient id="a" gradientUnits="userSpaceOnUse" x1="334.797" y1="370.889" x2="294.892" y2="-13.528"><stop offset="0" style="stop-color:#fb4c4e"/><stop offset=".01" style="stop-color:#ee4c57"/><stop offset=".041" style="stop-color:#cc4a6f"/><stop offset=".074" style="stop-color:#af4984"/><stop offset=".112" style="stop-color:#984894"/><stop offset=".154" style="stop-color:#8648a1"/><stop offset=".205" style="stop-color:#7947aa"/><stop offset=".272" style="stop-color:#7247b0"/><stop offset=".424" style="stop-color:#7047b1"/><stop offset=".446" style="stop-color:#7049b1"/><stop offset=".616" style="stop-color:#7050b1"/><stop offset=".998" style="stop-color:#7052b1"/></linearGradient><defs><path id="b" d="M0 0h629.34v354H0z"/></defs><clipPath id="c"><use xlink:href="#b" overflow="visible"/></clipPath><path opacity=".2" clip-path="url(#c)" fill="#FFF9F2" d="M366.9 256.33c-2.09.14-4 2.27-5.52 3.4-26.33 19.54-24.44 63.6-8.87 89.18 3.36 5.52 7.47 10.54 12.13 14.99l305.15-53.02L657.77 197c-1.69-12.14-20.07-36.94-43.29-37.25-55.76-.75-88.75 44.78-60.91 55.63-6.57-1.78-16.12-.91-23.07 2.1-6.14 2.66-12.09 7.43-12.4 11.26-1.65-8.27-15.81-14-32.16-13.53-17.29.5-35.41 7.27-44.99 15.93-7.31 6.6-9.84 14.04-8.18 20.73-1.78-7.07-20.44-7.55-25.69-7.3-12.9.61-26.65 5.47-35.36 15.89 1.39-1.66-3.07-3.91-4.06-4.09-.26-.04-.51-.05-.76-.04zM296.29 273.88c-2.64 0-5.38.83-8.17 2.7-3.13-5.73-9.07-8.55-15.6-8.55-5.28 0-10.95 1.85-15.81 5.49-2.2-6.07-7.12-11.33-12.99-11.33-4.44 0-7.61 2.48-10.02 5.58-3.05-9.16-12.05-15.89-21.23-15.89-6.15 0-12.36 3.04-16.94 10.38-.69-1.75-1.5-3.46-2.5-5.11-6.54-10.87-20.44-18.77-34.82-18.09-14.38.68-27.82 10.99-28.27 23.19-1.07-5.34-6.64-9.81-13-10.41-6.36-.6-14.92 1.47-17.35 6.49 2.46-7.78-.53-16.61-7.48-22.1-6.95-5.49-17.55-7.41-26.54-4.8-7.85 2.28-14.16 7.92-16.65 14.61.42-4.06-1.88-8.34-6.01-10.49-5.16-2.69-12.56-1.73-16.52 2.16 1.72-6.45.55-13.58-3.98-18.97-4.53-5.39-12.59-8.73-20.31-7.7-7.71 1.03-14.43 6.79-14.74 13.4L-9 367h172.75c15.27 23.62 44.56 41.45 70.8 41.45 38.66 0 88.21-52.6 88.21-93.28.01-15.82-11.67-41.29-26.47-41.29z"/></svg>