<svg xmlns="http://www.w3.org/2000/svg" viewBox="0 0 629.3 354" style="enable-background:new 0 0 629.3 354" xml:space="preserve"><style>.st0{display:none}.st4{display:inline;fill:#fff}.st5{font-family:&apos;Poppins-Regular&apos;}.st8{font-size:9px}.st9{display:inline}.st14{fill:none}.st15{fill:#272761}.st18{fill:#2e2e6b}.st19{fill:#1f1f47}.st20{fill:#252557}.st21{fill:#9855c1}.st22{fill:#7b3ca5}.st23{fill:#8441b3}.st24,.st25{fill:#ffc533}.st25{opacity:.33}.st26{fill:#3a1e78}.st27{fill:#4a298f}.st28{opacity:.55;fill:#ffc533}.st30{fill:#927dd0}.st31{fill:#ac9bdb}.st32{fill:#fff}.st34{fill:#ca9ce6}.st35{fill:#871a6c}.st38{opacity:.22;fill:#4a298f}.st39{fill:#846596}.st41{fill:#ff7d1e}.st42{fill:#ffbf2b}.st44{fill:#45393c}.st45{fill:#090914}.st46{fill:#f1f1f1}.st47{fill:#000518}.st50{fill:#f7fffa}.st51{fill:#fe798c}.st52{fill:#7f7f4f}.st54{fill:#ed8583}.st55{fill:#e3af2d}.st57{font-size:5.5694px}.st59{font-family:&apos;Alegreya-Bold&apos;}.st60{font-size:24.0104px}.st61{letter-spacing:-1}.st62{letter-spacing:-2}.st68,.st69{opacity:.5;fill:#fff}.st69{fill:#e86900}.st70{fill:#00933e}.st71{fill:#8b4b2c}.st72{fill:#b3795d}.st73{fill:#191936}.st74{fill:#fb5d36}.st76{fill:#e86900}.st77{opacity:.5;fill:#ff9d07}.st83{fill:#522840}.st85{fill:#fff9f2}.st87{display:none;fill:#252557}.st88{fill:#323273}.st89,.st90,.st91{stroke-linecap:round;stroke-miterlimit:10}.st89{fill:#c1c1c1;fill-opacity:.6;stroke:#e3e3e3;stroke-width:1.5;stroke-linejoin:round}.st90,.st91{fill:none;stroke:#250a22;stroke-width:2.0052}.st91{stroke-width:1.0026}.st92{fill:#e5e5e5}.st94{opacity:.22}</style><g id="OBJECTS"><path class="st88" d="M235.2 182.7c-.6 1.1-1.1 2.2-2 3.1-.3.3-2.3 2.9-2.8 2.6-1.2-.7-2.9-1.7-2.9-1.7s-.7.9-1 1.2c-5-.9-9.4-4.7-11.1-9.6-.2-.5-.3-1-.1-1.5.2-.5 1-.7 1-.7s-.4-1.2-.5-2.2c0-.3-.2-2.9.1-2.9 6.3-1.6 10.7-5.9 14.6-11 .2-.3 1.9 2 1.9 2l4.2 1.3s2.6-1.3 2.7-.3c.2 1.7.1 3.6 0 5.3-.1 1.8-.3 3.7-.6 5.5-.9 3.3-1.9 6.2-3.5 8.9z"/><path class="st89" d="M231.9 174.5c-2.3 2-5.2 3.3-8.2 3.6M230.6 177.2l-4.2 3.3M217.8 177c1.7-1.5 3.5-3 5.3-4.5M226.5 188c2-1 3.5-2.4 4.4-4"/><path class="st32" d="M238.6 171.9c-.4.2-.7.4-1.1.5-.3.1-1.4.8-1.7.6.8.3 1.7.5 2.6.7.1-.6.2-1.2.2-1.8zM237.5 176.6c-1.1.3-2.3.4-3.4.2.7 1 1.5 1.8 2.4 2.6.4-.9.8-1.9 1-2.8zM223.8 167.4c-.4.3-.7.5-1.1.7.6.5 1.1.9 1.7 1.4-.3-.7-.4-1.4-.6-2.1zM226.3 165.1c-.6.6-1.2 1.2-1.9 1.8.7.8 1.5 1.6 2.4 2.2-.2-1.4-.4-2.7-.5-4zM230.3 164.8c.2.1.5.1.7.2 0 0 .1-.1.1-.2 0-.2-.1-.4-.3-.5-.2 0-.4.1-.5.3v.2zM237 166.9h.1s0-.1.1-.1c.1-.2 0-.5-.2-.5-.2-.1-.4 0-.5.2v.2c.1.1.3.2.5.2z"/><path class="st92" d="M227.7 164.9s-2 4.3 3.3 6.6c5.5 2.4 7.6-3.6 7.3-3.4-2 1.3-8.8.2-10.6-3.2z"/><path class="st88" d="M125.6 221.8c-.6 1-1 2-1.8 2.8-.3.3-2.1 2.6-2.5 2.3-1.1-.6-2.6-1.5-2.6-1.5s-.6.8-.9 1.1c-4.5-.8-8.5-4.2-10-8.6-.2-.4-.3-.9-.1-1.4.2-.4.9-.7.9-.7s-.4-1.1-.5-2c0-.3-.2-2.6 0-2.6 5.7-1.4 9.7-5.3 13.1-9.9.2-.3 1.7 1.8 1.7 1.8l3.7 1.1s2.4-1.2 2.5-.3c.2 1.5.1 3.2 0 4.7-.1 1.7-.3 3.3-.6 5-.5 3.1-1.4 5.7-2.9 8.2z"/><path class="st89" d="M122.7 214.3c-2.1 1.8-4.7 3-7.4 3.3M121.5 216.7c-1.3 1-2.5 2-3.8 3M110 216.6c1.5-1.3 3.2-2.7 4.7-4M117.9 226.5c1.8-.9 3.2-2.1 4-3.6"/><path class="st32" d="M128.8 212c-.3.2-.6.3-1 .5-.3.1-1.3.7-1.6.6.7.3 1.5.5 2.3.6.1-.7.2-1.2.3-1.7zM127.8 216.2c-1 .2-2.1.3-3.1.2.6.9 1.3 1.7 2.2 2.3.3-.8.6-1.6.9-2.5zM115.4 207.9c-.3.2-.6.4-1 .7.5.4 1 .8 1.5 1.3-.2-.7-.4-1.3-.5-2zM117.6 205.9c-.5.6-1.1 1.1-1.7 1.6.6.8 1.3 1.4 2.1 2-.1-1.3-.3-2.5-.4-3.6zM121.3 205.6c.2 0 .4.1.7.2 0 0 .1-.1.1-.2 0-.2-.1-.4-.3-.4-.2 0-.4.1-.4.3-.1 0-.1.1-.1.1zM127.3 207.5h.1s0-.1.1-.1c.1-.2 0-.4-.2-.5-.2-.1-.4 0-.5.2v.2c.2.1.3.2.5.2z"/><path class="st92" d="M118.9 205.7s-1.8 3.8 3 5.9c4.9 2.2 6.8-3.2 6.6-3-1.8 1.1-7.9.2-9.6-2.9z"/><path class="st88" d="M207.8 240.4c0 .8 0 1.5-.2 2.2-.1.3-.4 2.2-.7 2.2-.8 0-2-.1-2-.1s-.1.7-.2.9c-2.9.9-6.3.2-8.6-1.9-.2-.2-.5-.5-.5-.8 0-.3.3-.7.3-.7s-.6-.5-.9-1c-.1-.1-.9-1.5-.8-1.6 2.9-2.6 4-6.1 4.6-9.9 0-.2 1.6.6 1.6.6l2.6-.5s1-1.4 1.4-.9c.6.8 1 1.9 1.5 2.8.5 1 .9 2 1.2 3.1.6 1.8.8 3.7.7 5.6z"/><path class="st89" d="M203.8 236.9c-.7 1.7-1.8 3.2-3.3 4.2M203.9 238.7c-.4 1-.9 2-1.3 2.9M197 242.2c.5-1.3 1-2.6 1.5-3.8M204.8 245.6c.8-1.1 1.2-2.2 1.2-3.3"/><path class="st32" d="M206.6 233.6c-.1.2-.3.4-.4.6-.1.2-.5.8-.7.8.5-.1 1-.2 1.5-.4-.1-.3-.2-.6-.4-1zM207.4 236.4c-.5.5-1.1.8-1.7 1.1.6.3 1.3.6 2 .7l-.3-1.8zM197.5 235.4c-.1.2-.2.5-.4.7.4.1.8.2 1.3.3-.3-.3-.6-.7-.9-1zM198.2 233.5c-.1.5-.3 1-.5 1.5.6.3 1.2.4 1.9.5-.5-.7-1-1.3-1.4-2zM200.3 232.2c.1 0 .3-.1.4-.1v-.1c0-.1-.2-.2-.3-.2-.1.1-.2.2-.1.4-.1 0 0 0 0 0zM204.4 231.5c0-.1.1-.1 0 0 .1-.1.1-.1 0 0 .1-.2 0-.3-.2-.3-.1 0-.2.1-.2.3v.1c.2-.1.3-.1.4-.1z"/><path class="st92" d="M198.9 233s.2 2.8 3.6 2.6c3.6-.3 3-4 2.9-3.8-.7 1.2-4.6 2.5-6.5 1.2z"/></g></svg>