<svg xmlns="http://www.w3.org/2000/svg" viewBox="0 0 629.3 354" style="enable-background:new 0 0 629.3 354" xml:space="preserve"><style>.st0{display:none}.st4{display:inline;fill:#fff}.st5{font-family:&apos;Poppins-Regular&apos;}.st8{font-size:9px}.st9{display:inline}.st14{fill:none}.st15{fill:#272761}.st18{fill:#2e2e6b}.st19{fill:#1f1f47}.st20{fill:#252557}.st21{fill:#9855c1}.st22{fill:#7b3ca5}.st23{fill:#8441b3}.st24,.st25{fill:#ffc533}.st25{opacity:.33}.st26{fill:#3a1e78}.st27{fill:#4a298f}.st28{opacity:.55;fill:#ffc533}.st30{fill:#927dd0}.st31{fill:#ac9bdb}.st32{fill:#fff}.st34{fill:#ca9ce6}.st35{fill:#871a6c}.st38{opacity:.22;fill:#4a298f}.st39{fill:#846596}.st41{fill:#ff7d1e}.st42{fill:#ffbf2b}.st44{fill:#45393c}.st45{fill:#090914}.st46{fill:#f1f1f1}.st47{fill:#000518}.st50{fill:#f7fffa}.st51{fill:#fe798c}.st52{fill:#7f7f4f}.st54{fill:#ed8583}.st55{fill:#e3af2d}.st57{font-size:5.5694px}.st59{font-family:&apos;Alegreya-Bold&apos;}.st60{font-size:24.0104px}.st61{letter-spacing:-1}.st62{letter-spacing:-2}.st68,.st69{opacity:.5;fill:#fff}.st69{fill:#e86900}.st70{fill:#00933e}.st71{fill:#8b4b2c}.st72{fill:#b3795d}.st73{fill:#191936}.st74{fill:#fb5d36}.st76{fill:#e86900}.st77{opacity:.5;fill:#ff9d07}.st83{fill:#522840}.st85{fill:#fff9f2}.st87{display:none;fill:#252557}.st88{fill:#323273}.st89,.st90,.st91{stroke-linecap:round;stroke-miterlimit:10}.st89{fill:#c1c1c1;fill-opacity:.6;stroke:#e3e3e3;stroke-width:1.5;stroke-linejoin:round}.st90,.st91{fill:none;stroke:#250a22;stroke-width:2.0052}.st91{stroke-width:1.0026}.st92{fill:#e5e5e5}.st94{opacity:.22}</style><g id="OBJECTS"><path class="st88" d="m183.8 224.1 2.9-3.3-3-2.2c-.7-.5-.7-1.5-.1-2.1.5-.4 1.3-.4 1.8 0l4 3.8.2.2-4.1 3.8s-1.6 3-1.8 2.9l.1-3.1z"/><path class="st88" d="m183.8 224.1 2.9-3.3-3-2.2c-.7-.5-.7-1.5-.1-2.1.5-.4 1.3-.4 1.8 0l4 3.8.2.2-4.1 3.8s-1.6 3-1.8 2.9l.1-3.1z"/><path class="st88" d="m186.1 219.9-.2.4-2.1-1.5 1.4-1.8h.5l2.8 2.7-1.2-.1.3.7z"/><path class="st88" d="m187.1 216.6 2.6 2.5-1.9-.5.2.8-1.9-.6.4 1.1-3-1.7zM185.1 225.3s-.5.9-.7.6c-.3-.3-.1-2.4-.4-2.3-.4.1-1.1 1.8-1.1 1.8l.6-.5s0 2.8.3 2.9c.2.1 1.2-1.1 1.3-2.5zM170.4 206.4c1-.5 1.6.5 2.4-.2.8-.7-.4-1.3.5-2.4.9-1.1 3.7-2.1 3.7-2.1l.8 2.3s1.2 1.6.6 2.2c-.6.6-1.4.6-1.3 1.1l10.3-6.5s3.1.3 4 1c.9.7-.3 3.2.6 3.2.9 0 1.2-.6 1.6-.1.4.4-.5 2.2-.5 2.2l1.2-.2s-10.7 6.5-17.6 4.5c-1.5-.3-5.6-1.3-6.5-3.5 0-.2-.8-1 .2-1.5z"/><path class="st88" d="m183.8 212 .7-1.5s3.5 3.7 6.5 5c.6-.1 1.5-.3 1.5 0 0 .1-.2.2-.4.3h.1s1.4.4 1.1 1.2c-.2.5-.7.5-.7.5s-.3.4-.8.3c-.3 0-.5-.3-.5-.3s-.4.5-.7.2c-.3-.3-.3-1.2-.3-1.2s-4.4.1-6.5-4.5z"/><path class="st88" d="M190.6 215.2c.1.1.3.1.4.2.6-.1 1.5-.3 1.5 0 0 .1-.2.2-.4.3h.1s1.4.4 1.1 1.2c-.2.5-.7.5-.7.5s-.3.4-.8.3c-.3 0-.5-.3-.5-.3s-.4.5-.7.2c-.3-.3-.3-1.2-.3-1.2s-1.1 0-2.4-.5c.5-.1 1.7-.4 2.7-.7zM184.6 213.3l.4-1.3.8-.3c.7.6 1.6 1.4 2.6 2.2l-1.4 1.7c-.9-.6-1.7-1.3-2.4-2.3z"/><path class="st88" d="M184.7 210.5s.7-.2 1.7.6 2.3 2.2 2.3 2.2l-1.5-.3.7.6-1-.1.7 1.3-1.3-.1.6.9s-2.5-.7-3.3-2.7 1.1-2.4 1.1-2.4z"/><path class="st88" d="M178.3 219.7c-.1-2.3-.1-7 1.6-8.8 1.3-1.4 3.6-1.3 4.6-.5.8.6 1.3 4.5 1.6 7.3l-7.8 2z"/><g class="st94"><path class="st88" d="M178.9 212.8c.2-.8.6-1.4 1-1.9 1.3-1.4 3.6-1.3 4.6-.5.3.2.5.8.7 1.7-1.9.7-4.4 1.4-6.3.7z"/></g><path class="st88" d="m183.1 210.4.1 1.5h-.9l-.1-1.6zM195.1 216.2s-.2-1.2-.4-1.2-21.1 5.8-21.1 5.8l.3.8c0-.1 21.3-5.2 21.2-5.4z"/><path class="st88" d="M195.1 216.2c-.1 0-.1 0 0 0-.1 0-.1 0 0 0-.8.4-11.1 2.9-17 4.3l-.2-.8c4.9-1.4 12.5-3.6 15.5-4.4l1.7.9zM175.3 218.7c-.5 0-1.7 1.2-1.7 1.2s-.7-1.3-2.5-1.3-4.2 3.3-5.1 3.2c-.8-.1-1.5-.3-1.5-.3s1.3 2.5 3.6 2.5c0 0-2.5.2-3.3-1.3 0 0 .2 2.1 3.8 1.6 0 0-.9.9-3.8 0 0 0 4.9 5.2 8.9-2.1 0 0 1.5.9 1.9.2.4-.5.2-3.7-.3-3.7z"/><path class="st88" d="M164.4 221.5s.7.2 1.5.3c.4.1 1.2-.7 2.1-1.5l-1.4 2s2.4-1.1 2.7-1.1c.3 0-3.2 1.7-3.2 1.7 1.4 1.5 4.3.9 4.3.9-1.4 1.4-3.2 1.2-3.2 1.2 1 .6 3.9-.2 3.9-.2-.4.4-.8.9-1.2 1.2-2.8.9-5.1-1.6-5.1-1.6 2.9.9 3.8 0 3.8 0-3.6.4-3.8-1.6-3.8-1.6.8 1.5 3.3 1.3 3.3 1.3-2.3 0-3.7-2.6-3.7-2.6z"/><path class="st88" d="M172.6 219.5s-3.8.6-5.9 2.6c0 .1 2.5-3.3 5.9-2.6zM173.1 222.4s-3.4 5.4-7 2.6c-.1 0 2.8 1.9 7-2.6zM172.3 221.3s-4 .3-5.6 1.6c.1 0 5.6-1.6 5.6-1.6zM171.5 222.4s-.1 0-.2.1c-.6.3-2.4 1.1-3.8.7.1 0 1.6-.2 4-.8z"/><path class="st88" d="M173.5 220s-2.2-4.9-7.5.5c0 0 4.9-4 7.5-.5zM173.7 222.3s-1.9 6.9-8 3.7c0 0 5.1 2.2 8-3.7z"/><path class="st88" d="M174 222.6s-.2-2.9-.3-3c-.1-.1-.3 0-.3 0l.2 3.1.4-.1zM190.5 217.6s-.4-.9-.1-1c.3-.1.6.6.6.6s-.5-.8-.1-.8.8.6.8.6-.6-.8-.2-.9c.4-.1.7.4 1.3.8.3.1-2 .9-2.3.7z"/><path class="st88" d="M192 216.4s-.3.2-.4.1c-.1-.1-.3-.3 0-.3.3-.1.4.2.4.2zM191.3 216.7l-.4.1s-.2-.3 0-.3c.2-.1.4.2.4.2zM190.8 217l-.4.1s-.1-.4.1-.4c.1 0 .3.3.3.3zM184.6 222.4l-4.5-3.2c-.7-.5-.7-1.5-.1-2.1.5-.5 1.3-.4 1.8 0l4.1 3.8-1.3 1.5z"/><path class="st88" d="m184.6 222.4-4.5-3.2c-.7-.5-.7-1.5-.1-2.1.5-.5 1.3-.4 1.8 0l4.1 3.8-1.3 1.5z"/><path class="st88" d="m184.5 219.8 1.6 1.3-4 3.8s-1.6 3.1-1.7 3l-.1-3.2 4.2-4.9z"/><path class="st88" d="m184.5 219.8 1.5 1.2-1-.2-.2 1-1.4-.8zM183.4 221.1l-.3 1-.5-.1zM181.7 225.8s-.4.9-.7.6c-.3-.3-.1-2.4-.5-2.3-.4.1-1 1.8-1 1.8l.6-.5s0 2.8.3 2.9c.2.1 1.2-1.1 1.3-2.5z"/><path class="st88" d="m183.9 217.5 2.8 3.4-2.8-.8.3 1-1.5-.7-.1 1.3-1.3-1.1.3 1.8-1.6-2-.1 2.5s-2.1-1.7-1.6-5.6c.5-3.8 5.6.2 5.6.2z"/><g class="st94"><path class="st88" d="M182.9 218.2h-1.2c-.1 0-.1 0-.2-.1-.1 0-.1 0-.2-.1-.1 0-.1 0-.2-.1-.1 0-.1 0-.2-.1-.1 0-.1-.1-.2-.1s-.1-.1-.2-.1-.1-.1-.2-.1-.1-.1-.2-.1-.1-.1-.2-.1-.1-.1-.2-.1-.1-.1-.2-.1-.1-.1-.2-.1-.1-.1-.2-.1l-.1-.1c-.1 0-.1-.1-.2-.1l-.1-.1c-.1 0-.1-.1-.2-.1l-.1-.1c-.1-.1-.2-.1-.2-.2 0-.5.1-1 .1-1.5.1 0 .1-.1.2-.1l3.2 1c1.1.7 2 1.6 2 1.6l.6.8c-.1 0-.3.1-.4.1H183c0 .2 0 .1-.1.1z"/></g><path class="st88" d="M179.9 212.1v-.2c1.2.2.5 4.2 7.8 4.4 0 0 1.5-.6 1.8.2l-1 .3 1.1 1 .5-.1s-.1.6-.4.6h-.2s.1.2-.1.3c-.2 0-.4-.1-.4-.1s0 .3-.2.2c-.2 0-.3-.1-.3-.2 0 .1.1.3-.2.3-.3 0-2.1-.5-1.8-1.5-1.4.3-6.8 1.1-7.8-3.3-.2-1.1.1-2 1.2-1.9z"/><path class="st88" d="M183.1 217.5c-1-.1-2-.4-2.8-1l.9-2.7c.5.7 1.4 1.5 3 2l-1.1 1.7z"/><path class="st88" d="M181.6 217.5c-1.5-.5-4.5-1.9-3.5-5 1-2.9 3.3.2 4.4 1.3 1.1 1.1 2.2 1.5 2.2 1.5l-1.6.1.6.7h-1l.9.8-1.5.1.4.6c-.1.2-.4.1-.9-.1"/><g class="st94"><path class="st88" d="M181.7 213c-1.3.1-2.5 0-3.6-.6.8-2.2 2.4-.7 3.6.6z"/></g><path class="st88" d="M173.7 202.9c-.5.3-.7.8-.6 1.4 0 .6.2 1.2-.2 1.7-.2.2-.5.4-.8.4-.3 0-.6-.1-1-.2-.3-.1-.5-.1-.8 0-.3 0-.5.3-.8.3-.2 0-.4-.2-.3-.4.1-.6 1.1-.7 1.6-.7.3 0 .6.1.8.2.2.1.5.2.7 0 .1-.2.1-.5 0-.8 0-.3 0-.6.1-.9.2-.5.6-.9 1.1-1.1.2-.2.3 0 .2.1z"/><ellipse transform="rotate(-6.719 176.895 206.952)" class="st88" cx="177" cy="207" rx="1.8" ry="2"/><path class="st88" d="M175.6 207.2c.1.6.6 1.1 1.2 1 .6-.1 1-.6.9-1.3-.1-.6-.6-1.1-1.2-1-.5.1-.9.6-.9 1.3z"/><path class="st88" d="M177.5 208.3c-.7-.8-1.8 0-1.6.6.2.6.7.5.7.5s-.1.2 0 .3c.1 0 .2-.2.2-.2s0 .3.1.2c.1-.1.1-.2.1-.2s0 .3.1.2c.1-.1.1-.3.1-.3s1-.3.3-1.1z"/><path class="st88" d="M177.2 208.7c-.4-.1-.5.6-.1.5.4 0 .5-.4.1-.5z"/><path class="st88" d="M176.5 208.7c-.4-.1-.5.6-.1.5.4.1.5-.4.1-.5zM176.7 209.3c.1.1.1 0 0 0 .1-.1.1.1.2 0 0-.1 0-.2-.1-.2 0 .1-.1.2-.1.2zM187.2 205.6c.1 1.1 1 1.9 2 1.8 1-.1 1.7-1.1 1.6-2.2-.1-1.1-1-1.9-2-1.8-1 .2-1.8 1.1-1.6 2.2z"/><path class="st88" d="M188.1 205.5c.1.6.6 1.1 1.2 1 .6-.1 1-.6.9-1.3-.1-.6-.6-1.1-1.2-1-.5.1-1 .7-.9 1.3z"/><path class="st88" d="M189.8 206.2c-1-.3-1.6.9-1.1 1.3s.9.1.9.1 0 .3.2.2c.1 0 .1-.2.1-.2s.1.2.2.1 0-.2 0-.2.1.3.2.1c.1-.1-.1-.3-.1-.3s.5-.7-.4-1.1z"/><path class="st88" d="M189.7 206.7c-.4.1-.1.7.2.5.3-.2.2-.6-.2-.5zM189.1 207.1c-.4.1-.1.7.2.5.3-.2.1-.6-.2-.5zM189.6 207.5c.1 0 0-.1 0 0 0-.1.1 0 .1-.1s-.1-.1-.2-.1c0 .1 0 .2.1.2z"/><path class="st88" d="m181.2 200.8 2.1-.2c2.7-.3 5.1 1.6 5.4 4.3l.1.8c.3 2.7-1.6 5.1-4.3 5.4l-2.1.2c-2.7.3-5.1-1.6-5.4-4.3l-.1-.8c-.3-2.7 1.6-5.1 4.3-5.4z"/><path class="st88" d="M185.7 203.5c-.1 0 0-.1 0 0-.1 0-.1 0 0 0l-.3.3c-.1.1-.3.3-.5.4-.2.1-.3.3-.5.4-.1.1-.2.1-.2.2-.2.1-.3.2-.5.1h.2-.2c-.1 0-.2-.1-.2-.3 0-.1 0-.1.1-.2v.2c0-.3.3-.5.4-.6.2-.1.3-.3.5-.4.3-.2.5-.4.8-.6.1-.1.4-.1.5.1.1.1 0 .3-.1.4zM181.9 205.1c-.4-.2-.7-.3-1.1-.5-.2-.1-.4-.2-.5-.3-.2-.1-.5-.2-.6-.5-.1-.2 0-.4.2-.4.2-.1.5 0 .7.1l.6.3c.4.2.7.4 1 .6.2.1.3.3.2.5-.1.2-.3.2-.5.2zM184.3 207.5c-1 .1-.9.8-1.3.8s-1-.5-1.4 0c-.4.5.2 2.5 2.6 1.5 1.7-.6 1.1-2.4.1-2.3z"/><path class="st88" d="M181.6 209.1c.2-.1.5-.2.8-.3 1-.2 1.9.2 2.3.8-.1.1-.3.2-.5.3-1.6.7-2.4-.1-2.6-.8z"/><path class="st88" d="M182.3 208.5c-.2 0-.2.2-.3.4-.2-.1-.3-.2-.5-.3 0-.1 0-.1.1-.1.4-.5 1 0 1.4 0 .4 0 .3-.7 1.3-.8.1 0 .3 0 .4.1-.1.7-.7 1.3-1.5 1.4h-.8c.1-.4.2-.8-.1-.7zM185.7 207.2c.7-.1 1.2-.7 1.1-1.4l-.1-.6c-.1-.7-.7-1.2-1.4-1.1-.7.1-1.2.7-1.1 1.4l.1.6c.1.7.7 1.1 1.4 1.1z"/><path class="st88" d="M184.3 205.5c0-.4.1-.7.3-1 .1 0 .2-.1.3-.1.6-.1 1.1.5 1.2 1.2.1.7-.3 1.4-.9 1.4h-.2c-.4-.2-.6-.5-.7-1v-.5zM181.1 207.8c-.7.1-1.3-.3-1.4-1l-.1-.6c-.1-.7.3-1.3 1-1.4.7-.1 1.3.3 1.4 1l.1.6c.1.6-.3 1.3-1 1.4z"/><path class="st88" d="M181.9 205.7c-.1-.4-.3-.6-.6-.8h-.3c-.6.1-.9.8-.8 1.5.1.7.7 1.2 1.3 1.1h.2c.3-.3.4-.7.3-1.1l-.1-.7zM183.3 207.5c.8-.1 1.1-.6 1-.8 0-.3-.3-.3-.6-.3s-.5-.1-.5-.3v-.2s0-.1-.1-.1c0 0-.1 0-.1.1v.3c0 .3.4.4.6.4.3 0 .4.1.4.2 0 .2-.2.6-.9.6.2 0 .1 0 .2.1zM185.7 207.9c.1.5.6.8 1.2.7.6-.1 1-.5 1-1-.1-.5-.6-.8-1.2-.7-.6.2-1 .6-1 1zM178.9 208.9c.1.5.6.8 1.2.7.6-.1 1-.5 1-1-.1-.5-.6-.8-1.2-.7s-1 .5-1 1z"/><path class="st88" d="M188.2 200.3s2-.8 1.6-1.4c-.3-.6-3.2-.8-3.2-.8s1.2-.6-.4-1.2c-4.7-1.8-5.9.9-6.6 2-.3-.2-.7-.5-.9-.3-.5.3-.1 1-.1 1s-1-.4-1.1.1c-.1.3.3.6.6.8-1.8 1.7-1.5 3.9-1.3 4.5 0 .5 0 2 .5 2.4.5.4.6-1.4.7-2.4 2-.6 3.2-3.6 3.2-3.6s-.5 1.9.7 1.9c.6 0 .9-.9 1-1.5 0 .4 0 .9.7.9 1-.1.6-1.6.6-1.6.7 2 2.6 2.3 3.8 2.4l.9 1.4c2.7-2.6-.7-4.6-.7-4.6z"/><path class="st88" d="M181.2 201.9c-.2 1.4-1 2.6-2.2 3.3-.7.4-1.4.6-2.2.6-.4 0-.7 0-1.1-.1-.4-.1-.8-.2-1-.5-.1-.2 0-.4.2-.4.3 0 .6.1.9.2.3.1.6.1 1 .1.7 0 1.4-.1 2-.4 1.1-.6 1.8-1.7 2.1-2.9 0-.2.4-.1.3.1zM184.2 197c.3.5-1.7 1.1-1.9.4-.2-.6 1.7-.9 1.9-.4zM184.3 198.1c0 .4-1.2 1.1-1.6.7-.3-.4 1.6-1 1.6-.7zM177.9 201.1c.3.2.3 1-.3 1.1-.7.1 0-1.3.3-1.1zM178.9 201.1c.4.1.4 1.3-.3 1.3-.6 0-.1-1.4.3-1.3zM193.7 206.2c.2-.5.2-1 .1-1.5 0-.2 0-.3-.3-.2-.2 0-.3.1-.5.2-.4.2-.8.1-1.1-.3-.3-.4-.3-.8-.3-1.3 0-.4.1-.8-.1-1.1-.2-.4-.6-.3-.9-.4-.5-.1-1-.2-1.4-.3-.5-.1-1.1-.1-1.5-.4-.3-.3-.2-.6.1-.8.3-.2.6-.1.9 0 .3 0 .6.1.8.1.6.1 1.1.2 1.7.4.5.1.9.3 1.1.8.2.4.3.9.2 1.4 0 .3-.2 1.1.1 1.1.2.1.4-.1.6-.1.2-.1.4-.1.7 0 .4.2.5.7.5 1.1 0 .5-.1 1.1-.4 1.6.1.3-.4 0-.3-.3z"/><path class="st88" d="m174.8 199.9-.4-5.7s-1.7-1.2-3-2.1l-.6.5.8.7.5-.8-.1 1.1h-1.8s-.4-2.7-.2-2.9c0 0 .1-.1.2-.1 1.1-.3 6.2-.1 7.3-.2 1.3-.1 5.9 4 6.4 5.1s6.8-1.8 8.7-1.3c1.9.5-2.9 3.7-5.9 5.1-3 1.4-3.4 1.4-7 3s-9.7 2.9-10.2 2.4c-.5-.2 5.3-4.8 5.3-4.8z"/><path class="st88" d="m174.8 199.9-.4-5.7s-1.7-1.2-3-2.1l-.6.5.8.7.5-.8-.1 1.1h-1.8s0-.3-.1-.8c.5-.9 1.2-1.5 2.2-1 .7.3 1.3 1 1.9 1.4.5.3 1 .4 1.5.4-.2.6-.4 1.3-.5 2 0 .7.1 1.6.6 2.1.5.6 1.3.6 2 .5-.6.5-1.2 1-1.6 1.7-.3.5-.3 1.2.4 1.4.4.2 1 .1 1.4.1.7-.1 1.4-.2 2.1-.4 1.8-.5 3.6-1.2 5.3-1.9 1.7-.8 3.4-1.6 4.9-2.6.8-.5 1.8-1.3 2.3-2.2 1.7.5-3 3.7-5.9 5.1-3 1.4-3.4 1.4-7 3s-9.7 2.9-10.2 2.4c-.5-.3 5.3-4.9 5.3-4.9z"/><path class="st88" d="M174.5 197.7s.3 2 .4 2.2c0 .2 9.8-3.3 9.8-3.7.1-.4-1.1-1.9-1.3-1.9-.2 0-8.6 3.4-8.9 3.4z"/><path class="st88" d="M177.7 196.4c0 .3.6 2.4.9 2.4.4 0 3.6-1.1 3.6-1.3 0 0-.7-2.5-1.2-2.5-.4.1-3.3 1.1-3.3 1.4zm1.1.1c0-.2 1.7-.6 1.9-.6s.5 1.3.5 1.3c0 .2-1.7.7-1.9.7s-.5-1.3-.5-1.4z"/><path class="st88" d="M182.2 195.9s-1.7.5-1.7.6c0 .1.2.5.2.5s1.7-.4 1.7-.5c0-.2-.2-.6-.2-.6z"/></g></svg>