<svg xmlns="http://www.w3.org/2000/svg" viewBox="0 0 390 390" xml:space="preserve"><path fill="#251226" d="M309.05 114.54c-8.6 24.88-28.83 45.47-53.55 54.51-10.34 3.78-22.18 5.53-32.17.9-10-4.62-16.75-27.64-16.75-27.64s.46 13.31-12.14 16.05c-12.63-2.56-12.36-15.88-12.36-15.88s-6.42 23.11-16.35 27.87c-9.93 4.76-21.78 3.19-32.18-.45-24.85-8.68-45.37-28.98-54.33-53.74-52.28 31.55-81.35 97.4-69.44 157.26 8.7-22.56 32.47-38.39 56.64-37.73 11.85.32 23.42 4.62 32.95 11.59 10.76 7.86 14.45 18.05 21.71 28.14 11.9-16.19 23.34-29.66 44.47-33.46 1.74 14.51 15.08 26.53 29.56 27.36v.02c.04 0 .07-.01.11-.01.04 0 .07.01.11.01v-.02c14.47-1.04 27.64-13.25 29.17-27.78 21.18 3.49 32.81 16.81 44.94 32.82 7.11-10.19 10.66-20.43 21.3-28.44 9.44-7.1 20.94-11.56 32.79-12.05 24.16-1 48.15 14.49 57.17 36.92 11.07-60.04-18.94-125.47-71.65-156.25z"/></svg>