<?xml version="1.0" encoding="utf-8"?>
<!-- Generator: Adobe Illustrator 26.0.1, SVG Export Plug-In . SVG Version: 6.00 Build 0)  -->
<svg version="1.1" xmlns="http://www.w3.org/2000/svg" xmlns:xlink="http://www.w3.org/1999/xlink" x="0px" y="0px"
	 viewBox="0 0 390 390" enable-background="new 0 0 390 390" xml:space="preserve">
<g id="BACKGROUND" display="none">
	<g display="inline">
		<defs>
			<rect id="SVGID_1_" x="-492.98" y="-275.5" width="1920" height="1080"/>
		</defs>
		<clipPath id="SVGID_00000003809236433344517850000009945033288765906841_">
			<use xlink:href="#SVGID_1_"  overflow="visible"/>
		</clipPath>
		<g clip-path="url(#SVGID_00000003809236433344517850000009945033288765906841_)">
			<rect x="-492.98" y="-275.5" fill="#6A42C8" width="1920" height="1080"/>
			<g>
				<path fill="#9165E6" d="M372.06-56.28c-16.35-17.75-33.68-34.69-51.93-50.72C130.58-273.41-164.76-338.73-396.75-225.16
					c-290.68,142.3-438.31,519.54-337.84,823.53c65.3,197.57,224.49,353.61,423.73,412.47c310.05,91.58,663.09-63.85,803.29-355.68
					c10.14-21.11,19.09-42.79,26.75-64.92C595.56,369.75,527.91,112.92,372.06-56.28z"/>
				<path fill="none" stroke="#9165E6" stroke-width="2" stroke-miterlimit="10" d="M-566.34,143.49
					c-58.64,115.89-107.5,238.96-120.59,368.18c-13.09,129.22,12.58,265.97,90.94,369.56c63.69,84.19,158.87,141.87,260.75,169.53
					s210.16,26.63,313.98,7.5c122.13-22.5,243.16-72.3,327.89-163.09c77.69-83.25,119.45-195.97,129.42-309.41
					c9.96-113.44-10.12-227.86-43.87-336.62c-37.43-120.65-93.22-238.16-181.1-328.9C99.68-194.81-61.48-259.94-221.53-254.6
					C-513.49-244.87-790.6,6.24-818.85,298.93c-19.36,200.61,80.04,397.71,242.95,513.42C-422.5,921.31-222.65,956.38-37.46,923.04
					c218.49-39.33,422.62-177.73,517.7-378.34c95.07-200.62,66.55-460.21-87.71-619.86C263.45-208.74,70.05-259.52-115.32-271.45"/>
				<path fill="none" stroke="#9165E6" stroke-width="2" stroke-miterlimit="10" d="M-375.71,956.27
					c-120.68-20.26-228.68-96.11-298.65-196.51s-103.53-223.56-106.39-345.9c-4.06-173.07,53.38-347.92,163.83-481.21
					c112.68-135.98,288.57-230.2,464.49-247.35c178.36-17.39,369.65,67.57,489.92,196.64c11.15,11.96,21.8,24.39,31.89,37.26
					c129.23,164.68,165.5,397.72,92.44,593.89"/>
			</g>
			<g>
				<path fill="#B587FF" d="M222.9,71.28c-11.54-12.53-23.78-24.49-36.66-35.81C52.42-82.01-156.09-128.12-319.88-47.94
					C-525.1,52.52-629.32,318.84-558.39,533.46c46.1,139.48,158.49,249.65,299.15,291.2c218.89,64.66,468.13-45.08,567.11-251.11
					c7.16-14.9,13.47-30.21,18.89-45.83C380.68,372.05,332.93,190.74,222.9,71.28z"/>
				<path fill="none" stroke="#B587FF" stroke-width="2" stroke-miterlimit="10" d="M-439.6,212.32
					c-41.4,81.82-75.89,168.7-85.13,259.93c-9.24,91.23,8.88,187.77,64.2,260.9c44.96,59.44,112.16,100.16,184.09,119.69
					c71.93,19.53,148.37,18.8,221.67,5.29c86.22-15.88,171.67-51.04,231.48-115.14c54.85-58.78,84.33-138.35,91.37-218.44
					c7.03-80.09-7.15-160.87-30.97-237.65c-26.43-85.17-65.81-168.14-127.85-232.2C30.6-26.52-83.18-72.5-196.17-68.73
					c-206.12,6.87-401.76,184.15-421.7,390.79c-13.67,141.63,56.51,280.78,171.52,362.47c108.3,76.92,249.39,101.68,380.13,78.15
					c154.25-27.77,298.37-125.47,365.49-267.1s46.98-324.91-61.93-437.61C146.22-36.35,9.68-72.2-121.19-80.62"/>
				<path fill="none" stroke="#B587FF" stroke-width="2" stroke-miterlimit="10" d="M-305.02,786.13
					c-85.2-14.3-161.44-67.85-210.84-138.73c-49.4-70.88-73.09-157.83-75.11-244.2c-2.86-122.18,37.68-245.63,115.67-339.73
					c79.55-96,203.73-162.52,327.93-174.63c125.92-12.28,260.97,47.7,345.88,138.83c7.87,8.45,15.39,17.22,22.52,26.3
					c91.24,116.27,116.84,280.79,65.26,419.28"/>
			</g>
		</g>
		<g clip-path="url(#SVGID_00000003809236433344517850000009945033288765906841_)">
			<path fill="#251226" d="M1427.02,490.32c-226.38,0-560.52,104.55-700.5,149.24c-69.35,22.14-120.33,39.99-152.97,46.34
				c-50.76,9.87-161.61,9.59-201.5-23.31c-39.73-32.77-86.76-66.27-141.37-97.07C-31.31,417.75-421.97,423.47-492.98,430.8v175.59
				v227.37l0,0h993.4c-0.68-0.83-1.36,0.84-2.06,0h928.66V490.32z"/>
			<g>
				<g>
					
						<rect x="210.66" y="414.99" transform="matrix(0.9542 0.2992 -0.2992 0.9542 158.2226 -42.5705)" fill="#251226" width="14.91" height="160.73"/>
					
						<rect x="223.88" y="416.24" transform="matrix(-0.2992 0.9542 -0.9542 -0.2992 732.9805 368.044)" fill="#251226" width="14.91" height="73.87"/>
				</g>
				<g>
					
						<rect x="332.69" y="462.96" transform="matrix(0.6525 0.7578 -0.7578 0.6525 529.9098 -68.956)" fill="#251226" width="14.91" height="160.73"/>
					
						<rect x="366.18" y="477.55" transform="matrix(-0.7578 0.6525 -0.6525 -0.7578 992.4775 660.5415)" fill="#251226" width="14.91" height="73.87"/>
				</g>
				<path fill="#251226" d="M183.05,579.4c-1.29-6.81-5.62-11.68-5.49-19.35c0.1-5.95,1.96-16.95,7.65-20.31
					c13.12-7.74,16.03,13.1,18.46,20.37c4.59-5.76,6.26-17.09,11.09-24.12c8.97-13.05,23.5-27.32,39.59-30.69
					c14.05-2.94,31.39,1.29,34.19,16.67c1.58,8.69-0.27,19.16-3.92,27.1c13-4.22,26.12-0.5,18.88,14.36
					c12.08-7.23,27.85-8.16,41.18-4.23c12.39,3.65,22.96,17.57,18.29,30.56c-4.16,11.58-16.41,16.41-24.01,25.06
					c7.81-3.59,26.61-3.69,31.98,4.87c3.89,6.19-2.78,16.38-8.52,19.33c10.51-17.67,41.94,1.92,46.73,15.18
					c2.62,7.26-1.74,15.54-4.58,22.08c-3.09,7.12-8.81,11.09-16.36,13.5c-14.98,4.79-32.87,2.32-47.56-2.45
					c-18.41-5.98-35.78-15.01-51.58-26.17c-29.37-20.75-63.31-39-89.86-63.4C192.07,591.22,183.9,583.87,183.05,579.4z"/>
			</g>
			<g>
				<g>
					
						<rect x="1295.37" y="329.9" transform="matrix(0.9507 0.3101 -0.3101 0.9507 191.4073 -383.7255)" fill="#251226" width="14.91" height="160.73"/>
					
						<rect x="1309.08" y="331.31" transform="matrix(-0.3101 0.9507 -0.9507 -0.3101 2074.8213 -769.2343)" fill="#251226" width="14.91" height="73.87"/>
				</g>
				<path fill="#251226" d="M1187.16,522.52c-4.63-5.15-10.86-7.08-14.72-13.71c-3-5.14-7.1-15.51-3.98-21.33
					c7.21-13.42,20.5,2.9,26.34,7.86c0.94-7.31-3.5-17.85-3.01-26.37c0.91-15.81,5.94-35.55,17.96-46.76
					c10.49-9.79,27.51-15.16,37.88-3.45c5.85,6.61,9.7,16.52,10.69,25.21c8.93-10.35,22.08-13.96,23.59,2.5
					c6.59-12.45,19.6-21.41,33.02-24.96c12.48-3.3,28.74,3.13,31.48,16.66c2.44,12.06-5.53,22.54-7.55,33.87
					c4.82-7.11,20.85-16.94,29.88-12.4c6.54,3.28,6.11,15.46,2.72,20.95c-0.17-20.56,36.87-20.08,47.83-11.23
					c6,4.85,6.56,14.19,7.52,21.26c1.05,7.69-1.79,14.05-7,20.03c-10.33,11.86-26.92,19.02-41.95,22.55
					c-18.85,4.43-38.38,5.7-57.68,4.34c-35.87-2.53-74.36-0.56-109.71-7.67C1201,527.95,1190.19,525.9,1187.16,522.52z"/>
			</g>
		</g>
	</g>
</g>
<g id="OBJECTS">
	<g display="none">
		<polygon display="inline" fill="#FFFFFF" points="-377.77,202.09 -353.38,205.34 -377.77,208.59 -381.02,232.98 -384.27,208.59 
			-408.66,205.34 -384.27,202.09 -381.02,177.7 		"/>
		<polygon display="inline" fill="#FFFFFF" points="-5.85,-143.26 9.87,-141.17 -5.85,-139.08 -7.94,-123.36 -10.04,-139.08 
			-25.75,-141.17 -10.04,-143.26 -7.94,-158.98 		"/>
		<polygon display="inline" fill="#FFFFFF" points="-358.29,-91.9 -342.57,-89.81 -358.29,-87.72 -360.38,-72 -362.48,-87.72 
			-378.19,-89.81 -362.48,-91.9 -360.38,-107.62 		"/>
		<polygon display="inline" fill="#FFFFFF" points="444.64,432.33 460.36,434.42 444.64,436.52 442.55,452.23 440.45,436.52 
			424.74,434.42 440.45,432.33 442.55,416.61 		"/>
		<polygon display="inline" fill="#FFFFFF" points="350.77,9.05 366.49,11.14 350.77,13.23 348.68,28.95 346.59,13.23 330.87,11.14 
			346.59,9.05 348.68,-6.67 		"/>
		<polygon display="inline" fill="#FFFFFF" points="-149.9,30.3 -125.51,33.55 -149.9,36.8 -153.14,61.18 -156.39,36.8 
			-180.78,33.55 -156.39,30.3 -153.14,5.91 		"/>
	</g>
	<g display="none">
		<g display="inline">
			<path fill="#F1D8A2" d="M-241.99,515.39L-375.66,402.6c15.33-42.06,30.66-84.12,46-126.17c6.96-19.08,14.54-37.09,10.25-57.88
				c1.67,1.25,3.34,2.5,5.02,3.76c-1.75-1.56-1.43-12.63-1.52-15.37c-0.2-6.22-1.57-13.7-0.38-19.78c1.06,1.02,7.08,6.28,6.95,7.65
				c0.25-2.86,0.49-5.73,0.74-8.59c1.55,1.08,3.11,2.17,4.66,3.25c-2.05-5.86,2.31-13.05,8.45-13.95
				c-2.21-19.41,2.42-42.02,20.91-51.17c-0.64,11.56,4.94,21.71,13.24,29.48c8.2,7.68,18.25,13.07,27.2,19.87
				c9.32,7.09,17.54,16.86,20.64,28.39c2.27,8.46,1.15,19.08,1.55,27.8c0.67,14.63,1.33,29.27,2,43.9l-73.1,136.46l52.22,91.9
				L-241.99,515.39z"/>
			<path fill="#E0AC75" d="M-234.48,501.78c-11.89-10.39-24.07-20.46-35.42-31.44c-9.86-9.54-19.8-18.8-29.94-28.04
				c-8.94-8.14-17.81-16.92-23.02-28c-0.4-0.85,0.39-1.82,1.3-1.35c0.54,0.28,1.11,0.5,1.68,0.7
				c-12.46-11.94-17.41-31.71-21.14-47.74c-0.18-0.76,0.65-1.62,1.4-1.12c2.42,1.61,4.8,3.27,7.16,4.97
				c-4.36-10.89-0.87-24.32,0.63-35.42c2.19-16.19,4.75-32.59,11.96-47.42c0.38-0.77,1.54-0.56,1.77,0.2
				c0.83,2.69,1.85,5.31,2.82,7.95c3.03-21.85,14.15-41.4,23.73-61.05c-2.75,2.11-5.45,4.27-8.12,6.49c-0.6,0.5-1.32,0.3-1.63-0.4
				c-5.29-12-2.97-24.81-0.61-37.23c0.13-0.68,1.15-1,1.61-0.46c1.1,1.29,2.35,2.4,3.58,3.55c-2.1-10.04-1.09-20.22,0.55-30.32
				c-5.78,1.31-9.74,8.16-7.77,13.81c-1.55-1.08-3.11-2.17-4.66-3.25c-0.25,2.86-0.49,5.73-0.74,8.59c0.13-1.37-5.89-6.63-6.95-7.65
				c-1.19,6.07,0.17,13.56,0.38,19.78c0.09,2.73-0.24,13.81,1.52,15.37c-1.67-1.25-3.34-2.5-5.02-3.76
				c4.28,20.8-3.3,38.8-10.25,57.88c-15.33,42.06-30.66,84.12-46,126.17l133.68,112.79l9.73-11.56
				C-232.99,503.14-233.72,502.44-234.48,501.78z"/>
			<g>
				<path fill="#914E4E" d="M-261.43,448.34l-5.76-10.14c-3.97,5.53-7.94,11.07-11.9,16.6
					C-273.2,452.65-267.31,450.49-261.43,448.34z"/>
				<path fill="#914E4E" d="M-285.7,291.66c-12.46-11.09-24.93-22.17-37.39-33.26l-8.96,24.56
					C-316.6,285.86-301.15,288.76-285.7,291.66z"/>
				<path fill="#914E4E" d="M-301.3,429.95c-11.24,4.07-23.32,6.18-35.23,5.67l8.39,7.08C-319.19,438.45-310.24,434.2-301.3,429.95z
					"/>
				<path fill="#914E4E" d="M-350.97,334.87l-3.89,10.67c14.78,0.45,28.93,5.97,42.7,11.44
					C-325.1,349.61-338.04,342.24-350.97,334.87z"/>
				<path fill="#914E4E" d="M-280.17,404.86l4.96-9.27c-10.24-7.7-20.47-15.4-30.71-23.11
					C-297.33,383.28-288.75,394.07-280.17,404.86z"/>
				<path fill="#914E4E" d="M-258.09,363.64l6.86-12.8c-18.08-16.42-41.85-26.47-66.24-27.89
					C-294.71,331.3-274.13,345.47-258.09,363.64z"/>
				<path fill="#914E4E" d="M-241.99,199.48c-12.03,1.15-23.97,3.35-35.62,6.57c21.63-2.65,43.76-1.01,64.78,4.7l-0.54-11.78
					C-222.49,200.24-233.03,198.63-241.99,199.48z"/>
				<path fill="#914E4E" d="M-275.69,438.79c-14.46,3.85-28.93,7.69-43.39,11.54l12.89,10.87
					C-296.03,453.73-285.86,446.26-275.69,438.79z"/>
				<path fill="#914E4E" d="M-245.13,259.37c9.25,9.42,18.51,18.84,27.76,28.27l7.07-13.2C-219,264.7-232.04,258.74-245.13,259.37z"
					/>
				<path fill="#914E4E" d="M-257.14,479.87c-6.12,3.5-13.01,5.4-20.02,5.84l9.65,8.15C-264.05,489.19-260.6,484.53-257.14,479.87z"
					/>
			</g>
		</g>
		<g display="inline">
			<path fill="#251226" d="M-184.12,201.05l-14.43-67.14c0,0-26.35-62.75,121.73,14.43l-106.67,56.47"/>
			<path fill="#E07800" d="M-120.33,135.9c-14.7,7.23-29.71,13.87-44.89,20.04c-8.8,3.58-17.62,7.13-26.2,11.15l7.3,33.96l0.63,3.76
				l106.67-56.47c-12.78-6.66-24.23-12.26-34.54-16.96C-114.34,132.9-117.33,134.43-120.33,135.9z"/>
			<path fill="#251226" d="M-174.87,344.01L-174.87,344.01c-52.42-0.81-87.88-53.75-68.66-102.53l2.47-6.26
				c7.54-19.14,22.61-34.35,41.69-42.07l156.53-63.29c21.35-8.63,45.47-6.98,65.45,4.47l15.95,9.14
				c45.55,26.11,50.89,89.72,10.34,123.06L4.24,303.24c-9.87,8.12-21.66,13.58-34.24,15.87l-130.29,23.69
				C-165.1,343.68-169.98,344.08-174.87,344.01z"/>
			<path fill="none" stroke="#FFFFFF" stroke-width="5.1045" stroke-miterlimit="10" d="M-184.29,114.77
				c23.64,2.15,47.49,13.17,70.59,23.29"/>
		</g>
		<g display="inline">
			<polygon fill="#E0AC75" points="-192.65,362.76 -249.43,502.29 -222.25,559.67 -86.34,559.67 -86.34,362.76 			"/>
			<path fill="#F1D8A2" d="M-222.25,558.85l77.18-30.2c0,0,26.82-1.58,11.04,31.02L-222.25,558.85z"/>
		</g>
		<g display="inline">
			<path fill="#E0AC75" d="M42.09,558.02h-85.67V538l50.68-7.07c16.06-2.24,31.1,8.36,34.39,24.24L42.09,558.02z"/>
			<path fill="#F1D8A2" d="M73.49,384.03c-5.6-11.5-11.19-22.99-16.79-34.49c-11.54-23.71-23.08-47.43-34.63-71.14
				c-3.68-7.57-7.55-14.8-11.72-22.1l8,2.53L5.15,241.26l12.92,4.86c-1.18-0.54-2.63-3.43-3.43-4.48c-1.35-1.77-2.71-3.53-4.06-5.3
				c-2.6-3.4-5.2-6.79-7.8-10.19c-2.6-3.4-5.2-6.79-7.8-10.19c-1.67-2.18-3.34-5.32-5.86-6.65c-2.72-1.44-6.6-1.57-9.58-2.1
				c-4.09-0.73-8.19-1.37-12.3-1.92c-7.78-1.04-15.61-1.77-23.45-2.2c-23.14-1.26-46.53-0.01-69.36,4.04c-4.48,0.8-9,1.64-13.4,2.84
				c-0.83,0.23-2.31,5.35-2.67,6.08c-1.49,3-4.31,5-6.59,7.46c-6.39,6.9-12.78,13.8-19.17,20.7l12.71-4.32l-15.73,27.17l6.97-2.31
				c-12.66,31.66-27.15,62.66-40.88,93.88c-3.72,8.47-7.45,16.94-11.17,25.41l112.92,174.6h56.62c24.59,0,46.9-14.39,57.05-36.78
				L73.49,384.03z"/>
			<path fill="#E0AC75" d="M-159.33,470.92l56.73,87.72h55.59c25.21,0,48.09-14.75,58.5-37.72l22.65-50l16.27-35.32l-33.02,35.32
				H-159.33z"/>
			<path fill="#914E4E" d="M-55.38,203.14c-3.54-0.2-7.01-0.33-10.4-0.41c1.3,7.69,2.59,15.38,3.89,23.06
				c2.62-6.17,4.63-12.6,5.98-19.17C-55.68,205.49-55.48,204.32-55.38,203.14z"/>
			<path fill="#914E4E" d="M-87.23,202.97c1.55,3.82,4.49,7.77,6.02,11.43c1.99,4.75,3.66,9.63,4.98,14.6
				c0.61-8.78,1.21-17.56,1.82-26.35C-78.84,202.68-83.14,202.78-87.23,202.97z"/>
			<path fill="#914E4E" d="M-179.62,311.08c-0.97-0.66-1.96-1.4-2.86-2.21l-9.81,22.32c20.54,10.2,43.28,15.96,66.21,16.72
				C-143.93,335.64-161.77,323.36-179.62,311.08z"/>
			<path fill="#914E4E" d="M-165.8,282.31c-1.12-0.9-2.32-2.04-3.57-3.26l-9.1,20.7c22.6,10.26,46.98,16.59,71.72,18.59
				c-7.66-3.44-15.16-7.23-22.48-11.35C-142.04,299.75-154.29,291.49-165.8,282.31z"/>
			<path fill="#914E4E" d="M30.6,295.91l-8.12-16.69c-6.35,8.43-13.13,16.26-20.33,23.33c-4.79,4.7-9.75,9.09-14.86,13.13
				C2.5,312.21,17.15,305.49,30.6,295.91z"/>
			<path fill="#914E4E" d="M35.65,306.29c-10.36,12.4-20.72,24.8-31.09,37.2c14.35-2.32,28.16-8.43,40.5-17.85L35.65,306.29z"/>
			
				<path fill="none" stroke="#E0AC75" stroke-width="3.0627" stroke-linecap="round" stroke-linejoin="round" stroke-miterlimit="10" d="
				M-38.43,297.93c2.16,8.7,4.33,17.39,6.49,26.09c-2.89-2.21-5.78-4.43-8.67-6.64c2.48,8.15,3.02,16.88,1.56,25.27
				c-1.22-1.1-2.45-2.21-3.68-3.31c0.7,9.18-1.37,18.54-5.88,26.57"/>
		</g>
		<g display="inline">
			<path fill="#F1D8A2" d="M-65.04,569.68h-38.32c0,0-4.55-5.34-1.17-13.8l-81.68-126.53h105.66L-65.04,569.68z"/>
			<path fill="none" stroke="#E0AC75" stroke-width="3.0627" stroke-linecap="round" stroke-miterlimit="10" d="M-100.74,552.62
				c-2.72,1.76-4.67,4.65-5.3,7.82c-0.62,3.17,0.1,6.59,1.94,9.24"/>
			<path fill="none" stroke="#E0AC75" stroke-width="3.0627" stroke-linecap="round" stroke-miterlimit="10" d="M-91.5,552.46
				c-2.56,1.94-4.25,4.97-4.56,8.16c-0.31,3.19,0.77,6.49,2.9,8.89"/>
			<path fill="none" stroke="#E0AC75" stroke-width="3.0627" stroke-linecap="round" stroke-miterlimit="10" d="M-83.19,551.26
				c-3.27,1.82-5.21,5.78-4.62,9.47c0.58,3.7,3.64,6.87,7.31,7.59"/>
			<path fill="#914E4E" d="M-88.09,498.62c-12.25-2.24-25.48,1.7-34.51,10.28c-1.99,1.89-5.04,4.41-7.67,7.1l5.09,7.88
				c3.13-5.76,6.88-10.89,12.39-15.25C-107.12,504.18-95.79,497.21-88.09,498.62z"/>
			<path fill="#914E4E" d="M-149.56,486.11c0.26-0.16,0.5-0.3,0.77-0.48c10.91-7.3,21.36-15.44,32.5-22.4
				c3.68-2.54,7.47-5.13,11.81-6.22c4.34-1.1,9.41-0.4,12.46,2.87c-4.59-4.34-9.81-8.94-16.12-9.02c-3.7-0.04-7.22,1.52-10.59,3.06
				c-13.3,6.05-26.59,12.1-39.89,18.15L-149.56,486.11z"/>
		</g>
		<g display="inline">
			<path fill="#E07800" d="M-187.83,312.91c0,0,26.31,43.99,145.21,96.24l-162.27,46.11l-38.28-88.02
				C-243.17,367.24-221.41,326.77-187.83,312.91z"/>
			
				<path fill="none" stroke="#FFFFFF" stroke-width="5.1045" stroke-linecap="round" stroke-linejoin="round" stroke-miterlimit="10" d="
				M-165.67,346.33c8.06,8.91,17.7,16.38,28.33,21.97"/>
			
				<path fill="none" stroke="#FFFFFF" stroke-width="5.1045" stroke-linecap="round" stroke-linejoin="round" stroke-miterlimit="10" d="
				M-123.8,375.71c0-0.19,0-0.38,0-0.57"/>
		</g>
		<g display="inline">
			<path fill="#E07800" d="M-35.6,404.58c0,0,85.69-69.94,59.37-126c0,0,43.36,16.94,72.02,37.48l7,55.69L-35.6,404.58z"/>
			
				<path fill="none" stroke="#FFFFFF" stroke-width="5.1045" stroke-linecap="round" stroke-linejoin="round" stroke-miterlimit="10" d="
				M46.38,298.44c13.13,6.75,19.52,10.61,29.16,16.15"/>
		</g>
		<g display="inline">
			<path fill="#251226" d="M-60.28,421.62c2.43,3.43,5.55,6.32,9.3,8.14c5.95,2.88,13.47,1.41,18.53-2.84
				c5.63-4.73,8.23-12.13,9.74-19.33c1.18-5.6,1.69-11.96-1.72-16.55c-2.8-3.78-7.63-5.45-12.27-6.22
				c-9.38-1.54-21.24-1.1-26.71,7.97c-3.14,5.21-3.55,11.76-2.02,17.64C-64.4,414.34-62.67,418.24-60.28,421.62z"/>
			<path fill="#251226" d="M-55.4,423.01c1.38,2.63,2.29,5.5,2.69,8.44c0.31,2.28-0.28,5.02,1.01,7.04c1.4,2.21,4.42,2.55,7.03,2.67
				c2.33,0.11,5.07,0.03,6.43-1.88c0.94-1.32,0.85-3.08,0.93-4.7c0.18-3.64,1.41-7.21,3.49-10.2"/>
			<path fill="#FFFFFF" d="M-59.92,413c0.09,2.09,0.85,4.24,2.46,5.57c1.61,1.33,4.18,1.58,5.77,0.22c1.37-1.17,1.71-3.12,1.88-4.91
				c0.21-2.27,0.28-4.64-0.55-6.77c-0.83-2.13-2.74-3.98-5.02-4.1C-60.2,402.76-60.07,409.76-59.92,413z"/>
			<path fill="#FFFFFF" d="M-38.83,413c0.09,2.09,0.85,4.24,2.46,5.57c1.62,1.33,4.18,1.58,5.77,0.22c1.37-1.17,1.71-3.12,1.88-4.91
				c0.21-2.27,0.28-4.64-0.55-6.77c-0.83-2.13-2.74-3.98-5.02-4.1C-39.11,402.76-38.98,409.76-38.83,413z"/>
			<path fill="#FFFFFF" d="M-44.08,414.14c0,0,5.47,9.48,4.63,11.74c-0.51,1.35-6.96,3.95-9.62-0.74c-0.35-0.63,0.2-1.64,0.78-2.83
				C-47.71,421.08-44.08,414.14-44.08,414.14z"/>
		</g>
		<g display="inline">
			<g>
				<path fill="#251226" d="M-134.19,228.34h50.98c0,0,0.79,17.49-29.06,17.49C-133.64,245.82-134.19,228.34-134.19,228.34z"/>
				<path fill="#FF8F0F" d="M-109.42,236.78c0,4.55-3.69,8.24-8.24,8.24c-4.55,0-8.24-3.69-8.24-8.24c0-4.55,3.69-8.24,8.24-8.24
					C-113.1,228.54-109.42,232.23-109.42,236.78z"/>
				<g>
					<path fill="#251226" d="M-118.25,228.14c0.85,1.43,1.28,2.86,1.6,4.29c0.3,1.43,0.44,2.86,0.44,4.29
						c0,1.43-0.14,2.86-0.44,4.29c-0.31,1.43-0.75,2.86-1.61,4.29c-0.85-1.43-1.29-2.86-1.61-4.29c-0.3-1.43-0.44-2.86-0.44-4.29
						c0-1.43,0.14-2.86,0.44-4.29C-119.53,231-119.1,229.57-118.25,228.14z"/>
				</g>
				<path fill="#FFFFFF" d="M-110.35,233.63c0,1.13-1.6,2.05-3.58,2.05c-1.98,0-3.58-0.92-3.58-2.05c0-1.13,1.6-2.05,3.58-2.05
					C-111.95,231.59-110.35,232.5-110.35,233.63z"/>
			</g>
			<g>
				<path fill="#251226" d="M-51.17,228.34h43.85c0,0,2.65,17.49-23.02,17.49C-50.62,245.82-51.17,228.34-51.17,228.34z"/>
				<path fill="#FF8F0F" d="M-24.25,236.78c0,4.55-3.69,8.24-8.24,8.24c-4.55,0-8.24-3.69-8.24-8.24c0-4.55,3.69-8.24,8.24-8.24
					C-27.94,228.54-24.25,232.23-24.25,236.78z"/>
				<g>
					<path fill="#251226" d="M-32.49,228.14c0.85,1.43,1.28,2.86,1.6,4.29c0.3,1.43,0.44,2.86,0.44,4.29c0,1.43-0.14,2.86-0.44,4.29
						c-0.31,1.43-0.75,2.86-1.61,4.29c-0.85-1.43-1.29-2.86-1.61-4.29c-0.3-1.43-0.44-2.86-0.44-4.29c0-1.43,0.14-2.86,0.44-4.29
						C-33.78,231-33.34,229.57-32.49,228.14z"/>
				</g>
				<path fill="#FFFFFF" d="M-25.02,233.63c0,1.13-1.6,2.05-3.58,2.05s-3.58-0.92-3.58-2.05c0-1.13,1.6-2.05,3.58-2.05
					S-25.02,232.5-25.02,233.63z"/>
			</g>
			<g>
				
					<path fill="none" stroke="#251226" stroke-width="3.1689" stroke-linecap="round" stroke-linejoin="round" stroke-miterlimit="10" d="
					M1.09,263.8c0,0-3.07,4.66-6.04,5.82c-15.12,5.94-61.48-15.62-61.48-15.62s-46.36,21.56-61.48,15.62
					c-2.97-1.17-6.04-5.82-6.04-5.82"/>
				
					<line fill="none" stroke="#251226" stroke-width="3.1689" stroke-linecap="round" stroke-miterlimit="10" x1="-66.44" y1="254.01" x2="-66.44" y2="244.21"/>
				<path fill="#251226" d="M-73.31,234.47c-1.23,1.62-1.18,4.09,0.12,5.65c0.92,1.11,2.28,1.71,3.54,2.4
					c1.26,0.69,2.53,1.61,2.96,2.98c0.84-1.87,5.14-3.48,6.69-4.82c1.8-1.55,1.69-4.37,0-6.45
					C-62.3,231.39-70.97,231.39-73.31,234.47z"/>
				<path fill="#FFFFFF" d="M-63.07,235.92c0,0.99-0.8,1.79-1.79,1.79c-0.99,0-1.79-0.8-1.79-1.79c0-0.99,0.8-1.79,1.79-1.79
					C-63.87,234.13-63.07,234.93-63.07,235.92z"/>
				<path fill="none" stroke="#E0AC75" stroke-width="3.0627" stroke-linecap="round" stroke-miterlimit="10" d="M-79.19,276.68
					c8.71,0,17.42,0,26.12,0"/>
			</g>
		</g>
		<path display="inline" fill="none" stroke="#E0AC75" stroke-width="3.0627" stroke-linecap="round" stroke-miterlimit="10" d="
			M-91.48,467.08c2.83,6.1,5.65,12.2,8.48,18.3c-1.68-0.65-3.36-1.3-5.03-1.95c5.06,11.51,8.72,23.63,10.88,36.01"/>
		<polygon display="inline" fill="#FFFFFF" points="114.84,214.38 89.21,244.07 87.64,204.88 48.45,203.36 78.11,177.7 
			54.86,146.11 93.42,153.3 103.63,115.43 122.04,150.06 158.02,134.42 142.43,170.41 177.08,188.79 139.22,199.04 146.46,237.59 		
			"/>
		<g display="inline">
			<path fill="none" stroke="#251226" stroke-width="4.3001" stroke-linecap="round" stroke-miterlimit="10" d="M108,318.95
				c2.71-20.56,3.51-41.39,4.06-62.09c0.31-11.64,0.46-23.28,0.51-34.92c0.02-4.82-0.77-10.31-0.02-15.06
				c0.6-3.8,5.06-7.41,2.96-11.39c-1.21-2.3-4.52-3.21-5.37-5.67c-1.38-3.97,3.19-6.12,4.56-9.33c1.74-4.1-0.81-5.29-2.42-8.8
				c-1.89-4.12-0.18-7.71,2.09-11.34"/>
			<path fill="none" stroke="#251226" stroke-width="10.7503" stroke-linecap="round" stroke-miterlimit="10" d="M108,318.95
				c2.07-15.67,3.02-31.5,3.6-47.31"/>
		</g>
		<g display="inline">
			<path fill="#F1D8A2" d="M12.42,396.58l58.29-44.06l33.54-59.28l17.74,7.01c0,0-1.62,16.05-7.65,15.72
				c-3.87,1.15-16.17,89.37-16.28,122.09l-10.62-13l-3.03,9.05c-9.42-12.66-5-3.42-16.83,3.89c-5.23,3.23-21.52,12.64-35.68,20.85
				c-11.37,6.6-25.95,1.39-30.57-10.92L-15.89,402L12.42,396.58z"/>
			<g>
				<path fill="#914E4E" d="M32.45,390.34c0.53,1.45,9.9,19.19,10.88,17.93c-4.28-9.69-6.08-20.43-5.37-31l-8.13,6.15
					C30.68,385.76,31.62,388.07,32.45,390.34z"/>
				<path fill="#914E4E" d="M94.13,342.67c-1.33-3.66-2.69-7.4-5.13-10.43c-1.2-1.49-2.72-2.8-4.41-3.7l-5.34,9.23
					C84.21,339.4,89.17,341.04,94.13,342.67z"/>
				<path fill="#914E4E" d="M76.62,342.32l-5.91,10.2l-4.64,1.35c7.84,7.45,14.24,16.41,18.7,26.27
					C83.7,367.25,80.94,354.51,76.62,342.32z"/>
			</g>
		</g>
	</g>
	<g display="none">
		<g display="inline">
			<g>
				<polygon fill="#FCC483" points="348.77,180 346.36,180.28 317.62,345.91 362.17,342.68 387.67,240.56 				"/>
				<polygon fill="#690E0A" points="386.27,241.83 346.36,180.28 316.44,347.89 360.99,344.66 				"/>
				
					<linearGradient id="SVGID_00000170253612575354155030000003313117997815520421_" gradientUnits="userSpaceOnUse" x1="320.6388" y1="229.2372" x2="401.975" y2="229.2372" gradientTransform="matrix(0.9936 -0.1126 0.1126 0.9936 -39.9891 78.1154)">
					<stop  offset="0.1941" style="stop-color:#FFFFFF"/>
					<stop  offset="1" style="stop-color:#CACACA"/>
				</linearGradient>
				<polygon fill="url(#SVGID_00000170253612575354155030000003313117997815520421_)" points="383.49,245.32 334.83,181.87 
					313.66,351.38 358.21,348.15 				"/>
				<path fill="#FFFFFF" d="M282.09,271.87l0.14-12.4c0,0,18.95-17.1,52.37-18.05c33.42-0.95,48.48,3.51,48.48,3.51l-2.59,21.46
					L282.09,271.87z"/>
				<polygon fill="#FCC483" points="259.5,374.38 279.19,264.57 378.38,248.66 354.13,357.74 				"/>
				<polygon fill="#FF8F0F" points="259.11,376.84 278.8,267.03 378.3,251.1 353.74,360.2 				"/>
				<path fill="#FCC483" d="M386.91,239.66l0.71,0.96l-24.54,107.64c-0.01,0.02-0.02,0.05-0.03,0.07l-8.71,11.45
					c-0.11,0.14-0.33,0.04-0.3-0.13l24.34-111C378.32,248.67,386.91,239.66,386.91,239.66z"/>
				<polygon fill="#690E0A" points="377.83,251.26 387.6,240.71 363.04,348.65 353.74,360.2 				"/>
				<g>
					<path fill="#CACACA" d="M284.87,260.05c1.67-1.14,3.34-2.31,5.05-3.41c1.78-0.98,3.53-2.03,5.33-2.97
						c1.85-0.84,3.69-1.73,5.57-2.51c1.91-0.71,3.8-1.48,5.73-2.13c7.74-2.59,15.79-4.14,23.88-5.08
						c8.11-0.83,16.27-1.03,24.39-0.61c2.03,0.12,4.06,0.29,6.08,0.44c2.02,0.18,4.04,0.42,6.06,0.64c2.01,0.27,4.02,0.59,6.03,0.89
						c2,0.34,4,0.73,5.99,1.11l-6.04-0.74c-2.02-0.19-4.03-0.41-6.05-0.57c-2.02-0.14-4.04-0.32-6.05-0.44
						c-2.02-0.08-4.04-0.19-6.06-0.24c-8.08-0.2-16.18-0.01-24.2,0.92c-8.03,0.82-15.98,2.37-23.7,4.71
						c-1.93,0.58-3.82,1.29-5.73,1.93c-1.89,0.71-3.72,1.55-5.6,2.31c-1.83,0.84-3.62,1.78-5.44,2.67L284.87,260.05z"/>
				</g>
				<g>
					<path fill="#CACACA" d="M288.65,262.61c1.75-0.81,3.49-1.64,5.26-2.4c1.79-0.72,3.57-1.47,5.37-2.16
						c1.82-0.64,3.63-1.31,5.47-1.91c1.84-0.57,3.68-1.19,5.54-1.72c7.42-2.16,15.01-3.75,22.63-5.01
						c7.64-1.15,15.34-1.97,23.06-2.28l5.79-0.15l5.79,0.01l5.79,0.22c1.93,0.11,3.85,0.26,5.77,0.41l-5.78-0.04l-5.77,0.09
						l-5.77,0.19l-5.76,0.34c-7.67,0.53-15.32,1.33-22.9,2.58c-7.6,1.14-15.12,2.73-22.56,4.66c-1.86,0.47-3.7,1.02-5.56,1.53
						c-1.85,0.53-3.67,1.15-5.51,1.71c-1.83,0.59-3.64,1.24-5.46,1.86L288.65,262.61z"/>
				</g>
			</g>
			<g>
				<g>
					<g>
						<g>
							<path fill="#FFFFFF" d="M318.51,300.26l-22.68,2.67l1.59-23.59l-6.69,25.52c-0.71,2.72,0.66,4.95,2.92,4.75l24.26-2.16
								L318.51,300.26z"/>
							<path fill="none" stroke="#FB8A08" stroke-width="1.0177" stroke-linecap="round" stroke-miterlimit="10" d="M299.02,302.64
								c-0.21,0.78-0.43,1.55-0.64,2.33"/>
							<path fill="none" stroke="#FB8A08" stroke-width="1.0177" stroke-linecap="round" stroke-miterlimit="10" d="M295.8,302.88
								c-0.2,0.54-0.41,1.09-0.61,1.63"/>
							<path fill="none" stroke="#FB8A08" stroke-width="1.0177" stroke-linecap="round" stroke-miterlimit="10" d="M295.96,299
								c-0.4,0.1-0.81,0.21-1.21,0.31"/>
							<path fill="none" stroke="#FB8A08" stroke-width="1.0177" stroke-linecap="round" stroke-miterlimit="10" d="M296.16,295.19
								c-0.3,0.03-0.6,0.05-0.9,0.08"/>
							<path fill="none" stroke="#FB8A08" stroke-width="1.0177" stroke-linecap="round" stroke-miterlimit="10" d="M296.36,291.39
								c-0.25,0.08-0.5,0.16-0.75,0.23"/>
							<path fill="none" stroke="#FB8A08" stroke-width="1.0177" stroke-linecap="round" stroke-miterlimit="10" d="M296.4,288.6
								c-0.13,0-0.25,0-0.38,0"/>
						</g>
						<g>
							<path fill="#FFFFFF" d="M324.32,300.8l22.7-3.3l3.14-23.23l0.55,24.07c0.03,2.48-1.55,4.7-3.53,4.98l-22.94,3.2L324.32,300.8
								z"/>
							<path fill="none" stroke="#FB8A08" stroke-width="1.0177" stroke-linecap="round" stroke-miterlimit="10" d="M343.36,298.38
								c0.11,1.11,0.21,2.21,0.32,3.32"/>
							<path fill="none" stroke="#FB8A08" stroke-width="1.0177" stroke-linecap="round" stroke-miterlimit="10" d="M346.76,297.8
								c0.23,0.83,0.35,1.72,0.36,2.62"/>
							<path fill="none" stroke="#FB8A08" stroke-width="1.0177" stroke-linecap="round" stroke-miterlimit="10" d="M347.57,295.22
								c0.63-0.06,1.25,0.02,1.84,0.24"/>
							<path fill="none" stroke="#FB8A08" stroke-width="1.0177" stroke-linecap="round" stroke-miterlimit="10" d="M348.25,290.31
								c0.39-0.13,0.8-0.11,1.17,0.04"/>
							<path fill="none" stroke="#FB8A08" stroke-width="1.0177" stroke-linecap="round" stroke-miterlimit="10" d="M348.7,285.03
								c0.19-0.01,0.37-0.01,0.56-0.02"/>
						</g>
						<g>
							<g>
								<polygon fill="#FFFFFF" points="301.61,301.35 295.31,317 307.84,324.24 313.56,318.17 326.43,316.06 332.19,322.84 
									341.61,312.09 341.31,297.64 								"/>
								<polyline fill="#FFFFFF" stroke="#FB8A08" stroke-width="1.0177" stroke-linecap="round" stroke-miterlimit="10" points="
									312.28,315.25 314.25,328.17 321.57,327.68 327.46,313.61 								"/>
								
									<line fill="none" stroke="#FB8A08" stroke-width="1.0177" stroke-linecap="round" stroke-miterlimit="10" x1="318.22" y1="327.68" x2="319.78" y2="318.06"/>
								<polygon fill="#FB8A08" points="317.84,312.14 321.35,306.68 323.56,311.85 								"/>
							</g>
						</g>
						<g>
							<polygon fill="#FB8A08" points="325.82,306.29 339.58,302.78 331.89,314.19 							"/>
							
								<line fill="none" stroke="#FB8A08" stroke-width="1.0177" stroke-linecap="round" stroke-miterlimit="10" x1="325.28" y1="306.06" x2="340.33" y2="302.18"/>
							<path fill="#FFFFFF" d="M333.2,307.76c-0.17,0.76-0.81,1.38-1.43,1.38s-0.99-0.62-0.82-1.38c0.17-0.76,0.81-1.38,1.43-1.38
								C333,306.38,333.37,307,333.2,307.76z"/>
						</g>
						<g>
							<polygon fill="#FB8A08" points="302.49,306.91 316.61,307.08 307.41,316.72 							"/>
							<path fill="none" stroke="#FB8A08" stroke-width="1.0177" stroke-linecap="round" stroke-miterlimit="10" d="M301.04,306.75
								c5.28-0.01,10.57-0.02,15.85-0.03"/>
							<path fill="#FFFFFF" d="M309.86,309.93c-0.17,0.76-0.81,1.38-1.43,1.38c-0.62,0-0.99-0.62-0.82-1.38s0.81-1.38,1.43-1.38
								C309.66,308.55,310.03,309.17,309.86,309.93z"/>
						</g>
					</g>
				</g>
			</g>
			<g>
				
					<text transform="matrix(1.002 -0.2069 -0.1611 0.9869 273.2661 355.1939)" fill="#FFFFFF" font-family="'MysteryQuest'" font-size="17.9623px">halloween</text>
			</g>
		</g>
		<g display="inline">
			<path fill="none" stroke="#FFFFFF" stroke-width="2.0293" stroke-miterlimit="10" d="M321.47,374.92
				c-20.52,0.94-67.59,19.32-82.03,4.71c-7.66-7.74,2.41-33.33-1.37-43.55c-3.36-9.1-23.48-20.61-24.31-30.28
				c-1.22-14.19,20.74-37.34,27.58-49.83c6.42-11.73,12.98-42.27,25.48-47.02c9.21-3.5,29.12,19.32,37.04,13.46
				c13.86-10.26-11.21-53.42-3.6-68.9c5.69-11.57,30.07-32.97,42.44-29.33c7.66,2.25,18.17,24.13,12.26,29.49
				c-2.92,2.64-9.96-7.96-13.87-7.45c-3.51,0.46-10.24,6.15-10.33,9.69c-0.1,4.25,8.17,10.05,11.83,12.22
				c8.7,5.18,31.65,3.92,39,10.87c12.66,11.96,8.23,55.9,22.47,65.92c4.87,3.42,19.59-4.58,23.8-0.38
				c14.76,14.73,8.34,64.84-1.16,83.41c-8.68,16.96-43.23,39.14-61.21,45.43C355.1,377.03,332.47,374.41,321.47,374.92z"/>
			<path fill="none" stroke="#FFFFFF" stroke-width="2.0293" stroke-miterlimit="10" d="M420.43,212.54
				c-0.04-0.03-0.09-0.06-0.13-0.08c-4.04-2.55-9.38,0.78-9.38,5.38c0,4.6,5.34,7.93,9.38,5.38c0.04-0.03,0.09-0.06,0.13-0.08
				C424.39,220.63,424.39,215.03,420.43,212.54z"/>
			<path fill="none" stroke="#FFFFFF" stroke-width="2.0293" stroke-miterlimit="10" d="M418.44,265.36c-1.92,0-2.98,1.77-2.68,3.52
				c0.01,0.06,0.02,0.12,0.03,0.18c0.19,1.13,1.54,2.07,2.65,2.02c1.12-0.05,2.45-0.81,2.65-2.02c0.01-0.06,0.02-0.12,0.03-0.18
				C421.41,267.13,420.37,265.36,418.44,265.36z"/>
			<path fill="none" stroke="#FFFFFF" stroke-width="2.0293" stroke-miterlimit="10" d="M411.43,313.25c-2.83,0-5.53,2.48-5.4,5.4
				c0.13,2.93,2.37,5.4,5.4,5.4c2.83,0,5.53-2.48,5.4-5.4C416.7,315.72,414.46,313.25,411.43,313.25z"/>
			<path fill="none" stroke="#FFFFFF" stroke-width="2.0293" stroke-miterlimit="10" d="M428.02,347.43c-1.84,0-3.76,0.8-5.06,2.1
				c-1.24,1.24-2.18,3.28-2.1,5.06c0.17,3.88,3.14,7.16,7.16,7.16c1.84,0,3.76-0.8,5.06-2.1c1.24-1.24,2.18-3.28,2.1-5.06
				C435,350.71,432.03,347.43,428.02,347.43z"/>
			<path fill="none" stroke="#FFFFFF" stroke-width="2.0293" stroke-miterlimit="10" d="M251.09,328.86c-6.07,0-6.08,9.44,0,9.44
				C257.16,338.29,257.17,328.86,251.09,328.86z"/>
			<path fill="none" stroke="#FFFFFF" stroke-width="2.0293" stroke-miterlimit="10" d="M208.7,260.51c-0.11,0-0.11,0.17,0,0.17
				C208.81,260.68,208.81,260.51,208.7,260.51z"/>
			<path fill="none" stroke="#FFFFFF" stroke-width="2.0293" stroke-miterlimit="10" d="M216.44,258.36c-3.34,0-3.35,5.19,0,5.19
				C219.78,263.56,219.79,258.36,216.44,258.36z"/>
			<path fill="none" stroke="#FFFFFF" stroke-width="2.0293" stroke-miterlimit="10" d="M210.91,347.3c-2.73,0-2.74,4.25,0,4.25
				C213.65,351.55,213.65,347.3,210.91,347.3z"/>
			<path fill="none" stroke="#FFFFFF" stroke-width="2.0293" stroke-miterlimit="10" d="M248.51,407.86c-2.13,0-2.13,3.3,0,3.3
				C250.64,411.16,250.64,407.86,248.51,407.86z"/>
			<path fill="none" stroke="#FFFFFF" stroke-width="2.0293" stroke-miterlimit="10" d="M307.05,401.1l-0.1-0.08
				c-1.01-0.82-2.14-1.52-3.51-1.46c-1.39,0.06-2.44,0.58-3.51,1.46l-0.1,0.08c-0.63,0.51-1.07,1.5-1.31,2.26
				c-0.35,1.08-0.17,2.31,0.26,3.33c0.76,1.79,2.64,3.23,4.67,3.14c1.78-0.08,3.49-0.96,4.41-2.53
				C308.89,405.51,308.78,402.51,307.05,401.1z"/>
			<path fill="none" stroke="#FFFFFF" stroke-width="2.0293" stroke-miterlimit="10" d="M330.36,359.15
				c-0.03-0.04-0.06-0.09-0.09-0.13c-1.25-1.87-3.78-1.87-5.03,0c-0.03,0.04-0.06,0.09-0.09,0.13c-1.29,1.94,0.42,4.53,2.6,4.53
				C329.94,363.68,331.65,361.08,330.36,359.15z"/>
			<path fill="none" stroke="#FFFFFF" stroke-width="2.0293" stroke-miterlimit="10" d="M374.94,391.91c-5.57,0-5.58,8.65,0,8.65
				C380.51,400.56,380.52,391.91,374.94,391.91z"/>
			<path fill="none" stroke="#FFFFFF" stroke-width="2.0293" stroke-miterlimit="10" d="M250.72,272.22c-4.96,0-4.97,7.71,0,7.71
				C255.68,279.93,255.69,272.22,250.72,272.22z"/>
			<path fill="none" stroke="#FFFFFF" stroke-width="2.0293" stroke-miterlimit="10" d="M231.55,218.48c-4.86,0-4.87,7.55,0,7.55
				C236.41,226.03,236.42,218.48,231.55,218.48z"/>
			<path fill="none" stroke="#FFFFFF" stroke-width="2.0293" stroke-miterlimit="10" d="M271.18,223.21c-2.3,0-4.5,2.02-4.39,4.39
				c0.11,2.38,1.93,4.39,4.39,4.39c2.3,0,4.5-2.02,4.39-4.39C275.46,225.22,273.64,223.21,271.18,223.21z"/>
			<path fill="none" stroke="#FFFFFF" stroke-width="2.0293" stroke-miterlimit="10" d="M280.21,193.6c-4.15,0-4.16,6.45,0,6.45
				C284.36,200.05,284.37,193.6,280.21,193.6z"/>
			<path fill="none" stroke="#FFFFFF" stroke-width="2.0293" stroke-miterlimit="10" d="M311.17,154.74c-4.35,0-4.36,6.76,0,6.76
				C315.53,161.5,315.53,154.74,311.17,154.74z"/>
			<path fill="none" stroke="#FFFFFF" stroke-width="2.0293" stroke-miterlimit="10" d="M287.4,136.3c-2.73,0-5.35,2.4-5.23,5.23
				c0.13,2.83,2.3,5.23,5.23,5.23c2.73,0,5.35-2.4,5.23-5.23C292.5,138.7,290.33,136.3,287.4,136.3z"/>
			<path fill="none" stroke="#FFFFFF" stroke-width="2.0293" stroke-miterlimit="10" d="M375.68,144.08c-2.72,0-5.32,2.39-5.19,5.19
				c0.13,2.81,2.28,5.19,5.19,5.19c2.72,0,5.32-2.39,5.19-5.19C380.74,146.46,378.59,144.08,375.68,144.08z"/>
			<path fill="none" stroke="#FFFFFF" stroke-width="2.0293" stroke-miterlimit="10" d="M373.47,188.69c-1.92,0-1.93,2.99,0,2.99
				C375.39,191.68,375.39,188.69,373.47,188.69z"/>
			<path fill="none" stroke="#FFFFFF" stroke-width="2.0293" stroke-miterlimit="10" d="M378.26,201.02c-2.14,0-4.19,1.88-4.1,4.1
				c0.1,2.22,1.8,4.1,4.1,4.1c2.14,0,4.19-1.88,4.1-4.1C382.26,202.9,380.56,201.02,378.26,201.02z"/>
			<path fill="none" stroke="#FFFFFF" stroke-width="2.0293" stroke-miterlimit="10" d="M229.71,296.66c-7.19,0-7.2,11.17,0,11.17
				C236.9,307.83,236.91,296.66,229.71,296.66z"/>
		</g>
	</g>
	<g>
		<path fill="#251226" d="M309.05,114.54c-8.6,24.88-28.83,45.47-53.55,54.51c-10.34,3.78-22.18,5.53-32.17,0.9
			c-10-4.62-16.75-27.64-16.75-27.64s0.46,13.31-12.14,16.05c-12.63-2.56-12.36-15.88-12.36-15.88s-6.42,23.11-16.35,27.87
			c-9.93,4.76-21.78,3.19-32.18-0.45c-24.85-8.68-45.37-28.98-54.33-53.74C26.94,147.71-2.13,213.56,9.78,273.42
			c8.7-22.56,32.47-38.39,56.64-37.73c11.85,0.32,23.42,4.62,32.95,11.59c10.76,7.86,14.45,18.05,21.71,28.14
			c11.9-16.19,23.34-29.66,44.47-33.46c1.74,14.51,15.08,26.53,29.56,27.36l0,0.02c0.04,0,0.07-0.01,0.11-0.01
			c0.04,0,0.07,0.01,0.11,0.01l0-0.02c14.47-1.04,27.64-13.25,29.17-27.78c21.18,3.49,32.81,16.81,44.94,32.82
			c7.11-10.19,10.66-20.43,21.3-28.44c9.44-7.1,20.94-11.56,32.79-12.05c24.16-1,48.15,14.49,57.17,36.92
			C391.77,210.75,361.76,145.32,309.05,114.54z"/>
	</g>
</g>
<g id="TEXTS" display="none">
	
		<text transform="matrix(1 0 0 1 678.5213 247.4301)" display="inline" fill="#FF8F0F" font-family="'Montserrat-Bold'" font-size="93.9265px">party</text>
	<g display="inline">
		<text transform="matrix(1 0 0 1 682.4451 156.6406)" fill="#FFFFFF" font-family="'MysteryQuest'" font-size="98.0347px">Halloween</text>
	</g>
	<g display="inline">
		<rect x="678.52" y="294.86" fill="none" width="512.09" height="84.83"/>
		<text transform="matrix(1 0 0 1 678.5216 305.5145)"><tspan x="0" y="0" fill="#FFFFFF" font-family="'Montserrat-Regular'" font-size="15px">Adipiscing elit, sdiam nonummy euismod Ut wisi enim ad minim veniam.Lorem </tspan><tspan x="0" y="23.67" fill="#FFFFFF" font-family="'Montserrat-Regular'" font-size="15px">ipsum dolor sit amet, consectetuer adipiscing elit, sed diam nonummy nibh </tspan><tspan x="0" y="47.34" fill="#FFFFFF" font-family="'Montserrat-Regular'" font-size="15px">euismod tincidunt ut laoreet dolore magna aliquam erat volutpat. Ut wisi enim ad </tspan><tspan x="0" y="71.02" fill="#FFFFFF" font-family="'Montserrat-Regular'" font-size="15px">minim veniam, quis nostrud </tspan></text>
	</g>
	<g display="inline">
		<rect x="678.52" y="442.22" fill="none" width="156.19" height="36.09"/>
		<text transform="matrix(1 0 0 1 678.5216 452.8738)"><tspan x="0" y="0" fill="#FFFFFF" font-family="'Montserrat-Regular'" font-size="15px">Address, cll 11 # 11a-11</tspan><tspan x="0" y="23.67" fill="#FFFFFF" font-family="'Montserrat-Regular'" font-size="15px">OCT 31 / 5pm - 10pm</tspan></text>
	</g>
	<g display="inline">
		<text transform="matrix(1 0 0 1 678.5217 419.9922)" fill="#FF8F0F" font-family="'Montserrat-Bold'" font-size="20px">Information</text>
	</g>
	<g display="inline">
		<g>
			<text transform="matrix(1 0 0 1 678.5214 -130.3448)" fill="#FF8F0F" font-family="'Montserrat-Regular'" font-size="15px">HOME</text>
		</g>
		<text transform="matrix(1 0 0 1 797.0717 -130.3448)" fill="#FFFFFF" font-family="'Montserrat-Regular'" font-size="15px">ABOUT </text>
		<text transform="matrix(1 0 0 1 925.0443 -130.3448)" fill="#FFFFFF" font-family="'Montserrat-Regular'" font-size="15px">SERVICES</text>
		<text transform="matrix(1 0 0 1 1068.4867 -130.3448)" fill="#FFFFFF" font-family="'Montserrat-Regular'" font-size="15px">CONTACT US</text>
		<g>
			<text transform="matrix(1 0 0 1 1232.5654 -130.3448)" fill="#FFFFFF" font-family="'Montserrat-Regular'" font-size="15px">FAQ</text>
		</g>
	</g>
</g>
</svg>
