<?xml version="1.0" encoding="utf-8"?>
<!-- Generator: Adobe Illustrator 26.0.1, SVG Export Plug-In . SVG Version: 6.00 Build 0)  -->
<svg version="1.1" id="圖層_1" xmlns="http://www.w3.org/2000/svg" xmlns:xlink="http://www.w3.org/1999/xlink" x="0px" y="0px"
	 viewBox="0 0 390 390" enable-background="new 0 0 390 390" xml:space="preserve">
<g id="BACKGROUND" display="none">
	<g display="inline">
		<g>
			<defs>
				<rect id="SVGID_1_" x="-709.49" y="-194.6" width="1920" height="1080"/>
			</defs>
			<clipPath id="SVGID_00000114058507787206165490000008966853333737035966_">
				<use xlink:href="#SVGID_1_"  overflow="visible"/>
			</clipPath>
			<g clip-path="url(#SVGID_00000114058507787206165490000008966853333737035966_)">
				<rect x="-709.49" y="-194.6" fill="#6A42C8" width="1920" height="1080"/>
				<g>
					<path fill="#9165E6" d="M155.56,24.62c-16.35-17.75-33.68-34.69-51.93-50.72c-189.55-166.4-484.9-231.72-716.89-118.15
						C-903.95-1.95-1051.59,375.28-951.1,679.28c65.3,197.57,224.49,353.61,423.73,412.47c310.05,91.58,663.09-63.85,803.29-355.68
						c10.14-21.11,19.09-42.79,26.75-64.92C379.04,450.65,311.4,193.82,155.56,24.62z"/>
					<path fill="none" stroke="#9165E6" stroke-width="2" stroke-miterlimit="10" d="M-782.84,224.39
						c-58.64,115.89-107.5,238.96-120.59,368.18s12.58,265.97,90.94,369.56c63.69,84.19,158.87,141.87,260.75,169.53
						s210.16,26.63,313.98,7.5c122.13-22.5,243.16-72.3,327.89-163.09c77.69-83.25,119.45-195.97,129.42-309.41
						c9.96-113.44-10.12-227.86-43.87-336.62C138.24,209.4,82.44,91.88-5.42,1.14C-116.83-113.91-277.98-179.03-438.04-173.7
						c-291.96,9.74-569.07,260.84-597.32,553.53c-19.36,200.61,80.04,397.71,242.95,513.42
						c153.41,108.96,353.26,144.02,538.44,110.69c218.49-39.33,422.62-177.73,517.7-378.34c95.07-200.62,66.55-460.21-87.71-619.86
						C46.94-127.83-146.46-178.62-331.83-190.54"/>
					<path fill="none" stroke="#9165E6" stroke-width="2" stroke-miterlimit="10" d="M-592.22,1037.18
						c-120.68-20.26-228.68-96.11-298.65-196.51s-103.53-223.56-106.39-345.9c-4.06-173.07,53.38-347.92,163.83-481.21
						c112.68-135.98,288.57-230.2,464.49-247.35c178.36-17.39,369.65,67.57,489.92,196.64c11.15,11.96,21.8,24.39,31.89,37.26
						C282.1,164.79,318.37,397.83,245.31,594"/>
				</g>
				<g>
					<path fill="#B587FF" d="M6.39,152.19c-11.54-12.53-23.78-24.49-36.66-35.81C-164.1-1.1-372.6-47.22-536.39,32.96
						c-205.22,100.46-309.44,366.79-238.51,581.4c46.1,139.48,158.49,249.65,299.15,291.2c218.9,64.66,468.14-45.08,567.11-251.1
						c7.16-14.9,13.47-30.21,18.89-45.83C164.18,452.96,116.42,271.64,6.39,152.19z"/>
					<path fill="none" stroke="#B587FF" stroke-width="2" stroke-miterlimit="10" d="M-656.11,293.22
						c-41.4,81.82-75.89,168.7-85.13,259.93s8.88,187.77,64.2,260.9c44.96,59.44,112.16,100.16,184.09,119.69
						c71.93,19.53,148.37,18.8,221.67,5.29c86.22-15.88,171.67-51.04,231.48-115.14c54.85-58.78,84.33-138.35,91.37-218.44
						c7.03-80.09-7.15-160.87-30.97-237.65c-26.43-85.17-65.81-168.14-127.85-232.2C-185.9,54.38-299.67,8.4-412.67,12.17
						c-206.12,6.87-401.76,184.15-421.7,390.79c-13.67,141.63,56.51,280.78,171.52,362.47c108.3,76.92,249.39,101.68,380.13,78.15
						c154.25-27.77,298.37-125.47,365.49-267.1s46.98-324.91-61.93-437.61C-70.29,44.56-206.83,8.7-337.7,0.28"/>
					<path fill="none" stroke="#B587FF" stroke-width="2" stroke-miterlimit="10" d="M-521.53,867.04
						c-85.2-14.3-161.44-67.85-210.84-138.73c-49.4-70.88-73.09-157.83-75.11-244.2c-2.86-122.18,37.68-245.63,115.67-339.73
						c79.55-96,203.73-162.52,327.93-174.63C-237.96-42.53-102.91,17.45-18,108.58c7.87,8.45,15.39,17.22,22.52,26.3
						c91.22,116.26,116.82,280.78,65.24,419.28"/>
				</g>
			</g>
		</g>
		<g>
			<defs>
				<rect id="SVGID_00000155138575232322605850000007586826741537278646_" x="-709.49" y="-194.6" width="1920" height="1080"/>
			</defs>
			<clipPath id="SVGID_00000023968157601985795020000001653635898962186427_">
				<use xlink:href="#SVGID_00000155138575232322605850000007586826741537278646_"  overflow="visible"/>
			</clipPath>
			<g clip-path="url(#SVGID_00000023968157601985795020000001653635898962186427_)">
				<path fill="#251226" d="M1210.51,571.22c-226.38,0-560.52,104.55-700.5,149.24c-69.35,22.14-120.33,39.99-152.97,46.34
					c-50.76,9.87-161.61,9.59-201.5-23.31c-39.73-32.77-86.76-66.27-141.37-97.07c-261.99-147.77-652.66-142.04-723.66-134.71V687.3
					v227.37l0,0h993.4c-0.68-0.83-1.36,0.84-2.06,0h928.66V571.22z"/>
				<g>
					<g>
						
							<rect x="-78.74" y="568.81" transform="matrix(0.2992 -0.9542 0.9542 0.2992 -548.7316 405.3979)" fill="#251226" width="160.73" height="14.91"/>
						
							<rect x="7.36" y="497.17" transform="matrix(0.2992 -0.9542 0.9542 0.2992 -499.2541 388.4379)" fill="#251226" width="14.91" height="73.87"/>
					</g>
					<g>
						
							<rect x="43.25" y="616.76" transform="matrix(0.7578 -0.6525 0.6525 0.7578 -377.3589 231.8468)" fill="#251226" width="160.73" height="14.91"/>
						
							<rect x="149.68" y="558.43" transform="matrix(0.7578 -0.6525 0.6525 0.7578 -350.4167 246.731)" fill="#251226" width="14.91" height="73.87"/>
					</g>
					<path fill="#251226" d="M-33.46,660.31c-1.29-6.81-5.62-11.68-5.49-19.35c0.1-5.95,1.96-16.95,7.65-20.31
						c13.12-7.74,16.03,13.1,18.46,20.37c4.59-5.76,6.26-17.09,11.09-24.12c8.97-13.05,23.5-27.32,39.59-30.69
						c14.05-2.94,31.39,1.29,34.19,16.67c1.58,8.69-0.27,19.16-3.92,27.1c13-4.22,26.12-0.5,18.88,14.36
						c12.08-7.23,27.85-8.16,41.18-4.23c12.39,3.65,22.96,17.57,18.29,30.56c-4.16,11.58-16.41,16.41-24.01,25.06
						c7.81-3.59,26.61-3.69,31.98,4.87c3.89,6.2-2.78,16.38-8.52,19.33c10.51-17.67,41.94,1.92,46.73,15.18
						c2.62,7.26-1.74,15.54-4.58,22.08c-3.09,7.12-8.81,11.09-16.36,13.5c-14.98,4.79-32.87,2.32-47.56-2.45
						c-18.41-5.98-35.78-15.01-51.58-26.17c-29.37-20.75-63.31-39-89.86-63.4C-24.43,672.12-32.61,664.77-33.46,660.31z"/>
				</g>
				<g>
					<g>
						
							<rect x="1005.9" y="483.75" transform="matrix(0.3101 -0.9507 0.9507 0.3101 282.422 1371.6003)" fill="#251226" width="160.73" height="14.91"/>
						
							<rect x="1092.52" y="412.17" transform="matrix(0.3101 -0.9507 0.9507 0.3101 331.9055 1355.5913)" fill="#251226" width="14.91" height="73.87"/>
					</g>
					<path fill="#251226" d="M970.65,603.42c-4.63-5.15-10.86-7.08-14.72-13.71c-3-5.14-7.1-15.51-3.98-21.33
						c7.21-13.42,20.5,2.9,26.34,7.86c0.94-7.31-3.5-17.85-3.01-26.37c0.91-15.81,5.94-35.55,17.96-46.76
						c10.49-9.79,27.51-15.16,37.88-3.45c5.85,6.61,9.7,16.52,10.69,25.21c8.93-10.35,22.08-13.96,23.59,2.5
						c6.59-12.45,19.6-21.41,33.02-24.96c12.48-3.3,28.74,3.13,31.48,16.66c2.44,12.06-5.53,22.54-7.55,33.87
						c4.82-7.11,20.85-16.94,29.88-12.4c6.54,3.28,6.11,15.46,2.72,20.95c-0.17-20.56,36.87-20.08,47.83-11.23
						c6,4.85,6.56,14.19,7.52,21.26c1.05,7.69-1.79,14.05-7,20.03c-10.33,11.86-26.92,19.02-41.95,22.55
						c-18.85,4.43-38.38,5.7-57.68,4.34c-35.87-2.53-74.36-0.56-109.71-7.67C984.49,608.85,973.68,606.8,970.65,603.42z"/>
				</g>
			</g>
		</g>
	</g>
</g>
<g id="OBJECTS">
	<g display="none">
		<polygon display="inline" fill="#FFFFFF" points="991.06,257.78 994.31,282.17 1018.69,285.42 994.31,288.66 991.06,313.05 
			987.81,288.66 963.42,285.42 987.81,282.17 		"/>
		<polygon display="inline" fill="#FFFFFF" points="617.98,-78.9 620.08,-63.19 635.79,-61.09 620.08,-59 617.98,-43.28 615.89,-59 
			600.17,-61.09 615.89,-63.19 		"/>
		<polygon display="inline" fill="#FFFFFF" points="970.42,-27.54 972.52,-11.83 988.23,-9.73 972.52,-7.64 970.42,8.08 
			968.33,-7.64 952.61,-9.73 968.33,-11.83 		"/>
		<polygon display="inline" fill="#FFFFFF" points="167.49,496.69 169.58,512.4 185.3,514.5 169.58,516.59 167.49,532.31 
			165.4,516.59 149.68,514.5 165.4,512.4 		"/>
		<polygon display="inline" fill="#FFFFFF" points="261.36,73.41 263.45,89.12 279.17,91.22 263.45,93.31 261.36,109.03 
			259.26,93.31 243.55,91.22 259.26,89.12 		"/>
		<polygon display="inline" fill="#FFFFFF" points="763.18,85.99 766.43,110.38 790.82,113.62 766.43,116.87 763.18,141.26 
			759.93,116.87 735.55,113.62 759.93,110.38 		"/>
	</g>
	<g display="none">
		<g display="inline">
			<path fill="#F1D8A2" d="M840.87,582.22l52.22-91.9l-73.1-136.46c0.67-14.63,1.33-29.27,2-43.9c0.4-8.72-0.72-19.34,1.55-27.8
				c3.1-11.53,11.32-21.3,20.64-28.39c8.95-6.8,19-12.19,27.2-19.87c8.3-7.77,13.88-17.92,13.24-29.48
				c18.49,9.15,23.12,31.76,20.91,51.17c6.14,0.9,10.5,8.09,8.45,13.95c1.55-1.08,3.11-2.17,4.66-3.25
				c0.25,2.86,0.49,5.73,0.74,8.59c-0.13-1.37,5.89-6.63,6.95-7.65c1.19,6.08-0.18,13.56-0.38,19.78
				c-0.09,2.74,0.23,13.81-1.52,15.37c1.68-1.26,3.35-2.51,5.02-3.76c-4.29,20.79,3.29,38.8,10.25,57.88
				c15.34,42.05,30.67,84.11,46,126.17L852.03,595.46L840.87,582.22z"/>
			<path fill="#E0AC75" d="M842.29,583.9l9.73,11.56L985.7,482.67c-15.34-42.05-30.67-84.11-46-126.17
				c-6.95-19.08-14.53-37.08-10.25-57.88c-1.68,1.26-3.35,2.51-5.02,3.76c1.76-1.56,1.43-12.64,1.52-15.37
				c0.21-6.22,1.57-13.71,0.38-19.78c-1.06,1.02-7.08,6.28-6.95,7.65c-0.25-2.86-0.49-5.73-0.74-8.59
				c-1.55,1.08-3.11,2.17-4.66,3.25c1.97-5.65-1.99-12.5-7.77-13.81c1.64,10.09,2.65,20.28,0.55,30.32
				c1.23-1.15,2.48-2.26,3.58-3.55c0.46-0.54,1.48-0.22,1.61,0.46c2.36,12.42,4.68,25.23-0.61,37.23c-0.31,0.7-1.03,0.9-1.63,0.4
				c-2.67-2.22-5.37-4.38-8.12-6.49c9.58,19.65,20.7,39.2,23.73,61.05c0.97-2.64,1.99-5.26,2.82-7.95c0.23-0.76,1.39-0.97,1.77-0.2
				c7.21,14.83,9.77,31.23,11.96,47.42c1.5,11.1,4.99,24.53,0.63,35.42c2.36-1.7,4.74-3.36,7.16-4.97c0.75-0.5,1.58,0.36,1.4,1.12
				c-3.73,16.03-8.68,35.8-21.14,47.74c0.57-0.2,1.13-0.42,1.68-0.7c0.91-0.47,1.7,0.5,1.3,1.35c-5.21,11.08-14.08,19.86-23.02,28
				c-10.14,9.24-20.08,18.5-29.94,28.04c-11.35,10.98-23.53,21.05-35.42,31.44C843.76,582.52,843.03,583.22,842.29,583.9z"/>
			<g>
				<path fill="#914E4E" d="M889.12,534.88c-3.96-5.53-7.93-11.07-11.9-16.6l-5.76,10.14C877.35,530.57,883.24,532.72,889.12,534.88
					z"/>
				<path fill="#914E4E" d="M942.09,363.03l-8.96-24.56c-12.46,11.09-24.93,22.17-37.39,33.26
					C911.19,368.83,926.64,365.94,942.09,363.03z"/>
				<path fill="#914E4E" d="M938.17,522.78l8.39-7.08c-11.91,0.51-23.99-1.6-35.23-5.67C920.28,514.28,929.23,518.52,938.17,522.78z
					"/>
				<path fill="#914E4E" d="M922.2,437.05c13.77-5.47,27.92-10.99,42.7-11.44l-3.89-10.67C948.07,422.31,935.14,429.68,922.2,437.05
					z"/>
				<path fill="#914E4E" d="M915.95,452.55c-10.24,7.71-20.47,15.41-30.71,23.11l4.97,9.27
					C898.79,474.14,907.37,463.35,915.95,452.55z"/>
				<path fill="#914E4E" d="M927.51,403.03c-24.39,1.42-48.16,11.47-66.24,27.89l6.86,12.8
					C884.17,425.54,904.74,411.38,927.51,403.03z"/>
				<path fill="#914E4E" d="M823.4,279.05l-0.54,11.78c21.02-5.71,43.15-7.35,64.78-4.7c-11.65-3.22-23.59-5.42-35.62-6.57
					C843.07,278.7,832.53,280.31,823.4,279.05z"/>
				<path fill="#914E4E" d="M916.23,541.28l12.89-10.87c-14.46-3.85-28.93-7.69-43.39-11.54
					C895.9,526.34,906.07,533.81,916.23,541.28z"/>
				<path fill="#914E4E" d="M820.34,354.51l7.07,13.2c9.25-9.43,18.51-18.85,27.76-28.27C842.08,338.82,829.03,344.77,820.34,354.51
					z"/>
				<path fill="#914E4E" d="M877.55,573.94l9.65-8.15c-7.01-0.44-13.9-2.34-20.02-5.84C870.63,564.61,874.09,569.27,877.55,573.94z"
					/>
			</g>
		</g>
		<g display="inline">
			<path fill="#251226" d="M793.53,284.89l-106.67-56.47c148.08-77.18,121.73-14.43,121.73-14.43l-14.43,67.14"/>
			<path fill="#E07800" d="M721.4,211.46c-10.31,4.7-21.76,10.3-34.54,16.96l106.67,56.47l0.63-3.76l7.3-33.96
				c-8.58-4.02-17.4-7.57-26.2-11.15c-15.18-6.17-30.19-12.81-44.89-20.04C727.37,214.5,724.38,212.98,721.4,211.46z"/>
			<path fill="#251226" d="M770.32,422.87l-130.29-23.69c-12.58-2.29-24.37-7.75-34.24-15.87l-44.65-36.72
				c-40.55-33.34-35.21-96.95,10.34-123.06l15.95-9.14c19.98-11.45,44.1-13.1,65.45-4.47l156.53,63.29
				c19.08,7.72,34.15,22.93,41.69,42.07l2.47,6.26c19.22,48.79-16.24,101.73-68.66,102.54l0,0
				C780.02,424.16,775.14,423.75,770.32,422.87z"/>
			<path fill="none" stroke="#FFFFFF" stroke-width="5.1045" stroke-miterlimit="10" d="M723.74,218.13
				c23.1-10.12,46.95-21.14,70.59-23.29"/>
		</g>
		<g display="inline">
			<polygon fill="#E0AC75" points="696.38,442.84 696.38,639.75 832.28,639.75 859.47,582.37 802.69,442.84 			"/>
			<path fill="#F1D8A2" d="M744.06,639.74c-15.78-32.6,11.04-31.02,11.04-31.02l77.18,30.2L744.06,639.74z"/>
		</g>
		<g display="inline">
			<path fill="#E0AC75" d="M568.54,635.24c3.29-15.88,18.33-26.48,34.39-24.24l50.68,7.07v20.02h-85.67L568.54,635.24z"/>
			<path fill="#F1D8A2" d="M598.96,601.94c10.15,22.39,32.46,36.78,57.05,36.78h56.62l112.92-174.6
				c-3.72-8.47-7.45-16.94-11.17-25.41c-13.73-31.22-28.22-62.22-40.88-93.88l6.97,2.31l-15.73-27.17l12.71,4.32
				c-6.39-6.9-12.78-13.8-19.17-20.7c-2.28-2.46-5.1-4.46-6.59-7.46c-0.36-0.73-1.84-5.85-2.67-6.08c-4.4-1.2-8.92-2.04-13.4-2.84
				c-22.83-4.05-46.22-5.3-69.36-4.04c-7.84,0.43-15.67,1.16-23.45,2.2c-4.11,0.55-8.21,1.19-12.3,1.92
				c-2.98,0.53-6.86,0.66-9.58,2.1c-2.52,1.33-4.19,4.47-5.86,6.65c-2.6,3.4-5.2,6.79-7.8,10.19c-2.6,3.4-5.2,6.79-7.8,10.19
				c-1.35,1.77-2.71,3.53-4.06,5.3c-0.8,1.05-2.25,3.94-3.43,4.48l12.92-4.86l-13.21,17.57l8-2.53c-4.17,7.3-8.04,14.53-11.72,22.1
				c-11.55,23.71-23.09,47.43-34.63,71.14c-5.6,11.5-11.19,22.99-16.79,34.49L598.96,601.94z"/>
			<path fill="#E0AC75" d="M769.37,550.99H592.65l-33.02-35.32l16.27,35.32l22.65,50c10.41,22.97,33.29,37.72,58.5,37.72h55.59
				L769.37,550.99L769.37,550.99z"/>
			<path fill="#914E4E" d="M665.95,286.7c1.35,6.57,3.36,13,5.98,19.17c1.3-7.68,2.59-15.37,3.89-23.06
				c-3.39,0.08-6.86,0.21-10.4,0.41C665.52,284.39,665.71,285.57,665.95,286.7z"/>
			<path fill="#914E4E" d="M684.45,282.72c0.61,8.79,1.21,17.57,1.82,26.35c1.32-4.97,2.99-9.85,4.98-14.6
				c1.53-3.66,4.47-7.61,6.02-11.43C693.17,282.86,688.88,282.75,684.45,282.72z"/>
			<path fill="#914E4E" d="M736.12,427.99c22.93-0.76,45.67-6.52,66.21-16.72l-9.81-22.32c-0.9,0.81-1.89,1.55-2.86,2.21
				C771.81,403.44,753.97,415.72,736.12,427.99z"/>
			<path fill="#914E4E" d="M739.26,387.06c-7.32,4.12-14.82,7.91-22.48,11.35c24.74-2,49.12-8.33,71.72-18.59l-9.1-20.7
				c-1.25,1.22-2.45,2.36-3.57,3.26C764.33,371.57,752.08,379.83,739.26,387.06z"/>
			<path fill="#914E4E" d="M622.75,395.76c-5.11-4.04-10.07-8.43-14.86-13.13c-7.2-7.07-13.98-14.9-20.33-23.33l-8.12,16.69
				C592.89,385.56,607.54,392.28,622.75,395.76z"/>
			<path fill="#914E4E" d="M564.98,405.72c12.34,9.42,26.15,15.53,40.5,17.85c-10.37-12.4-20.73-24.8-31.09-37.2L564.98,405.72z"/>
			
				<path fill="none" stroke="#E0AC75" stroke-width="3.0627" stroke-linecap="round" stroke-linejoin="round" stroke-miterlimit="10" d="
				M658.65,445.99c-4.51-8.03-6.58-17.39-5.88-26.57c-1.23,1.1-2.45,2.21-3.68,3.31c-1.46-8.39-0.92-17.12,1.56-25.27
				c-2.89,2.21-5.78,4.43-8.67,6.64c2.16-8.7,4.33-17.39,6.49-26.09"/>
		</g>
		<g display="inline">
			<path fill="#F1D8A2" d="M690.59,509.42h105.66l-81.68,126.53c3.38,8.46-1.17,13.8-1.17,13.8h-38.32L690.59,509.42z"/>
			<path fill="none" stroke="#E0AC75" stroke-width="3.0627" stroke-linecap="round" stroke-miterlimit="10" d="M714.14,649.75
				c1.84-2.65,2.56-6.07,1.94-9.24c-0.63-3.17-2.58-6.06-5.3-7.82"/>
			<path fill="none" stroke="#E0AC75" stroke-width="3.0627" stroke-linecap="round" stroke-miterlimit="10" d="M703.2,649.58
				c2.13-2.39,3.21-5.69,2.9-8.88s-2-6.22-4.56-8.16"/>
			<path fill="none" stroke="#E0AC75" stroke-width="3.0627" stroke-linecap="round" stroke-miterlimit="10" d="M690.54,648.39
				c3.67-0.72,6.73-3.89,7.31-7.59c0.59-3.69-1.35-7.65-4.62-9.47"/>
			<path fill="#914E4E" d="M722.83,588.71c5.51,4.36,9.26,9.49,12.39,15.25l5.09-7.88c-2.63-2.7-5.68-5.22-7.67-7.11
				c-9.03-8.58-22.26-12.52-34.51-10.28C705.83,577.29,717.16,584.25,722.83,588.71z"/>
			<path fill="#914E4E" d="M768.66,552.15c-13.3-6.05-26.59-12.1-39.89-18.15c-3.37-1.54-6.89-3.1-10.59-3.06
				c-6.31,0.08-11.53,4.68-16.12,9.02c3.05-3.28,8.12-3.97,12.46-2.87c4.34,1.09,8.13,3.68,11.81,6.22
				c11.14,6.96,21.59,15.1,32.5,22.4c0.27,0.18,0.51,0.32,0.77,0.48L768.66,552.15z"/>
		</g>
		<g display="inline">
			<path fill="#E07800" d="M853.2,447.32l-38.28,88.02l-162.27-46.11c118.9-52.25,145.21-96.24,145.21-96.24
				C831.45,406.85,853.2,447.32,853.2,447.32z"/>
			
				<path fill="none" stroke="#FFFFFF" stroke-width="5.1045" stroke-linecap="round" stroke-linejoin="round" stroke-miterlimit="10" d="
				M747.38,448.37c10.63-5.59,20.27-13.06,28.33-21.97"/>
			
				<path fill="none" stroke="#FFFFFF" stroke-width="5.1045" stroke-linecap="round" stroke-linejoin="round" stroke-miterlimit="10" d="
				M733.83,455.21c0,0.19,0,0.38,0,0.57"/>
		</g>
		<g display="inline">
			<path fill="#E07800" d="M507.25,451.83l7-55.69c28.66-20.54,72.02-37.48,72.02-37.48c-26.32,56.06,59.37,126,59.37,126
				L507.25,451.83z"/>
			
				<path fill="none" stroke="#FFFFFF" stroke-width="5.1045" stroke-linecap="round" stroke-linejoin="round" stroke-miterlimit="10" d="
				M534.5,394.67c9.64-5.54,16.03-9.4,29.16-16.15"/>
		</g>
		<g display="inline">
			<path fill="#251226" d="M675.46,490.51c1.53-5.88,1.12-12.43-2.02-17.64c-5.47-9.07-17.33-9.51-26.71-7.97
				c-4.64,0.77-9.47,2.44-12.27,6.22c-3.41,4.59-2.9,10.95-1.72,16.55c1.51,7.2,4.11,14.6,9.74,19.33
				c5.06,4.25,12.58,5.72,18.53,2.84c3.75-1.82,6.87-4.71,9.3-8.14C672.71,498.32,674.44,494.42,675.46,490.51z"/>
			<path fill="#251226" d="M643.86,504.45c2.08,2.99,3.31,6.56,3.49,10.2c0.08,1.62-0.01,3.38,0.93,4.7
				c1.36,1.91,4.1,1.99,6.43,1.88c2.61-0.12,5.63-0.46,7.03-2.67c1.29-2.02,0.7-4.76,1.01-7.04c0.4-2.94,1.31-5.81,2.69-8.44"/>
			<path fill="#FFFFFF" d="M665.42,483.09c-2.28,0.12-4.19,1.97-5.02,4.1c-0.83,2.13-0.76,4.5-0.55,6.77
				c0.17,1.79,0.51,3.74,1.88,4.91c1.59,1.36,4.16,1.11,5.77-0.22c1.61-1.33,2.37-3.48,2.46-5.57
				C670.11,489.83,670.24,482.84,665.42,483.09z"/>
			<path fill="#FFFFFF" d="M644.33,483.09c-2.28,0.12-4.19,1.97-5.02,4.1c-0.83,2.13-0.76,4.5-0.55,6.77
				c0.17,1.79,0.51,3.74,1.88,4.91c1.59,1.36,4.15,1.11,5.77-0.22c1.61-1.33,2.37-3.48,2.46-5.57
				C649.02,489.83,649.15,482.84,644.33,483.09z"/>
			<path fill="#FFFFFF" d="M658.33,502.38c0.58,1.19,1.13,2.2,0.78,2.83c-2.66,4.69-9.11,2.09-9.62,0.74
				c-0.84-2.26,4.63-11.74,4.63-11.74S657.75,501.16,658.33,502.38z"/>
		</g>
		<g display="inline">
			<g>
				<path fill="#251226" d="M722.31,325.9c-29.85,0-29.06-17.49-29.06-17.49h50.98C744.23,308.41,743.68,325.9,722.31,325.9z"/>
				<path fill="#FF8F0F" d="M727.69,308.62c4.55,0,8.24,3.69,8.24,8.24s-3.69,8.24-8.24,8.24s-8.24-3.69-8.24-8.24
					S723.14,308.62,727.69,308.62z"/>
				<g>
					<path fill="#251226" d="M729.91,312.51c0.3,1.43,0.44,2.86,0.44,4.29c0,1.43-0.14,2.86-0.44,4.29
						c-0.32,1.43-0.76,2.86-1.61,4.29c-0.86-1.43-1.3-2.86-1.61-4.29c-0.3-1.43-0.44-2.86-0.44-4.29c0-1.43,0.14-2.86,0.44-4.29
						c0.32-1.43,0.75-2.86,1.6-4.29C729.13,309.65,729.57,311.08,729.91,312.51z"/>
				</g>
				<path fill="#FFFFFF" d="M723.97,311.66c1.98,0,3.58,0.92,3.58,2.05c0,1.13-1.6,2.05-3.58,2.05s-3.58-0.92-3.58-2.05
					S721.99,311.66,723.97,311.66z"/>
			</g>
			<g>
				<path fill="#251226" d="M640.38,325.9c-25.67,0-23.02-17.49-23.02-17.49h43.85C661.21,308.41,660.66,325.9,640.38,325.9z"/>
				<path fill="#FF8F0F" d="M642.53,308.62c4.55,0,8.24,3.69,8.24,8.24s-3.69,8.24-8.24,8.24s-8.24-3.69-8.24-8.24
					S637.98,308.62,642.53,308.62z"/>
				<g>
					<path fill="#251226" d="M644.15,312.51c0.3,1.43,0.44,2.86,0.44,4.29c0,1.43-0.14,2.86-0.44,4.29
						c-0.32,1.43-0.76,2.86-1.61,4.29c-0.86-1.43-1.3-2.86-1.61-4.29c-0.3-1.43-0.44-2.86-0.44-4.29c0-1.43,0.14-2.86,0.44-4.29
						c0.32-1.43,0.75-2.86,1.6-4.29C643.38,309.65,643.82,311.08,644.15,312.51z"/>
				</g>
				<path fill="#FFFFFF" d="M638.64,311.66c1.98,0,3.58,0.92,3.58,2.05c0,1.13-1.6,2.05-3.58,2.05c-1.98,0-3.58-0.92-3.58-2.05
					S636.66,311.66,638.64,311.66z"/>
			</g>
			<g>
				
					<path fill="none" stroke="#251226" stroke-width="3.1689" stroke-linecap="round" stroke-linejoin="round" stroke-miterlimit="10" d="
					M743.99,343.88c0,0-3.07,4.65-6.04,5.82c-15.12,5.94-61.48-15.62-61.48-15.62s-46.36,21.56-61.48,15.62
					c-2.97-1.16-6.04-5.82-6.04-5.82"/>
				
					<line fill="none" stroke="#251226" stroke-width="3.1689" stroke-linecap="round" stroke-miterlimit="10" x1="676.48" y1="324.29" x2="676.48" y2="334.08"/>
				<path fill="#251226" d="M670.03,314.3c-1.69,2.08-1.8,4.9,0,6.45c1.55,1.34,5.85,2.95,6.69,4.82c0.43-1.37,1.7-2.29,2.96-2.98
					s2.62-1.29,3.54-2.4c1.3-1.56,1.35-4.03,0.12-5.65C681.01,311.47,672.33,311.46,670.03,314.3z"/>
				<path fill="#FFFFFF" d="M674.9,314.2c0.99,0,1.79,0.8,1.79,1.79c0,0.99-0.8,1.79-1.79,1.79s-1.79-0.8-1.79-1.79
					C673.11,315.01,673.91,314.21,674.9,314.2z"/>
				<path fill="none" stroke="#E0AC75" stroke-width="3.0627" stroke-linecap="round" stroke-miterlimit="10" d="M663.11,356.75
					c8.7,0,17.41,0,26.12,0"/>
			</g>
		</g>
		<path display="inline" fill="none" stroke="#E0AC75" stroke-width="3.0627" stroke-linecap="round" stroke-miterlimit="10" d="
			M687.19,599.51c2.16-12.38,5.82-24.5,10.88-36.01c-1.67,0.65-3.35,1.3-5.03,1.95c2.83-6.1,5.66-12.2,8.48-18.3"/>
		<polygon display="inline" fill="#FFFFFF" points="463.58,317.66 470.82,279.11 432.96,268.86 467.61,250.49 452.02,214.5 
			487.99,230.13 506.41,195.5 516.62,233.37 555.17,226.18 531.93,257.77 561.59,283.44 522.4,284.96 520.83,324.15 495.2,294.45 		
			"/>
		<g display="inline">
			<path fill="none" stroke="#251226" stroke-width="4.3001" stroke-linecap="round" stroke-miterlimit="10" d="M495.67,240.42
				c2.27,3.63,3.98,7.22,2.09,11.34c-1.61,3.51-4.16,4.7-2.42,8.8c1.37,3.21,5.94,5.36,4.56,9.33c-0.85,2.46-4.16,3.37-5.37,5.67
				c-2.1,3.98,2.36,7.59,2.96,11.39c0.75,4.75-0.04,10.24-0.02,15.06c0.05,11.64,0.2,23.28,0.51,34.92
				c0.55,20.7,1.35,41.53,4.06,62.09"/>
			<path fill="none" stroke="#251226" stroke-width="10.7503" stroke-linecap="round" stroke-miterlimit="10" d="M498.44,351.71
				c0.58,15.81,1.53,31.64,3.6,47.31"/>
		</g>
		<g display="inline">
			<path fill="#F1D8A2" d="M625.92,482.08L608.7,528c-4.62,12.31-19.2,17.52-30.57,10.92c-14.16-8.21-30.45-17.62-35.68-20.85
				c-11.83-7.31-7.41-16.55-16.83-3.89l-3.03-9.05l-10.62,13c-0.11-32.72-12.41-120.94-16.28-122.09
				c-6.03,0.33-7.65-15.72-7.65-15.72l17.74-7.01l33.54,59.28l58.29,44.06L625.92,482.08z"/>
			<g>
				<path fill="#914E4E" d="M580.21,463.49l-8.13-6.15c0.71,10.57-1.09,21.31-5.37,31c0.98,1.26,10.35-16.48,10.88-17.93
					C578.42,468.15,579.35,465.83,580.21,463.49z"/>
				<path fill="#914E4E" d="M530.78,417.85l-5.34-9.23c-1.69,0.9-3.21,2.21-4.41,3.7c-2.44,3.03-3.8,6.77-5.13,10.43
					C520.86,421.11,525.82,419.48,530.78,417.85z"/>
				<path fill="#914E4E" d="M525.27,460.21c4.46-9.86,10.86-18.82,18.7-26.27l-4.64-1.35l-5.91-10.2
					C529.1,434.58,526.34,447.32,525.27,460.21z"/>
			</g>
		</g>
	</g>
	<g display="none">
		<g display="inline">
			<g>
				<polygon fill="#FCC483" points="222.37,320.63 247.87,422.76 292.42,425.99 263.68,260.35 261.27,260.08 				"/>
				<polygon fill="#690E0A" points="249.05,424.73 293.6,427.97 263.68,260.35 223.77,321.9 				"/>
				
					<linearGradient id="SVGID_00000032618544275668742390000002814663832725253290_" gradientUnits="userSpaceOnUse" x1="-586.2022" y1="139.717" x2="-504.8691" y2="139.717" gradientTransform="matrix(-0.9936 -0.1126 0.1126 -0.9936 -292.5499 422.6683)">
					<stop  offset="0.1941" style="stop-color:#FFFFFF"/>
					<stop  offset="1" style="stop-color:#CACACA"/>
				</linearGradient>
				<polygon fill="url(#SVGID_00000032618544275668742390000002814663832725253290_)" points="251.83,428.22 296.38,431.46 
					275.21,261.94 226.55,325.39 				"/>
				<path fill="#FFFFFF" d="M229.55,346.47l-2.59-21.46c0,0,15.06-4.46,48.48-3.51c33.42,0.95,52.37,18.05,52.37,18.05l0.14,12.4
					L229.55,346.47z"/>
				<polygon fill="#FCC483" points="255.9,437.81 231.66,328.73 330.84,344.64 350.54,454.46 				"/>
				<polygon fill="#FF8F0F" points="256.3,440.27 231.74,331.17 331.24,347.1 350.93,456.92 				"/>
				<path fill="#FCC483" d="M231.67,328.73l24.34,111c0.03,0.17-0.19,0.27-0.3,0.13L247,428.41c-0.01-0.02-0.02-0.05-0.03-0.07
					l-24.55-107.65l0.71-0.96C223.13,319.73,231.72,328.75,231.67,328.73z"/>
				<polygon fill="#690E0A" points="256.3,440.27 247,428.73 222.44,320.78 232.21,331.34 				"/>
				<g>
					<path fill="#CACACA" d="M319.93,337.04c-1.82-0.89-3.61-1.83-5.44-2.67c-1.88-0.76-3.71-1.6-5.6-2.31
						c-1.91-0.64-3.8-1.35-5.73-1.93c-7.72-2.34-15.67-3.89-23.7-4.71c-8.02-0.93-16.12-1.12-24.2-0.92
						c-2.02,0.05-4.04,0.16-6.06,0.24c-2.01,0.12-4.03,0.3-6.05,0.44c-2.02,0.16-4.03,0.38-6.05,0.57l-6.04,0.74
						c1.99-0.38,3.99-0.77,5.99-1.11c2.01-0.3,4.02-0.62,6.03-0.89c2.02-0.22,4.04-0.46,6.06-0.64c2.02-0.15,4.05-0.32,6.08-0.44
						c8.12-0.42,16.28-0.22,24.39,0.61c8.09,0.94,16.14,2.49,23.88,5.08c1.93,0.65,3.82,1.42,5.73,2.13
						c1.88,0.78,3.72,1.67,5.57,2.51c1.8,0.94,3.55,1.99,5.33,2.97c1.71,1.1,3.38,2.27,5.05,3.41L319.93,337.04z"/>
				</g>
				<g>
					<path fill="#CACACA" d="M315.99,340.61c-1.82-0.62-3.63-1.27-5.46-1.86c-1.84-0.56-3.66-1.18-5.51-1.71
						c-1.86-0.51-3.7-1.06-5.56-1.53c-7.44-1.93-14.96-3.52-22.56-4.66c-7.58-1.25-15.23-2.05-22.9-2.58l-5.76-0.34l-5.77-0.19
						l-5.77-0.09l-5.78,0.04c1.92-0.15,3.84-0.3,5.77-0.41l5.79-0.22l5.79-0.01l5.79,0.15c7.72,0.31,15.42,1.13,23.06,2.28
						c7.62,1.26,15.21,2.85,22.63,5.01c1.86,0.53,3.7,1.15,5.54,1.72c1.84,0.6,3.65,1.27,5.47,1.91c1.8,0.69,3.58,1.44,5.37,2.16
						c1.77,0.76,3.51,1.59,5.26,2.4L315.99,340.61z"/>
				</g>
			</g>
			<g>
				<g>
					<g>
						<g>
							<path fill="#FFFFFF" d="M292.13,387.53l24.26,2.16c2.26,0.2,3.63-2.03,2.92-4.75l-6.69-25.52l1.59,23.59l-22.68-2.67
								L292.13,387.53z"/>
							<path fill="none" stroke="#FB8A08" stroke-width="1.0177" stroke-linecap="round" stroke-miterlimit="10" d="M311.66,385.05
								c-0.21-0.78-0.43-1.55-0.64-2.33"/>
							<path fill="none" stroke="#FB8A08" stroke-width="1.0177" stroke-linecap="round" stroke-miterlimit="10" d="M314.85,384.58
								c-0.2-0.54-0.41-1.09-0.61-1.63"/>
							<path fill="none" stroke="#FB8A08" stroke-width="1.0177" stroke-linecap="round" stroke-miterlimit="10" d="M315.29,379.38
								c-0.4-0.1-0.81-0.21-1.21-0.31"/>
							<path fill="none" stroke="#FB8A08" stroke-width="1.0177" stroke-linecap="round" stroke-miterlimit="10" d="M314.78,375.35
								c-0.3-0.03-0.6-0.05-0.9-0.08"/>
							<path fill="none" stroke="#FB8A08" stroke-width="1.0177" stroke-linecap="round" stroke-miterlimit="10" d="M314.43,371.7
								c-0.25-0.07-0.5-0.15-0.75-0.23"/>
							<path fill="none" stroke="#FB8A08" stroke-width="1.0177" stroke-linecap="round" stroke-miterlimit="10" d="M314.02,368.67
								c-0.13,0-0.25,0-0.38,0"/>
						</g>
						<g>
							<path fill="#FFFFFF" d="M285.8,386.6l-22.94-3.2c-1.98-0.28-3.56-2.5-3.53-4.98l0.55-24.07l3.14,23.23l22.7,3.3L285.8,386.6z
								"/>
							<path fill="none" stroke="#FB8A08" stroke-width="1.0177" stroke-linecap="round" stroke-miterlimit="10" d="M266.36,381.77
								c0.11-1.11,0.21-2.21,0.32-3.32"/>
							<path fill="none" stroke="#FB8A08" stroke-width="1.0177" stroke-linecap="round" stroke-miterlimit="10" d="M262.92,380.5
								c0.01-0.9,0.13-1.79,0.36-2.62"/>
							<path fill="none" stroke="#FB8A08" stroke-width="1.0177" stroke-linecap="round" stroke-miterlimit="10" d="M260.63,375.53
								c0.59-0.22,1.21-0.3,1.84-0.24"/>
							<path fill="none" stroke="#FB8A08" stroke-width="1.0177" stroke-linecap="round" stroke-miterlimit="10" d="M260.62,370.42
								c0.37-0.15,0.78-0.17,1.17-0.04"/>
							<path fill="none" stroke="#FB8A08" stroke-width="1.0177" stroke-linecap="round" stroke-miterlimit="10" d="M260.78,365.08
								c0.19,0.01,0.37,0.01,0.56,0.02"/>
						</g>
						<g>
							<g>
								<polygon fill="#FFFFFF" points="268.73,377.71 268.42,392.17 277.84,402.91 283.61,396.14 296.47,398.24 302.2,404.32 
									314.73,397.08 308.43,381.42 								"/>
								<polyline fill="#FFFFFF" stroke="#FB8A08" stroke-width="1.0177" stroke-linecap="round" stroke-miterlimit="10" points="
									282.58,393.69 288.47,407.75 295.79,408.24 297.76,395.33 								"/>
								
									<line fill="none" stroke="#FB8A08" stroke-width="1.0177" stroke-linecap="round" stroke-miterlimit="10" x1="290.26" y1="398.13" x2="291.82" y2="407.75"/>
								<polygon fill="#FB8A08" points="286.47,391.92 288.69,386.75 292.2,392.22 								"/>
							</g>
						</g>
						<g>
							<polygon fill="#FB8A08" points="278.14,394.27 270.46,382.85 284.22,386.36 							"/>
							
								<line fill="none" stroke="#FB8A08" stroke-width="1.0177" stroke-linecap="round" stroke-miterlimit="10" x1="269.71" y1="382.25" x2="284.76" y2="386.13"/>
							<path fill="#FFFFFF" d="M277.66,386.45c0.62,0,1.26,0.62,1.43,1.38c0.17,0.76-0.2,1.38-0.82,1.38
								c-0.62,0-1.26-0.62-1.43-1.38C276.67,387.07,277.04,386.45,277.66,386.45z"/>
						</g>
						<g>
							<polygon fill="#FB8A08" points="302.63,396.8 293.43,387.15 307.55,386.99 							"/>
							<path fill="none" stroke="#FB8A08" stroke-width="1.0177" stroke-linecap="round" stroke-miterlimit="10" d="M293.15,386.79
								c5.28,0.01,10.57,0.02,15.85,0.03"/>
							<path fill="#FFFFFF" d="M301,388.62c0.62,0,1.26,0.62,1.43,1.38c0.17,0.76-0.2,1.38-0.82,1.38c-0.62,0-1.26-0.62-1.43-1.38
								C300.01,389.24,300.38,388.62,301,388.62z"/>
						</g>
					</g>
				</g>
			</g>
			<g>
				
					<text transform="matrix(-1.002 -0.2069 0.1611 0.9869 336.7762 435.2683)" fill="#FFFFFF" font-family="'ArialMT'" font-size="17.9616px">halloween</text>
			</g>
		</g>
		<g display="inline">
			<path fill="none" stroke="#FFFFFF" stroke-width="2.0293" stroke-miterlimit="10" d="M244.55,453.45
				c-17.98-6.29-52.53-28.47-61.21-45.43c-9.5-18.57-15.92-68.68-1.16-83.41c4.21-4.2,18.93,3.8,23.8,0.38
				c14.24-10.02,9.81-53.96,22.47-65.92c7.35-6.95,30.3-5.69,39-10.87c3.66-2.17,11.93-7.97,11.83-12.22
				c-0.09-3.54-6.82-9.23-10.33-9.69c-3.91-0.51-10.95,10.09-13.87,7.45c-5.91-5.36,4.6-27.24,12.26-29.49
				c12.37-3.64,36.75,17.76,42.44,29.33c7.61,15.48-17.46,58.64-3.6,68.9c7.92,5.86,27.83-16.96,37.04-13.46
				c12.5,4.75,19.06,35.29,25.48,47.02c6.84,12.49,28.8,35.64,27.58,49.83c-0.83,9.67-20.95,21.18-24.31,30.28
				c-3.78,10.22,6.29,35.81-1.37,43.55c-14.44,14.61-61.51-3.77-82.03-4.71C277.57,454.49,254.94,457.11,244.55,453.45z"/>
			<path fill="none" stroke="#FFFFFF" stroke-width="2.0293" stroke-miterlimit="10" d="M189.61,303.21
				c0.04,0.02,0.09,0.05,0.13,0.08c4.04,2.55,9.38-0.78,9.38-5.38s-5.34-7.93-9.38-5.38c-0.04,0.02-0.09,0.05-0.13,0.08
				C185.65,295.11,185.65,300.71,189.61,303.21z"/>
			<path fill="none" stroke="#FFFFFF" stroke-width="2.0293" stroke-miterlimit="10" d="M188.92,348.96
				c0.01,0.06,0.02,0.12,0.03,0.18c0.2,1.21,1.53,1.97,2.65,2.02c1.11,0.05,2.46-0.89,2.65-2.02c0.01-0.06,0.02-0.12,0.03-0.18
				c0.3-1.75-0.76-3.52-2.68-3.52C189.67,345.44,188.63,347.21,188.92,348.96z"/>
			<path fill="none" stroke="#FFFFFF" stroke-width="2.0293" stroke-miterlimit="10" d="M193.2,398.72c-0.13,2.92,2.57,5.4,5.4,5.4
				c3.03,0,5.27-2.47,5.4-5.4c0.13-2.92-2.57-5.4-5.4-5.4C195.58,393.32,193.33,395.79,193.2,398.72z"/>
			<path fill="none" stroke="#FFFFFF" stroke-width="2.0293" stroke-miterlimit="10" d="M174.86,434.66
				c-0.08,1.78,0.86,3.82,2.1,5.06c1.3,1.3,3.22,2.1,5.06,2.1c4.02,0,6.99-3.28,7.16-7.16c0.08-1.78-0.86-3.82-2.1-5.06
				c-1.3-1.3-3.22-2.1-5.06-2.1C178,427.5,175.03,430.78,174.86,434.66z"/>
			<path fill="none" stroke="#FFFFFF" stroke-width="2.0293" stroke-miterlimit="10" d="M358.95,418.37c6.08,0,6.07-9.44,0-9.44
				C352.86,408.93,352.88,418.37,358.95,418.37z"/>
			<path fill="none" stroke="#FFFFFF" stroke-width="2.0293" stroke-miterlimit="10" d="M401.34,340.75c0.11,0,0.11-0.17,0-0.17
				C401.23,340.58,401.23,340.75,401.34,340.75z"/>
			<path fill="none" stroke="#FFFFFF" stroke-width="2.0293" stroke-miterlimit="10" d="M393.6,343.63c3.35,0,3.34-5.19,0-5.19
				C390.25,338.44,390.26,343.63,393.6,343.63z"/>
			<path fill="none" stroke="#FFFFFF" stroke-width="2.0293" stroke-miterlimit="10" d="M399.13,431.63c2.74,0,2.73-4.25,0-4.25
				C396.39,427.38,396.39,431.62,399.13,431.63z"/>
			<path fill="none" stroke="#FFFFFF" stroke-width="2.0293" stroke-miterlimit="10" d="M361.53,491.23c2.13,0,2.13-3.3,0-3.3
				S359.4,491.23,361.53,491.23z"/>
			<path fill="none" stroke="#FFFFFF" stroke-width="2.0293" stroke-miterlimit="10" d="M302.18,487.38
				c0.92,1.57,2.63,2.45,4.41,2.53c2.03,0.09,3.91-1.35,4.67-3.14c0.43-1.02,0.61-2.25,0.26-3.33c-0.24-0.76-0.68-1.75-1.31-2.26
				l-0.1-0.08c-1.07-0.88-2.12-1.4-3.51-1.46c-1.37-0.06-2.5,0.64-3.51,1.46l-0.1,0.08C301.26,482.58,301.15,485.58,302.18,487.38z"
				/>
			<path fill="none" stroke="#FFFFFF" stroke-width="2.0293" stroke-miterlimit="10" d="M282.29,443.75c2.18,0,3.89-2.59,2.6-4.53
				c-0.03-0.04-0.06-0.09-0.09-0.13c-1.25-1.87-3.78-1.87-5.03,0c-0.03,0.04-0.06,0.09-0.09,0.13
				C278.39,441.16,280.1,443.75,282.29,443.75z"/>
			<path fill="none" stroke="#FFFFFF" stroke-width="2.0293" stroke-miterlimit="10" d="M235.1,480.64c5.58,0,5.57-8.65,0-8.65
				C229.52,471.99,229.53,480.64,235.1,480.64z"/>
			<path fill="none" stroke="#FFFFFF" stroke-width="2.0293" stroke-miterlimit="10" d="M359.32,360c4.97,0,4.96-7.71,0-7.71
				C354.35,352.29,354.36,360,359.32,360z"/>
			<path fill="none" stroke="#FFFFFF" stroke-width="2.0293" stroke-miterlimit="10" d="M378.48,306.11c4.87,0,4.86-7.55,0-7.55
				C373.62,298.56,373.63,306.11,378.48,306.11z"/>
			<path fill="none" stroke="#FFFFFF" stroke-width="2.0293" stroke-miterlimit="10" d="M334.47,307.67
				c-0.11,2.37,2.09,4.39,4.39,4.39c2.46,0,4.28-2.01,4.39-4.39c0.11-2.37-2.09-4.39-4.39-4.39
				C336.4,303.28,334.57,305.3,334.47,307.67z"/>
			<path fill="none" stroke="#FFFFFF" stroke-width="2.0293" stroke-miterlimit="10" d="M329.83,280.12c4.16,0,4.15-6.45,0-6.45
				C325.67,273.67,325.68,280.12,329.83,280.12z"/>
			<path fill="none" stroke="#FFFFFF" stroke-width="2.0293" stroke-miterlimit="10" d="M298.86,241.57c4.36,0,4.35-6.76,0-6.76
				C294.51,234.81,294.51,241.58,298.86,241.57z"/>
			<path fill="none" stroke="#FFFFFF" stroke-width="2.0293" stroke-miterlimit="10" d="M317.41,221.61
				c-0.12,2.83,2.5,5.23,5.23,5.23c2.93,0,5.1-2.4,5.23-5.23c0.12-2.83-2.5-5.23-5.23-5.23
				C319.71,216.38,317.54,218.77,317.41,221.61z"/>
			<path fill="none" stroke="#FFFFFF" stroke-width="2.0293" stroke-miterlimit="10" d="M229.17,229.35
				c-0.13,2.8,2.47,5.19,5.19,5.19c2.91,0,5.06-2.38,5.19-5.19c0.13-2.8-2.47-5.19-5.19-5.19
				C231.45,224.16,229.29,226.54,229.17,229.35z"/>
			<path fill="none" stroke="#FFFFFF" stroke-width="2.0293" stroke-miterlimit="10" d="M236.57,271.76c1.93,0,1.92-2.99,0-2.99
				C234.64,268.77,234.65,271.76,236.57,271.76z"/>
			<path fill="none" stroke="#FFFFFF" stroke-width="2.0293" stroke-miterlimit="10" d="M227.68,285.2c-0.09,2.22,1.96,4.1,4.1,4.1
				c2.3,0,4-1.88,4.1-4.1c0.09-2.22-1.96-4.1-4.1-4.1C229.48,281.1,227.78,282.97,227.68,285.2z"/>
			<path fill="none" stroke="#FFFFFF" stroke-width="2.0293" stroke-miterlimit="10" d="M380.33,387.9c7.2,0,7.19-11.17,0-11.17
				C373.13,376.73,373.14,387.9,380.33,387.9z"/>
		</g>
	</g>
	<g>
		<path fill="#251226" d="M55.93,309.09c-0.59-21.76,13.67-43.15,33.98-50.98c9.96-3.83,21.06-4.27,31.4-1.79
			c11.67,2.8,18.27,9.99,27.79,15.85c4.29-17.57,9.12-32.74,25.36-43.21c6.47,11.45,21.72,16.81,34.04,12.49l0.01,0.02
			c0.03-0.02,0.06-0.03,0.09-0.05c0.04-0.01,0.07-0.02,0.1-0.03l-0.01-0.02c11.66-5.88,18.38-20.58,14.61-33.19
			c18.8-4.44,33.08,2.59,48.71,11.69c2.38-10.92,1.78-20.66,7.85-31.01c5.38-9.18,13.39-16.87,23.06-21.38
			c19.73-9.2,45.03-4.64,60.3,10.87C351.61,124.64,304,80.67,249.54,73.37c1.47,23.66-8.2,47.77-25.61,63.85
			c-7.29,6.73-16.51,12.28-26.42,11.9c-9.9-0.38-23.49-17.16-23.49-17.16s4.99,10.9-4.52,17.54c-11.39,2.25-15.78-8.91-15.78-8.91
			s2.67,21.43-3.93,28.83c-6.6,7.4-16.99,10.2-26.89,10.78c-23.66,1.39-47.74-8.36-63.76-25.83
			C26.64,198.68,25.3,263.47,55.93,309.09z"/>
	</g>
</g>
<g id="TEXTS" display="none">
	
		<text transform="matrix(1 0 0 1 462.0082 328.3349)" display="inline" fill="#FF8F0F" font-family="'ArialMT'" font-size="93.9265px">party</text>
	<g display="inline">
		<text transform="matrix(1 0 0 1 465.9321 237.5453)" fill="#FFFFFF" font-family="'ArialMT'" font-size="98.0347px">Halloween</text>
	</g>
	<g display="inline">
		<rect x="462.01" y="375.77" fill="none" width="512.09" height="84.83"/>
		<text transform="matrix(1 0 0 1 462.0085 386.4193)" fill="#FFFFFF" font-family="'ArialMT'" font-size="15px">Adipiscing elit, sdiam nonummy euismod Ut wisi enim ad minim veniam.Lorem </text>
		<text transform="matrix(1 0 0 1 462.0085 410.0893)" fill="#FFFFFF" font-family="'ArialMT'" font-size="15px">ipsum dolor sit amet, consectetuer adipiscing elit, sed diam nonummy nibh </text>
		<text transform="matrix(1 0 0 1 462.0085 433.7593)" fill="#FFFFFF" font-family="'ArialMT'" font-size="15px">euismod tincidunt ut laoreet dolore magna aliquam erat volutpat. Ut wisi enim ad </text>
		<text transform="matrix(1 0 0 1 462.0085 457.4393)" fill="#FFFFFF" font-family="'ArialMT'" font-size="15px">minim veniam, quis nostrud </text>
	</g>
	<g display="inline">
		<rect x="462.01" y="523.13" fill="none" width="156.19" height="36.09"/>
		<text transform="matrix(1 0 0 1 462.0085 533.7786)" fill="#FFFFFF" font-family="'ArialMT'" font-size="15px">Address, cll 11 # 11a-11</text>
		<text transform="matrix(1 0 0 1 462.0085 557.4486)" fill="#FFFFFF" font-family="'ArialMT'" font-size="15px">OCT 31 / 5pm - 10pm</text>
	</g>
	<g display="inline">
		<text transform="matrix(1 0 0 1 462.0086 500.897)" fill="#FF8F0F" font-family="'ArialMT'" font-size="20px">Information</text>
	</g>
	<g display="inline">
		<g>
			<text transform="matrix(1 0 0 1 462.0084 -49.4401)" fill="#FF8F0F" font-family="'ArialMT'" font-size="15px">HOME</text>
		</g>
		<text transform="matrix(1 0 0 1 580.5586 -49.4401)" fill="#FFFFFF" font-family="'ArialMT'" font-size="15px">ABOUT </text>
		<text transform="matrix(1 0 0 1 708.5312 -49.4401)" fill="#FFFFFF" font-family="'ArialMT'" font-size="15px">SERVICES</text>
		<text transform="matrix(1 0 0 1 851.9736 -49.4401)" fill="#FFFFFF" font-family="'ArialMT'" font-size="15px">CONTACT US</text>
		<g>
			<text transform="matrix(1 0 0 1 1016.0523 -49.4401)" fill="#FFFFFF" font-family="'ArialMT'" font-size="15px">FAQ</text>
		</g>
	</g>
</g>
</svg>
