<?xml version="1.0" encoding="utf-8"?>
<!-- Generator: Adobe Illustrator 26.0.1, SVG Export Plug-In . SVG Version: 6.00 Build 0)  -->
<svg version="1.1" id="圖層_1" xmlns="http://www.w3.org/2000/svg" xmlns:xlink="http://www.w3.org/1999/xlink" x="0px" y="0px"
	 viewBox="0 0 390 390" enable-background="new 0 0 390 390" xml:space="preserve">
<g id="BACKGROUND" display="none">
	<g display="inline">
		<g>
			<defs>
				<rect id="SVGID_1_" x="-709.49" y="-194.6" width="1920" height="1080"/>
			</defs>
			<clipPath id="SVGID_00000103960425764086596090000015645094471437975716_">
				<use xlink:href="#SVGID_1_"  overflow="visible"/>
			</clipPath>
			<g clip-path="url(#SVGID_00000103960425764086596090000015645094471437975716_)">
				<rect x="-709.49" y="-194.6" fill="#6A42C8" width="1920" height="1080"/>
				<g>
					<path fill="#9165E6" d="M155.56,24.62c-16.35-17.75-33.68-34.69-51.93-50.72c-189.55-166.4-484.9-231.72-716.89-118.15
						C-903.95-1.95-1051.59,375.28-951.1,679.28c65.3,197.57,224.49,353.61,423.73,412.47c310.05,91.58,663.09-63.85,803.29-355.68
						c10.14-21.11,19.09-42.79,26.75-64.92C379.04,450.65,311.4,193.82,155.56,24.62z"/>
					<path fill="none" stroke="#9165E6" stroke-width="2" stroke-miterlimit="10" d="M-782.84,224.39
						c-58.64,115.89-107.5,238.96-120.59,368.18s12.58,265.97,90.94,369.56c63.69,84.19,158.87,141.87,260.75,169.53
						s210.16,26.63,313.98,7.5c122.13-22.5,243.16-72.3,327.89-163.09c77.69-83.25,119.45-195.97,129.42-309.41
						c9.96-113.44-10.12-227.86-43.87-336.62C138.24,209.4,82.44,91.88-5.42,1.14C-116.83-113.91-277.98-179.03-438.04-173.7
						c-291.96,9.74-569.07,260.84-597.32,553.53c-19.36,200.61,80.04,397.71,242.95,513.42
						c153.41,108.96,353.26,144.02,538.44,110.69c218.49-39.33,422.62-177.73,517.7-378.34c95.07-200.62,66.55-460.21-87.71-619.86
						C46.94-127.83-146.46-178.62-331.83-190.54"/>
					<path fill="none" stroke="#9165E6" stroke-width="2" stroke-miterlimit="10" d="M-592.22,1037.18
						c-120.68-20.26-228.68-96.11-298.65-196.51s-103.53-223.56-106.39-345.9c-4.06-173.07,53.38-347.92,163.83-481.21
						c112.68-135.98,288.57-230.2,464.49-247.35c178.36-17.39,369.65,67.57,489.92,196.64c11.15,11.96,21.8,24.39,31.89,37.26
						C282.1,164.79,318.37,397.83,245.31,594"/>
				</g>
				<g>
					<path fill="#B587FF" d="M6.39,152.19c-11.54-12.53-23.78-24.49-36.66-35.81C-164.1-1.1-372.6-47.22-536.39,32.96
						c-205.22,100.46-309.44,366.79-238.51,581.4c46.1,139.48,158.49,249.65,299.15,291.2c218.9,64.66,468.14-45.08,567.11-251.1
						c7.16-14.9,13.47-30.21,18.89-45.83C164.18,452.96,116.42,271.64,6.39,152.19z"/>
					<path fill="none" stroke="#B587FF" stroke-width="2" stroke-miterlimit="10" d="M-656.11,293.22
						c-41.4,81.82-75.89,168.7-85.13,259.93s8.88,187.77,64.2,260.9c44.96,59.44,112.16,100.16,184.09,119.69
						c71.93,19.53,148.37,18.8,221.67,5.29c86.22-15.88,171.67-51.04,231.48-115.14c54.85-58.78,84.33-138.35,91.37-218.44
						c7.03-80.09-7.15-160.87-30.97-237.65c-26.43-85.17-65.81-168.14-127.85-232.2C-185.9,54.38-299.67,8.4-412.67,12.17
						c-206.12,6.87-401.76,184.15-421.7,390.79c-13.67,141.63,56.51,280.78,171.52,362.47c108.3,76.92,249.39,101.68,380.13,78.15
						c154.25-27.77,298.37-125.47,365.49-267.1s46.98-324.91-61.93-437.61C-70.29,44.56-206.83,8.7-337.7,0.28"/>
					<path fill="none" stroke="#B587FF" stroke-width="2" stroke-miterlimit="10" d="M-521.53,867.04
						c-85.2-14.3-161.44-67.85-210.84-138.73c-49.4-70.88-73.09-157.83-75.11-244.2c-2.86-122.18,37.68-245.63,115.67-339.73
						c79.55-96,203.73-162.52,327.93-174.63C-237.96-42.53-102.91,17.45-18,108.58c7.87,8.45,15.39,17.22,22.52,26.3
						c91.22,116.26,116.82,280.78,65.24,419.28"/>
				</g>
			</g>
		</g>
		<g>
			<defs>
				<rect id="SVGID_00000149358904218870372130000007700249711230798779_" x="-709.49" y="-194.6" width="1920" height="1080"/>
			</defs>
			<clipPath id="SVGID_00000037692031875697166140000007464740978395722685_">
				<use xlink:href="#SVGID_00000149358904218870372130000007700249711230798779_"  overflow="visible"/>
			</clipPath>
			<g clip-path="url(#SVGID_00000037692031875697166140000007464740978395722685_)">
				<path fill="#251226" d="M1210.51,571.22c-226.38,0-560.52,104.55-700.5,149.24c-69.35,22.14-120.33,39.99-152.97,46.34
					c-50.76,9.87-161.61,9.59-201.5-23.31c-39.73-32.77-86.76-66.27-141.37-97.07c-261.99-147.77-652.66-142.04-723.66-134.71V687.3
					v227.37l0,0h993.4c-0.68-0.83-1.36,0.84-2.06,0h928.66V571.22z"/>
				<g>
					<g>
						
							<rect x="-78.74" y="568.81" transform="matrix(0.2992 -0.9542 0.9542 0.2992 -548.7316 405.3979)" fill="#251226" width="160.73" height="14.91"/>
						
							<rect x="7.36" y="497.17" transform="matrix(0.2992 -0.9542 0.9542 0.2992 -499.2541 388.4379)" fill="#251226" width="14.91" height="73.87"/>
					</g>
					<g>
						
							<rect x="43.25" y="616.76" transform="matrix(0.7578 -0.6525 0.6525 0.7578 -377.3589 231.8468)" fill="#251226" width="160.73" height="14.91"/>
						
							<rect x="149.68" y="558.43" transform="matrix(0.7578 -0.6525 0.6525 0.7578 -350.4167 246.731)" fill="#251226" width="14.91" height="73.87"/>
					</g>
					<path fill="#251226" d="M-33.46,660.31c-1.29-6.81-5.62-11.68-5.49-19.35c0.1-5.95,1.96-16.95,7.65-20.31
						c13.12-7.74,16.03,13.1,18.46,20.37c4.59-5.76,6.26-17.09,11.09-24.12c8.97-13.05,23.5-27.32,39.59-30.69
						c14.05-2.94,31.39,1.29,34.19,16.67c1.58,8.69-0.27,19.16-3.92,27.1c13-4.22,26.12-0.5,18.88,14.36
						c12.08-7.23,27.85-8.16,41.18-4.23c12.39,3.65,22.96,17.57,18.29,30.56c-4.16,11.58-16.41,16.41-24.01,25.06
						c7.81-3.59,26.61-3.69,31.98,4.87c3.89,6.2-2.78,16.38-8.52,19.33c10.51-17.67,41.94,1.92,46.73,15.18
						c2.62,7.26-1.74,15.54-4.58,22.08c-3.09,7.12-8.81,11.09-16.36,13.5c-14.98,4.79-32.87,2.32-47.56-2.45
						c-18.41-5.98-35.78-15.01-51.58-26.17c-29.37-20.75-63.31-39-89.86-63.4C-24.43,672.12-32.61,664.77-33.46,660.31z"/>
				</g>
				<g>
					<g>
						
							<rect x="1005.9" y="483.75" transform="matrix(0.3101 -0.9507 0.9507 0.3101 282.422 1371.6003)" fill="#251226" width="160.73" height="14.91"/>
						
							<rect x="1092.52" y="412.17" transform="matrix(0.3101 -0.9507 0.9507 0.3101 331.9055 1355.5913)" fill="#251226" width="14.91" height="73.87"/>
					</g>
					<path fill="#251226" d="M970.65,603.42c-4.63-5.15-10.86-7.08-14.72-13.71c-3-5.14-7.1-15.51-3.98-21.33
						c7.21-13.42,20.5,2.9,26.34,7.86c0.94-7.31-3.5-17.85-3.01-26.37c0.91-15.81,5.94-35.55,17.96-46.76
						c10.49-9.79,27.51-15.16,37.88-3.45c5.85,6.61,9.7,16.52,10.69,25.21c8.93-10.35,22.08-13.96,23.59,2.5
						c6.59-12.45,19.6-21.41,33.02-24.96c12.48-3.3,28.74,3.13,31.48,16.66c2.44,12.06-5.53,22.54-7.55,33.87
						c4.82-7.11,20.85-16.94,29.88-12.4c6.54,3.28,6.11,15.46,2.72,20.95c-0.17-20.56,36.87-20.08,47.83-11.23
						c6,4.85,6.56,14.19,7.52,21.26c1.05,7.69-1.79,14.05-7,20.03c-10.33,11.86-26.92,19.02-41.95,22.55
						c-18.85,4.43-38.38,5.7-57.68,4.34c-35.87-2.53-74.36-0.56-109.71-7.67C984.49,608.85,973.68,606.8,970.65,603.42z"/>
				</g>
			</g>
		</g>
	</g>
</g>
<g id="OBJECTS">
	<g display="none">
		<polygon display="inline" fill="#FFFFFF" points="-599.28,288.17 -574.89,291.42 -599.28,294.66 -602.53,319.05 -605.78,294.66 
			-630.16,291.42 -605.78,288.17 -602.53,263.78 		"/>
		<polygon display="inline" fill="#FFFFFF" points="-227.37,-57.19 -211.65,-55.09 -227.37,-53 -229.46,-37.28 -231.55,-53 
			-247.26,-55.09 -231.55,-57.19 -229.46,-72.9 		"/>
		<polygon display="inline" fill="#FFFFFF" points="-579.8,-5.83 -564.08,-3.73 -579.8,-1.64 -581.89,14.08 -583.99,-1.64 
			-599.7,-3.73 -583.99,-5.83 -581.89,-21.54 		"/>
		<polygon display="inline" fill="#FFFFFF" points="223.12,518.4 238.85,520.5 223.12,522.59 221.04,538.31 218.95,522.59 
			203.23,520.5 218.95,518.4 221.04,502.69 		"/>
		<polygon display="inline" fill="#FFFFFF" points="129.26,95.12 144.98,97.22 129.26,99.31 127.17,115.03 125.07,99.31 
			109.36,97.22 125.07,95.12 127.17,79.41 		"/>
		<polygon display="inline" fill="#FFFFFF" points="-371.4,116.38 -347.03,119.62 -371.4,122.87 -374.65,147.26 -377.9,122.87 
			-402.29,119.62 -377.9,116.38 -374.65,91.99 		"/>
	</g>
	<g display="none">
		<g display="inline">
			<path fill="#F1D8A2" d="M-463.51,601.46l-133.67-112.79c15.33-42.06,30.66-84.12,46-126.17c6.96-19.08,14.54-37.09,10.25-57.88
				c1.67,1.25,3.34,2.5,5.02,3.76c-1.75-1.56-1.43-12.63-1.52-15.37c-0.2-6.22-1.57-13.7-0.38-19.78c1.06,1.02,7.08,6.28,6.95,7.65
				c0.25-2.86,0.49-5.73,0.74-8.59c1.55,1.08,3.11,2.17,4.66,3.25c-2.05-5.86,2.31-13.05,8.45-13.95
				c-2.21-19.41,2.42-42.02,20.91-51.17c-0.64,11.56,4.94,21.71,13.24,29.48c8.2,7.68,18.25,13.07,27.2,19.87
				c9.32,7.09,17.54,16.86,20.64,28.39c2.27,8.46,1.15,19.08,1.55,27.8c0.67,14.63,1.33,29.27,2,43.9l-73.1,136.46l52.22,91.9
				L-463.51,601.46z"/>
			<path fill="#E0AC75" d="M-455.99,587.86c-11.89-10.39-24.07-20.46-35.42-31.44c-9.86-9.54-19.8-18.8-29.94-28.04
				c-8.94-8.14-17.81-16.92-23.02-28c-0.4-0.85,0.39-1.82,1.3-1.35c0.55,0.28,1.11,0.5,1.68,0.7
				c-12.46-11.94-17.41-31.71-21.14-47.74c-0.18-0.76,0.65-1.62,1.4-1.12c2.42,1.61,4.8,3.27,7.16,4.97
				c-4.36-10.89-0.87-24.32,0.63-35.42c2.19-16.19,4.75-32.59,11.96-47.42c0.38-0.77,1.54-0.56,1.77,0.2
				c0.83,2.69,1.85,5.31,2.82,7.95c3.03-21.85,14.15-41.4,23.73-61.05c-2.75,2.11-5.45,4.27-8.12,6.49c-0.6,0.5-1.32,0.3-1.63-0.4
				c-5.29-12-2.97-24.81-0.61-37.23c0.13-0.68,1.15-1,1.61-0.46c1.1,1.29,2.35,2.4,3.58,3.55c-2.1-10.04-1.09-20.23,0.55-30.32
				c-5.78,1.31-9.74,8.16-7.77,13.81c-1.55-1.08-3.11-2.17-4.66-3.25c-0.25,2.86-0.49,5.73-0.74,8.59c0.13-1.37-5.89-6.63-6.95-7.65
				c-1.19,6.07,0.17,13.56,0.38,19.78c0.09,2.73-0.24,13.81,1.52,15.37c-1.67-1.25-3.34-2.5-5.02-3.76
				c4.28,20.8-3.3,38.8-10.25,57.88c-15.33,42.06-30.66,84.12-46,126.17l133.68,112.79l9.73-11.56
				C-454.51,589.22-455.23,588.52-455.99,587.86z"/>
			<g>
				<path fill="#914E4E" d="M-482.93,534.42l-5.76-10.14c-3.97,5.53-7.94,11.07-11.9,16.6
					C-494.72,538.72-488.83,536.57-482.93,534.42z"/>
				<path fill="#914E4E" d="M-507.22,377.73c-12.46-11.09-24.93-22.17-37.39-33.26l-8.96,24.56
					C-538.11,371.94-522.66,374.83-507.22,377.73z"/>
				<path fill="#914E4E" d="M-522.8,516.03c-11.24,4.07-23.32,6.18-35.23,5.67l8.39,7.08C-540.7,524.52-531.76,520.28-522.8,516.03z
					"/>
				<path fill="#914E4E" d="M-572.48,420.94l-3.89,10.67c14.78,0.45,28.93,5.97,42.7,11.44
					C-546.61,435.68-559.54,428.31-572.48,420.94z"/>
				<path fill="#914E4E" d="M-501.68,490.93l4.97-9.27c-10.24-7.7-20.47-15.4-30.71-23.11
					C-518.84,469.35-510.27,480.14-501.68,490.93z"/>
				<path fill="#914E4E" d="M-479.6,449.72l6.86-12.8c-18.08-16.42-41.85-26.47-66.24-27.89
					C-516.21,417.38-495.65,431.54-479.6,449.72z"/>
				<path fill="#914E4E" d="M-463.49,285.56c-12.03,1.15-23.97,3.35-35.62,6.57c21.63-2.65,43.76-1.01,64.78,4.7l-0.54-11.78
					C-444.01,286.31-454.54,284.7-463.49,285.56z"/>
				<path fill="#914E4E" d="M-497.21,524.87c-14.46,3.85-28.93,7.69-43.39,11.54l12.89,10.87
					C-517.54,539.81-507.38,532.34-497.21,524.87z"/>
				<path fill="#914E4E" d="M-466.65,345.44c9.25,9.42,18.51,18.84,27.76,28.27l7.07-13.2
					C-440.51,350.77-453.55,344.82-466.65,345.44z"/>
				<path fill="#914E4E" d="M-478.65,565.95c-6.12,3.5-13.01,5.4-20.02,5.84l9.65,8.15C-485.57,575.27-482.1,570.61-478.65,565.95z"
					/>
			</g>
		</g>
		<g display="inline">
			<path fill="#251226" d="M-405.64,287.13l-14.43-67.14c0,0-26.35-62.75,121.73,14.43L-405,290.89"/>
			<path fill="#E07800" d="M-341.84,221.98c-14.7,7.23-29.71,13.87-44.89,20.04c-8.8,3.58-17.62,7.13-26.2,11.15l7.3,33.96
				l0.63,3.76l106.67-56.47c-12.78-6.66-24.23-12.26-34.54-16.96C-335.85,218.98-338.84,220.5-341.84,221.98z"/>
			<path fill="#251226" d="M-396.39,430.08L-396.39,430.08c-52.42-0.81-87.88-53.75-68.66-102.54l2.47-6.26
				c7.54-19.14,22.61-34.35,41.69-42.07l156.53-63.29c21.35-8.63,45.47-6.98,65.45,4.47l15.95,9.14
				c45.55,26.11,50.89,89.72,10.34,123.06l-44.65,36.72c-9.87,8.12-21.66,13.58-34.24,15.87l-130.29,23.69
				C-386.61,429.75-391.49,430.16-396.39,430.08z"/>
			<path fill="none" stroke="#FFFFFF" stroke-width="5.1045" stroke-miterlimit="10" d="M-405.8,200.84
				c23.64,2.15,47.49,13.17,70.59,23.29"/>
		</g>
		<g display="inline">
			<polygon fill="#E0AC75" points="-414.16,448.84 -470.95,588.37 -443.76,645.75 -307.85,645.75 -307.85,448.84 			"/>
			<path fill="#F1D8A2" d="M-443.76,644.92l77.18-30.2c0,0,26.82-1.58,11.04,31.02L-443.76,644.92z"/>
		</g>
		<g display="inline">
			<path fill="#E0AC75" d="M-179.41,644.09h-85.67v-20.02l50.68-7.07c16.06-2.24,31.1,8.36,34.39,24.24L-179.41,644.09z"/>
			<path fill="#F1D8A2" d="M-148.02,470.11c-5.6-11.5-11.19-22.99-16.79-34.49c-11.54-23.71-23.08-47.43-34.63-71.14
				c-3.68-7.57-7.55-14.8-11.72-22.1l8,2.53l-13.21-17.57l12.92,4.86c-1.18-0.54-2.63-3.43-3.43-4.48c-1.35-1.77-2.71-3.53-4.06-5.3
				c-2.6-3.4-5.2-6.79-7.8-10.19s-5.2-6.79-7.8-10.19c-1.67-2.18-3.34-5.32-5.86-6.65c-2.72-1.44-6.6-1.57-9.58-2.1
				c-4.09-0.73-8.19-1.37-12.3-1.92c-7.78-1.04-15.61-1.77-23.45-2.2c-23.14-1.26-46.53-0.01-69.36,4.04c-4.48,0.8-9,1.64-13.4,2.84
				c-0.83,0.23-2.31,5.35-2.67,6.08c-1.49,3-4.31,5-6.59,7.46c-6.39,6.9-12.78,13.8-19.17,20.7l12.71-4.32l-15.73,27.17l6.97-2.31
				c-12.66,31.66-27.15,62.66-40.88,93.88c-3.72,8.47-7.45,16.94-11.17,25.41l112.92,174.6h56.62c24.59,0,46.9-14.39,57.05-36.78
				L-148.02,470.11z"/>
			<path fill="#E0AC75" d="M-380.84,556.99l56.73,87.72h55.59c25.21,0,48.09-14.75,58.5-37.72l22.65-50l16.27-35.32l-33.02,35.32
				L-380.84,556.99L-380.84,556.99z"/>
			<path fill="#914E4E" d="M-276.9,289.22c-3.54-0.2-7.01-0.33-10.4-0.41c1.3,7.69,2.59,15.38,3.89,23.06
				c2.62-6.17,4.63-12.6,5.98-19.17C-277.18,291.57-276.99,290.39-276.9,289.22z"/>
			<path fill="#914E4E" d="M-308.74,289.04c1.55,3.82,4.49,7.77,6.02,11.43c1.99,4.75,3.66,9.63,4.98,14.6
				c0.61-8.78,1.21-17.56,1.82-26.35C-300.35,288.75-304.65,288.86-308.74,289.04z"/>
			<path fill="#914E4E" d="M-401.14,397.16c-0.97-0.66-1.96-1.4-2.86-2.21l-9.81,22.32c20.54,10.2,43.28,15.96,66.21,16.72
				C-365.45,421.72-383.28,409.44-401.14,397.16z"/>
			<path fill="#914E4E" d="M-387.3,368.38c-1.12-0.9-2.32-2.04-3.57-3.26l-9.1,20.7c22.6,10.26,46.98,16.59,71.72,18.59
				c-7.66-3.44-15.16-7.23-22.48-11.35C-363.55,385.83-375.8,377.57-387.3,368.38z"/>
			<path fill="#914E4E" d="M-190.91,381.99l-8.12-16.69c-6.35,8.43-13.13,16.26-20.33,23.33c-4.79,4.7-9.75,9.09-14.86,13.13
				C-219.01,398.28-204.37,391.56-190.91,381.99z"/>
			<path fill="#914E4E" d="M-185.87,392.37c-10.36,12.4-20.72,24.8-31.09,37.2c14.35-2.32,28.16-8.43,40.5-17.85L-185.87,392.37z"/>
			
				<path fill="none" stroke="#E0AC75" stroke-width="3.0627" stroke-linecap="round" stroke-linejoin="round" stroke-miterlimit="10" d="
				M-259.95,384.01c2.16,8.7,4.33,17.39,6.49,26.09c-2.89-2.21-5.78-4.43-8.67-6.64c2.48,8.15,3.02,16.88,1.56,25.27
				c-1.23-1.1-2.45-2.21-3.68-3.31c0.7,9.18-1.37,18.54-5.88,26.57"/>
		</g>
		<g display="inline">
			<path fill="#F1D8A2" d="M-286.55,655.75h-38.32c0,0-4.55-5.34-1.17-13.8l-81.68-126.53h105.66L-286.55,655.75z"/>
			<path fill="none" stroke="#E0AC75" stroke-width="3.0627" stroke-linecap="round" stroke-miterlimit="10" d="M-322.26,638.69
				c-2.72,1.76-4.67,4.65-5.3,7.82c-0.62,3.17,0.1,6.59,1.94,9.24"/>
			<path fill="none" stroke="#E0AC75" stroke-width="3.0627" stroke-linecap="round" stroke-miterlimit="10" d="M-313.02,638.54
				c-2.56,1.94-4.25,4.97-4.56,8.16s0.77,6.49,2.9,8.88"/>
			<path fill="none" stroke="#E0AC75" stroke-width="3.0627" stroke-linecap="round" stroke-miterlimit="10" d="M-304.71,637.33
				c-3.27,1.82-5.21,5.78-4.62,9.47c0.58,3.7,3.64,6.87,7.31,7.59"/>
			<path fill="#914E4E" d="M-309.6,584.69c-12.25-2.24-25.48,1.7-34.51,10.28c-1.99,1.89-5.04,4.41-7.67,7.11l5.09,7.88
				c3.13-5.76,6.88-10.89,12.39-15.25C-328.64,590.25-317.3,583.29-309.6,584.69z"/>
			<path fill="#914E4E" d="M-371.08,572.19c0.26-0.16,0.5-0.3,0.77-0.48c10.91-7.3,21.36-15.44,32.5-22.4
				c3.68-2.54,7.47-5.13,11.81-6.22c4.34-1.1,9.41-0.41,12.46,2.87c-4.59-4.34-9.81-8.94-16.12-9.02c-3.7-0.04-7.22,1.52-10.59,3.06
				c-13.3,6.05-26.59,12.1-39.89,18.15L-371.08,572.19z"/>
		</g>
		<g display="inline">
			<path fill="#E07800" d="M-409.34,398.99c0,0,26.31,43.99,145.21,96.24l-162.27,46.11l-38.28-88.02
				C-464.67,453.32-442.92,412.85-409.34,398.99z"/>
			
				<path fill="none" stroke="#FFFFFF" stroke-width="5.1045" stroke-linecap="round" stroke-linejoin="round" stroke-miterlimit="10" d="
				M-387.18,432.4c8.06,8.91,17.7,16.38,28.33,21.97"/>
			
				<path fill="none" stroke="#FFFFFF" stroke-width="5.1045" stroke-linecap="round" stroke-linejoin="round" stroke-miterlimit="10" d="
				M-345.3,461.78c0-0.19,0-0.38,0-0.57"/>
		</g>
		<g display="inline">
			<path fill="#E07800" d="M-257.11,490.66c0,0,85.69-69.94,59.37-126c0,0,43.36,16.94,72.02,37.48l7,55.69L-257.11,490.66z"/>
			
				<path fill="none" stroke="#FFFFFF" stroke-width="5.1045" stroke-linecap="round" stroke-linejoin="round" stroke-miterlimit="10" d="
				M-175.13,384.52c13.13,6.75,19.52,10.61,29.16,16.15"/>
		</g>
		<g display="inline">
			<path fill="#251226" d="M-281.78,507.7c2.43,3.43,5.55,6.32,9.3,8.14c5.95,2.88,13.47,1.41,18.53-2.84
				c5.63-4.73,8.23-12.13,9.74-19.33c1.18-5.6,1.69-11.96-1.72-16.55c-2.8-3.78-7.63-5.45-12.27-6.22
				c-9.38-1.54-21.24-1.1-26.71,7.97c-3.14,5.21-3.55,11.76-2.02,17.64C-285.91,500.42-284.18,504.32-281.78,507.7z"/>
			<path fill="#251226" d="M-276.91,509.08c1.38,2.63,2.29,5.5,2.69,8.44c0.31,2.28-0.28,5.02,1.01,7.04
				c1.4,2.21,4.42,2.55,7.03,2.67c2.33,0.11,5.07,0.03,6.43-1.88c0.94-1.32,0.85-3.08,0.93-4.7c0.18-3.64,1.41-7.21,3.49-10.2"/>
			<path fill="#FFFFFF" d="M-281.43,499.08c0.09,2.09,0.85,4.24,2.46,5.57c1.61,1.33,4.18,1.58,5.77,0.22
				c1.37-1.17,1.71-3.12,1.88-4.91c0.21-2.27,0.28-4.64-0.55-6.77c-0.83-2.13-2.74-3.98-5.02-4.1
				C-281.72,488.84-281.59,495.83-281.43,499.08z"/>
			<path fill="#FFFFFF" d="M-260.34,499.08c0.09,2.09,0.85,4.24,2.46,5.57c1.62,1.33,4.18,1.58,5.77,0.22
				c1.37-1.17,1.71-3.12,1.88-4.91c0.21-2.27,0.28-4.64-0.55-6.77c-0.83-2.13-2.74-3.98-5.02-4.1
				C-260.62,488.84-260.49,495.83-260.34,499.08z"/>
			<path fill="#FFFFFF" d="M-265.59,500.21c0,0,5.47,9.48,4.63,11.74c-0.51,1.35-6.96,3.95-9.62-0.74c-0.35-0.63,0.2-1.64,0.78-2.83
				C-269.22,507.16-265.59,500.21-265.59,500.21z"/>
		</g>
		<g display="inline">
			<g>
				<path fill="#251226" d="M-355.71,314.41h50.98c0,0,0.79,17.49-29.06,17.49C-355.15,331.9-355.71,314.41-355.71,314.41z"/>
				<path fill="#FF8F0F" d="M-330.92,322.86c0,4.55-3.69,8.24-8.24,8.24s-8.24-3.69-8.24-8.24s3.69-8.24,8.24-8.24
					S-330.92,318.31-330.92,322.86z"/>
				<g>
					<path fill="#251226" d="M-339.77,314.22c0.85,1.43,1.28,2.86,1.6,4.29c0.3,1.43,0.44,2.86,0.44,4.29
						c0,1.43-0.14,2.86-0.44,4.29c-0.31,1.43-0.75,2.86-1.61,4.29c-0.85-1.43-1.29-2.86-1.61-4.29c-0.3-1.43-0.44-2.86-0.44-4.29
						c0-1.43,0.14-2.86,0.44-4.29C-341.04,317.08-340.6,315.65-339.77,314.22z"/>
				</g>
				<path fill="#FFFFFF" d="M-331.86,319.71c0,1.13-1.6,2.05-3.58,2.05s-3.58-0.92-3.58-2.05c0-1.13,1.6-2.05,3.58-2.05
					C-333.47,317.66-331.86,318.58-331.86,319.71z"/>
			</g>
			<g>
				<path fill="#251226" d="M-272.68,314.41h43.85c0,0,2.65,17.49-23.02,17.49C-272.14,331.9-272.68,314.41-272.68,314.41z"/>
				<path fill="#FF8F0F" d="M-245.76,322.86c0,4.55-3.69,8.24-8.24,8.24c-4.55,0-8.24-3.69-8.24-8.24s3.69-8.24,8.24-8.24
					C-249.46,314.62-245.76,318.31-245.76,322.86z"/>
				<g>
					<path fill="#251226" d="M-254.01,314.22c0.85,1.43,1.28,2.86,1.6,4.29c0.3,1.43,0.44,2.86,0.44,4.29
						c0,1.43-0.14,2.86-0.44,4.29c-0.31,1.43-0.75,2.86-1.61,4.29c-0.85-1.43-1.29-2.86-1.61-4.29c-0.3-1.43-0.44-2.86-0.44-4.29
						c0-1.43,0.14-2.86,0.44-4.29C-255.29,317.08-254.85,315.65-254.01,314.22z"/>
				</g>
				<path fill="#FFFFFF" d="M-246.54,319.71c0,1.13-1.6,2.05-3.58,2.05s-3.58-0.92-3.58-2.05c0-1.13,1.6-2.05,3.58-2.05
					S-246.54,318.58-246.54,319.71z"/>
			</g>
			<g>
				
					<path fill="none" stroke="#251226" stroke-width="3.1689" stroke-linecap="round" stroke-linejoin="round" stroke-miterlimit="10" d="
					M-220.43,349.88c0,0-3.07,4.66-6.04,5.82c-15.12,5.94-61.48-15.62-61.48-15.62s-46.36,21.56-61.48,15.62
					c-2.97-1.17-6.04-5.82-6.04-5.82"/>
				
					<line fill="none" stroke="#251226" stroke-width="3.1689" stroke-linecap="round" stroke-miterlimit="10" x1="-287.96" y1="340.08" x2="-287.96" y2="330.29"/>
				<path fill="#251226" d="M-294.82,320.54c-1.23,1.62-1.18,4.09,0.12,5.65c0.92,1.11,2.28,1.71,3.54,2.4s2.53,1.61,2.96,2.98
					c0.84-1.87,5.14-3.48,6.69-4.82c1.8-1.55,1.69-4.37,0-6.45C-283.8,317.46-292.48,317.47-294.82,320.54z"/>
				<path fill="#FFFFFF" d="M-284.59,321.99c0,0.99-0.8,1.79-1.79,1.79s-1.79-0.8-1.79-1.79c0-0.99,0.8-1.79,1.79-1.79
					C-285.39,320.21-284.59,321.01-284.59,321.99z"/>
				<path fill="none" stroke="#E0AC75" stroke-width="3.0627" stroke-linecap="round" stroke-miterlimit="10" d="M-300.71,362.75
					c8.71,0,17.42,0,26.12,0"/>
			</g>
		</g>
		<path display="inline" fill="none" stroke="#E0AC75" stroke-width="3.0627" stroke-linecap="round" stroke-miterlimit="10" d="
			M-312.99,553.15c2.82,6.1,5.65,12.2,8.48,18.3c-1.68-0.65-3.36-1.3-5.03-1.95c5.06,11.51,8.72,23.63,10.88,36.01"/>
		<polygon display="inline" fill="#FFFFFF" points="-106.67,300.45 -132.3,330.15 -133.88,290.96 -173.07,289.44 -143.4,263.77 
			-166.65,232.18 -128.1,239.37 -117.88,201.5 -99.46,236.13 -63.49,220.5 -79.08,256.49 -44.43,274.86 -82.29,285.11 
			-75.06,323.66 		"/>
		<g display="inline">
			<path fill="none" stroke="#251226" stroke-width="4.3001" stroke-linecap="round" stroke-miterlimit="10" d="M-113.51,405.02
				c2.71-20.56,3.51-41.39,4.06-62.09c0.31-11.64,0.46-23.28,0.51-34.92c0.02-4.82-0.77-10.31-0.02-15.06
				c0.6-3.8,5.06-7.41,2.96-11.39c-1.21-2.3-4.52-3.21-5.37-5.67c-1.38-3.97,3.19-6.12,4.56-9.33c1.74-4.1-0.81-5.29-2.42-8.8
				c-1.89-4.12-0.18-7.71,2.09-11.34"/>
			<path fill="none" stroke="#251226" stroke-width="10.7503" stroke-linecap="round" stroke-miterlimit="10" d="M-113.51,405.02
				c2.07-15.67,3.02-31.5,3.6-47.31"/>
		</g>
		<g display="inline">
			<path fill="#F1D8A2" d="M-209.08,482.65l58.29-44.06l33.54-59.28l17.74,7.01c0,0-1.62,16.05-7.65,15.72
				c-3.87,1.15-16.17,89.37-16.28,122.09l-10.62-13l-3.03,9.05c-9.42-12.66-5-3.42-16.83,3.89c-5.23,3.23-21.52,12.64-35.68,20.85
				c-11.37,6.6-25.95,1.39-30.57-10.92l-17.22-45.92L-209.08,482.65z"/>
			<g>
				<path fill="#914E4E" d="M-189.07,476.41c0.53,1.45,9.9,19.19,10.88,17.93c-4.28-9.69-6.08-20.43-5.37-31l-8.13,6.15
					C-190.82,471.83-189.9,474.15-189.07,476.41z"/>
				<path fill="#914E4E" d="M-127.38,428.75c-1.33-3.66-2.69-7.4-5.13-10.43c-1.2-1.49-2.72-2.8-4.41-3.7l-5.34,9.23
					C-137.29,425.48-132.33,427.11-127.38,428.75z"/>
				<path fill="#914E4E" d="M-144.9,428.39l-5.91,10.2l-4.64,1.35c7.84,7.45,14.24,16.41,18.7,26.27
					C-137.82,453.32-140.57,440.58-144.9,428.39z"/>
			</g>
		</g>
	</g>
	<g display="none">
		<g display="inline">
			<g>
				<polygon fill="#FCC483" points="127.26,266.08 124.85,266.35 96.11,431.99 140.65,428.76 166.15,326.63 				"/>
				<polygon fill="#690E0A" points="164.76,327.9 124.85,266.35 94.93,433.97 139.48,430.73 				"/>
				
					<linearGradient id="SVGID_00000063611740697545903810000012133187663305473176_" gradientUnits="userSpaceOnUse" x1="72.9255" y1="58.9825" x2="154.2586" y2="58.9825" gradientTransform="matrix(0.9936 -0.1126 -0.1126 -0.9936 17.0794 422.6683)">
					<stop  offset="0.1941" style="stop-color:#FFFFFF"/>
					<stop  offset="1" style="stop-color:#CACACA"/>
				</linearGradient>
				<polygon fill="url(#SVGID_00000063611740697545903810000012133187663305473176_)" points="161.98,331.39 113.32,267.94 
					92.15,437.46 136.7,434.22 				"/>
				<path fill="#FFFFFF" d="M60.58,357.95l0.14-12.4c0,0,18.95-17.1,52.37-18.05c33.42-0.95,48.48,3.51,48.48,3.51l-2.59,21.46
					L60.58,357.95z"/>
				<polygon fill="#FCC483" points="37.99,460.46 57.69,350.64 156.87,334.73 132.62,443.81 				"/>
				<polygon fill="#FF8F0F" points="37.6,462.92 57.29,353.1 156.79,337.17 132.23,446.27 				"/>
				<path fill="#FCC483" d="M165.4,325.73l0.71,0.96l-24.55,107.65c-0.01,0.02-0.02,0.05-0.03,0.07l-8.71,11.45
					c-0.11,0.14-0.33,0.04-0.3-0.13l24.34-111C156.81,334.75,165.4,325.73,165.4,325.73z"/>
				<polygon fill="#690E0A" points="156.32,337.34 166.09,326.78 141.53,434.73 132.23,446.27 				"/>
				<g>
					<path fill="#CACACA" d="M63.36,346.12c1.67-1.14,3.34-2.31,5.05-3.41c1.78-0.98,3.53-2.03,5.33-2.97
						c1.85-0.84,3.69-1.73,5.57-2.51c1.91-0.71,3.8-1.48,5.73-2.13c7.74-2.59,15.79-4.14,23.88-5.08
						c8.11-0.83,16.27-1.03,24.39-0.61c2.03,0.12,4.06,0.29,6.08,0.44c2.02,0.18,4.04,0.42,6.06,0.64c2.01,0.27,4.02,0.59,6.03,0.89
						c2,0.34,4,0.73,5.99,1.11l-6.04-0.74c-2.02-0.19-4.03-0.41-6.05-0.57c-2.02-0.14-4.04-0.32-6.05-0.44
						c-2.02-0.08-4.04-0.19-6.06-0.24c-8.08-0.2-16.18-0.01-24.2,0.92c-8.03,0.82-15.98,2.37-23.7,4.71
						c-1.93,0.58-3.82,1.29-5.73,1.93c-1.89,0.71-3.72,1.55-5.6,2.31c-1.83,0.84-3.62,1.78-5.44,2.67L63.36,346.12z"/>
				</g>
				<g>
					<path fill="#CACACA" d="M67.14,348.68c1.75-0.81,3.49-1.64,5.26-2.4c1.79-0.72,3.57-1.47,5.37-2.16
						c1.82-0.64,3.63-1.31,5.47-1.91c1.84-0.57,3.68-1.19,5.54-1.72c7.42-2.16,15.01-3.75,22.63-5.01
						c7.64-1.15,15.34-1.97,23.06-2.28l5.79-0.15l5.79,0.01l5.79,0.22c1.93,0.11,3.85,0.26,5.77,0.41l-5.78-0.04l-5.77,0.09
						l-5.77,0.19l-5.76,0.34c-7.67,0.53-15.32,1.33-22.9,2.58c-7.6,1.14-15.12,2.73-22.56,4.66c-1.86,0.47-3.7,1.02-5.56,1.53
						c-1.85,0.53-3.67,1.15-5.51,1.71c-1.83,0.59-3.64,1.24-5.46,1.86L67.14,348.68z"/>
				</g>
			</g>
			<g>
				<g>
					<g>
						<g>
							<path fill="#FFFFFF" d="M97,386.34l-22.68,2.67l1.59-23.59l-6.69,25.52c-0.71,2.72,0.66,4.95,2.92,4.75l24.26-2.16L97,386.34
								z"/>
							<path fill="none" stroke="#FB8A08" stroke-width="1.0177" stroke-linecap="round" stroke-miterlimit="10" d="M77.51,388.72
								c-0.21,0.78-0.43,1.55-0.64,2.33"/>
							<path fill="none" stroke="#FB8A08" stroke-width="1.0177" stroke-linecap="round" stroke-miterlimit="10" d="M74.29,388.95
								c-0.2,0.54-0.41,1.09-0.61,1.63"/>
							<path fill="none" stroke="#FB8A08" stroke-width="1.0177" stroke-linecap="round" stroke-miterlimit="10" d="M74.44,385.07
								c-0.4,0.1-0.81,0.21-1.21,0.31"/>
							<path fill="none" stroke="#FB8A08" stroke-width="1.0177" stroke-linecap="round" stroke-miterlimit="10" d="M74.65,381.27
								c-0.3,0.03-0.6,0.05-0.9,0.08"/>
							<path fill="none" stroke="#FB8A08" stroke-width="1.0177" stroke-linecap="round" stroke-miterlimit="10" d="M74.85,377.47
								c-0.25,0.08-0.5,0.16-0.75,0.23"/>
							<path fill="none" stroke="#FB8A08" stroke-width="1.0177" stroke-linecap="round" stroke-miterlimit="10" d="M74.89,374.67
								c-0.13,0-0.25,0-0.38,0"/>
						</g>
						<g>
							<path fill="#FFFFFF" d="M102.81,386.88l22.7-3.3l3.14-23.23l0.55,24.07c0.03,2.48-1.55,4.7-3.53,4.98l-22.94,3.2
								L102.81,386.88z"/>
							<path fill="none" stroke="#FB8A08" stroke-width="1.0177" stroke-linecap="round" stroke-miterlimit="10" d="M121.85,384.45
								c0.11,1.11,0.21,2.21,0.32,3.32"/>
							<path fill="none" stroke="#FB8A08" stroke-width="1.0177" stroke-linecap="round" stroke-miterlimit="10" d="M125.24,383.88
								c0.23,0.83,0.35,1.72,0.36,2.62"/>
							<path fill="none" stroke="#FB8A08" stroke-width="1.0177" stroke-linecap="round" stroke-miterlimit="10" d="M126.06,381.29
								c0.63-0.06,1.25,0.02,1.84,0.24"/>
							<path fill="none" stroke="#FB8A08" stroke-width="1.0177" stroke-linecap="round" stroke-miterlimit="10" d="M126.74,376.38
								c0.39-0.13,0.8-0.11,1.17,0.04"/>
							<path fill="none" stroke="#FB8A08" stroke-width="1.0177" stroke-linecap="round" stroke-miterlimit="10" d="M127.18,371.1
								c0.19-0.01,0.37-0.01,0.56-0.02"/>
						</g>
						<g>
							<g>
								<polygon fill="#FFFFFF" points="80.1,387.42 73.79,403.08 86.33,410.32 92.06,404.24 104.92,402.14 110.69,408.91 
									120.11,398.17 119.79,383.71 								"/>
								<polyline fill="#FFFFFF" stroke="#FB8A08" stroke-width="1.0177" stroke-linecap="round" stroke-miterlimit="10" points="
									90.76,401.33 92.74,414.24 100.06,413.75 105.94,399.69 								"/>
								
									<line fill="none" stroke="#FB8A08" stroke-width="1.0177" stroke-linecap="round" stroke-miterlimit="10" x1="96.71" y1="413.75" x2="98.26" y2="404.13"/>
								<polygon fill="#FB8A08" points="96.33,398.22 99.83,392.75 102.06,397.92 								"/>
							</g>
						</g>
						<g>
							<polygon fill="#FB8A08" points="104.31,392.36 118.07,388.85 110.39,400.27 							"/>
							
								<line fill="none" stroke="#FB8A08" stroke-width="1.0177" stroke-linecap="round" stroke-miterlimit="10" x1="103.76" y1="392.13" x2="118.82" y2="388.25"/>
							<path fill="#FFFFFF" d="M111.69,393.83c-0.17,0.76-0.81,1.38-1.43,1.38s-0.99-0.62-0.82-1.38s0.81-1.38,1.43-1.38
								C111.49,392.45,111.86,393.07,111.69,393.83z"/>
						</g>
						<g>
							<polygon fill="#FB8A08" points="80.97,392.99 95.1,393.15 85.9,402.8 							"/>
							<path fill="none" stroke="#FB8A08" stroke-width="1.0177" stroke-linecap="round" stroke-miterlimit="10" d="M79.53,392.82
								c5.28-0.01,10.57-0.02,15.85-0.03"/>
							<path fill="#FFFFFF" d="M88.35,396c-0.17,0.76-0.81,1.38-1.43,1.38s-0.99-0.62-0.82-1.38s0.81-1.38,1.43-1.38
								C88.15,394.62,88.51,395.24,88.35,396z"/>
						</g>
					</g>
				</g>
			</g>
			<g>
				
					<text transform="matrix(1.002 -0.2069 -0.1611 0.9869 51.753 441.2683)" fill="#FFFFFF" font-family="'ArialMT'" font-size="17.9616px">halloween</text>
			</g>
		</g>
		<g display="inline">
			<path fill="none" stroke="#FFFFFF" stroke-width="2.0293" stroke-miterlimit="10" d="M99.96,460.99
				c-20.52,0.94-67.59,19.32-82.03,4.71c-7.66-7.74,2.41-33.33-1.37-43.55c-3.36-9.1-23.48-20.61-24.31-30.28
				c-1.22-14.19,20.74-37.34,27.58-49.83c6.42-11.73,12.98-42.27,25.48-47.02c9.21-3.5,29.12,19.32,37.04,13.46
				c13.86-10.26-11.21-53.42-3.6-68.9c5.69-11.57,30.07-32.97,42.44-29.33c7.66,2.25,18.17,24.13,12.26,29.49
				c-2.92,2.64-9.96-7.96-13.87-7.45c-3.51,0.46-10.24,6.15-10.33,9.69c-0.1,4.25,8.17,10.05,11.83,12.22
				c8.7,5.18,31.65,3.92,39,10.87c12.66,11.96,8.23,55.9,22.47,65.92c4.87,3.42,19.59-4.58,23.8-0.38
				c14.76,14.73,8.34,64.84-1.16,83.41c-8.68,16.96-43.23,39.14-61.21,45.43C133.59,463.11,110.96,460.49,99.96,460.99z"/>
			<path fill="none" stroke="#FFFFFF" stroke-width="2.0293" stroke-miterlimit="10" d="M198.92,298.61
				c-0.04-0.03-0.09-0.06-0.13-0.08c-4.04-2.55-9.38,0.78-9.38,5.38s5.34,7.93,9.38,5.38c0.04-0.03,0.09-0.06,0.13-0.08
				C202.88,306.71,202.88,301.11,198.92,298.61z"/>
			<path fill="none" stroke="#FFFFFF" stroke-width="2.0293" stroke-miterlimit="10" d="M196.93,351.44c-1.92,0-2.98,1.77-2.68,3.52
				c0.01,0.06,0.02,0.12,0.03,0.18c0.19,1.13,1.54,2.07,2.65,2.02c1.12-0.05,2.45-0.81,2.65-2.02c0.01-0.06,0.02-0.12,0.03-0.18
				C199.9,353.21,198.85,351.44,196.93,351.44z"/>
			<path fill="none" stroke="#FFFFFF" stroke-width="2.0293" stroke-miterlimit="10" d="M189.93,399.32c-2.83,0-5.53,2.48-5.4,5.4
				c0.13,2.93,2.37,5.4,5.4,5.4c2.83,0,5.53-2.48,5.4-5.4C195.2,401.79,192.95,399.32,189.93,399.32z"/>
			<path fill="none" stroke="#FFFFFF" stroke-width="2.0293" stroke-miterlimit="10" d="M206.51,433.5c-1.84,0-3.76,0.8-5.06,2.1
				c-1.24,1.24-2.18,3.28-2.1,5.06c0.17,3.88,3.14,7.16,7.16,7.16c1.84,0,3.76-0.8,5.06-2.1c1.24-1.24,2.18-3.28,2.1-5.06
				C213.49,436.78,210.53,433.5,206.51,433.5z"/>
			<path fill="none" stroke="#FFFFFF" stroke-width="2.0293" stroke-miterlimit="10" d="M29.58,414.93c-6.07,0-6.08,9.44,0,9.44
				C35.65,424.37,35.67,414.93,29.58,414.93z"/>
			<path fill="none" stroke="#FFFFFF" stroke-width="2.0293" stroke-miterlimit="10" d="M-12.81,346.58c-0.11,0-0.11,0.17,0,0.17
				C-12.7,346.75-12.7,346.58-12.81,346.58z"/>
			<path fill="none" stroke="#FFFFFF" stroke-width="2.0293" stroke-miterlimit="10" d="M-5.07,344.44c-3.34,0-3.35,5.19,0,5.19
				C-1.73,349.63-1.72,344.44-5.07,344.44z"/>
			<path fill="none" stroke="#FFFFFF" stroke-width="2.0293" stroke-miterlimit="10" d="M-10.6,433.38c-2.73,0-2.74,4.25,0,4.25
				C-7.86,437.62-7.86,433.38-10.6,433.38z"/>
			<path fill="none" stroke="#FFFFFF" stroke-width="2.0293" stroke-miterlimit="10" d="M27,493.93c-2.13,0-2.13,3.3,0,3.3
				C29.12,497.23,29.12,493.93,27,493.93z"/>
			<path fill="none" stroke="#FFFFFF" stroke-width="2.0293" stroke-miterlimit="10" d="M85.54,487.18l-0.1-0.08
				c-1.01-0.82-2.14-1.52-3.51-1.46c-1.39,0.06-2.44,0.58-3.51,1.46l-0.1,0.08c-0.63,0.51-1.07,1.5-1.31,2.26
				c-0.35,1.08-0.17,2.31,0.26,3.33c0.76,1.79,2.64,3.23,4.67,3.14c1.78-0.08,3.49-0.96,4.41-2.53
				C87.38,491.58,87.26,488.58,85.54,487.18z"/>
			<path fill="none" stroke="#FFFFFF" stroke-width="2.0293" stroke-miterlimit="10" d="M108.85,445.22
				c-0.03-0.04-0.06-0.09-0.09-0.13c-1.25-1.87-3.78-1.87-5.03,0c-0.03,0.04-0.06,0.09-0.09,0.13c-1.29,1.94,0.42,4.53,2.6,4.53
				C108.43,449.75,110.14,447.16,108.85,445.22z"/>
			<path fill="none" stroke="#FFFFFF" stroke-width="2.0293" stroke-miterlimit="10" d="M153.43,477.99c-5.57,0-5.58,8.65,0,8.65
				C158.99,486.64,159.01,477.99,153.43,477.99z"/>
			<path fill="none" stroke="#FFFFFF" stroke-width="2.0293" stroke-miterlimit="10" d="M29.21,358.29c-4.96,0-4.97,7.71,0,7.71
				C34.17,366,34.18,358.29,29.21,358.29z"/>
			<path fill="none" stroke="#FFFFFF" stroke-width="2.0293" stroke-miterlimit="10" d="M10.05,304.56c-4.86,0-4.87,7.55,0,7.55
				C14.9,312.11,14.91,304.56,10.05,304.56z"/>
			<path fill="none" stroke="#FFFFFF" stroke-width="2.0293" stroke-miterlimit="10" d="M49.67,309.28c-2.3,0-4.5,2.02-4.39,4.39
				c0.11,2.38,1.93,4.39,4.39,4.39c2.3,0,4.5-2.02,4.39-4.39C53.96,311.3,52.12,309.28,49.67,309.28z"/>
			<path fill="none" stroke="#FFFFFF" stroke-width="2.0293" stroke-miterlimit="10" d="M58.7,279.67c-4.15,0-4.16,6.45,0,6.45
				C62.85,286.12,62.86,279.67,58.7,279.67z"/>
			<path fill="none" stroke="#FFFFFF" stroke-width="2.0293" stroke-miterlimit="10" d="M89.67,240.81c-4.35,0-4.36,6.76,0,6.76
				C94.01,247.58,94.01,240.81,89.67,240.81z"/>
			<path fill="none" stroke="#FFFFFF" stroke-width="2.0293" stroke-miterlimit="10" d="M65.89,222.38c-2.73,0-5.35,2.4-5.23,5.23
				c0.13,2.83,2.3,5.23,5.23,5.23c2.73,0,5.35-2.4,5.23-5.23C70.99,224.77,68.82,222.38,65.89,222.38z"/>
			<path fill="none" stroke="#FFFFFF" stroke-width="2.0293" stroke-miterlimit="10" d="M154.17,230.16c-2.72,0-5.32,2.39-5.19,5.19
				c0.13,2.81,2.28,5.19,5.19,5.19c2.72,0,5.32-2.39,5.19-5.19C159.24,232.54,157.07,230.16,154.17,230.16z"/>
			<path fill="none" stroke="#FFFFFF" stroke-width="2.0293" stroke-miterlimit="10" d="M151.96,274.77c-1.92,0-1.93,2.99,0,2.99
				C153.88,277.76,153.88,274.77,151.96,274.77z"/>
			<path fill="none" stroke="#FFFFFF" stroke-width="2.0293" stroke-miterlimit="10" d="M156.74,287.1c-2.14,0-4.19,1.88-4.1,4.1
				c0.1,2.22,1.8,4.1,4.1,4.1c2.14,0,4.19-1.88,4.1-4.1C160.74,288.97,159.04,287.1,156.74,287.1z"/>
			<path fill="none" stroke="#FFFFFF" stroke-width="2.0293" stroke-miterlimit="10" d="M8.2,382.73c-7.19,0-7.2,11.17,0,11.17
				C15.39,393.9,15.4,382.73,8.2,382.73z"/>
		</g>
	</g>
	<g>
		<path fill="#251226" d="M329.39,160.37c-16.02,17.47-40.1,27.22-63.76,25.83c-9.9-0.58-20.29-3.38-26.89-10.78
			c-6.6-7.4-3.93-28.83-3.93-28.83s-4.39,11.16-15.78,8.91c-9.51-6.64-4.52-17.54-4.52-17.54s-13.59,16.78-23.49,17.16
			c-9.91,0.38-19.13-5.17-26.42-11.9c-17.41-16.08-27.08-40.19-25.61-63.85c-54.46,7.3-102.07,51.27-113.68,104.98
			c15.27-15.51,40.57-20.07,60.3-10.87c9.67,4.51,17.68,12.2,23.06,21.38c6.07,10.35,5.47,20.09,7.85,31.01
			c15.63-9.1,29.91-16.13,48.71-11.69c-3.77,12.61,2.95,27.31,14.61,33.19l-0.01,0.02c0.03,0.01,0.06,0.02,0.1,0.03
			c0.03,0.02,0.06,0.03,0.09,0.05l0.01-0.02c12.32,4.32,27.57-1.04,34.04-12.49c16.24,10.47,21.07,25.64,25.36,43.21
			c9.52-5.86,16.12-13.05,27.79-15.85c10.34-2.48,21.44-2.04,31.4,1.79c20.31,7.83,34.57,29.22,33.98,50.98
			C363.22,269.47,361.89,204.68,329.39,160.37z"/>
	</g>
</g>
<g id="TEXTS" display="none">
	
		<text transform="matrix(1 0 0 1 462.0082 328.3349)" display="inline" fill="#FF8F0F" font-family="'ArialMT'" font-size="93.9265px">party</text>
	<g display="inline">
		<text transform="matrix(1 0 0 1 465.9321 237.5453)" fill="#FFFFFF" font-family="'ArialMT'" font-size="98.0347px">Halloween</text>
	</g>
	<g display="inline">
		<rect x="462.01" y="375.77" fill="none" width="512.09" height="84.83"/>
		<text transform="matrix(1 0 0 1 462.0085 386.4193)" fill="#FFFFFF" font-family="'ArialMT'" font-size="15px">Adipiscing elit, sdiam nonummy euismod Ut wisi enim ad minim veniam.Lorem </text>
		<text transform="matrix(1 0 0 1 462.0085 410.0893)" fill="#FFFFFF" font-family="'ArialMT'" font-size="15px">ipsum dolor sit amet, consectetuer adipiscing elit, sed diam nonummy nibh </text>
		<text transform="matrix(1 0 0 1 462.0085 433.7593)" fill="#FFFFFF" font-family="'ArialMT'" font-size="15px">euismod tincidunt ut laoreet dolore magna aliquam erat volutpat. Ut wisi enim ad </text>
		<text transform="matrix(1 0 0 1 462.0085 457.4393)" fill="#FFFFFF" font-family="'ArialMT'" font-size="15px">minim veniam, quis nostrud </text>
	</g>
	<g display="inline">
		<rect x="462.01" y="523.13" fill="none" width="156.19" height="36.09"/>
		<text transform="matrix(1 0 0 1 462.0085 533.7786)" fill="#FFFFFF" font-family="'ArialMT'" font-size="15px">Address, cll 11 # 11a-11</text>
		<text transform="matrix(1 0 0 1 462.0085 557.4486)" fill="#FFFFFF" font-family="'ArialMT'" font-size="15px">OCT 31 / 5pm - 10pm</text>
	</g>
	<g display="inline">
		<text transform="matrix(1 0 0 1 462.0086 500.897)" fill="#FF8F0F" font-family="'ArialMT'" font-size="20px">Information</text>
	</g>
	<g display="inline">
		<g>
			<text transform="matrix(1 0 0 1 462.0084 -49.4401)" fill="#FF8F0F" font-family="'ArialMT'" font-size="15px">HOME</text>
		</g>
		<text transform="matrix(1 0 0 1 580.5586 -49.4401)" fill="#FFFFFF" font-family="'ArialMT'" font-size="15px">ABOUT </text>
		<text transform="matrix(1 0 0 1 708.5312 -49.4401)" fill="#FFFFFF" font-family="'ArialMT'" font-size="15px">SERVICES</text>
		<text transform="matrix(1 0 0 1 851.9736 -49.4401)" fill="#FFFFFF" font-family="'ArialMT'" font-size="15px">CONTACT US</text>
		<g>
			<text transform="matrix(1 0 0 1 1016.0523 -49.4401)" fill="#FFFFFF" font-family="'ArialMT'" font-size="15px">FAQ</text>
		</g>
	</g>
</g>
</svg>
